%TF.GenerationSoftware,KiCad,Pcbnew,8.0.4*%
%TF.CreationDate,2025-01-27T11:44:49+05:30*%
%TF.ProjectId,Flash_light,466c6173-685f-46c6-9967-68742e6b6963,1*%
%TF.SameCoordinates,Original*%
%TF.FileFunction,Drillmap*%
%TF.FilePolarity,Positive*%
%FSLAX45Y45*%
G04 Gerber Fmt 4.5, Leading zero omitted, Abs format (unit mm)*
G04 Created by KiCad (PCBNEW 8.0.4) date 2025-01-27 11:44:49*
%MOMM*%
%LPD*%
G01*
G04 APERTURE LIST*
%ADD10C,0.050000*%
%ADD11C,0.200000*%
%ADD12C,0.100000*%
G04 APERTURE END LIST*
D10*
X16613187Y-17142337D02*
G75*
G02*
X16566000Y-17192000I-52188J2337D01*
G01*
X16558000Y-15459000D02*
G75*
G02*
X16620027Y-15518104I2000J-60000D01*
G01*
X15925606Y-15458796D02*
X16558000Y-15459000D01*
X13504000Y-15775000D02*
G75*
G02*
X15925606Y-15458796I1300000J-525000D01*
G01*
X10800000Y-15775000D02*
X13504000Y-15775000D01*
X16613187Y-17142337D02*
X16620027Y-15518104D01*
X15921606Y-17191204D02*
X16566000Y-17192000D01*
X15921606Y-17191204D02*
G75*
G02*
X13500000Y-16875000I-1121606J841204D01*
G01*
X10800000Y-16875000D02*
X13500000Y-16875000D01*
X10800000Y-16875000D02*
G75*
G02*
X10800000Y-15775000I0J550000D01*
G01*
X16346803Y-15703000D02*
G75*
G02*
X16123197Y-15703000I-111803J0D01*
G01*
X16123197Y-15703000D02*
G75*
G02*
X16346803Y-15703000I111803J0D01*
G01*
X16350000Y-16945000D02*
G75*
G02*
X16126393Y-16945000I-111803J0D01*
G01*
X16126393Y-16945000D02*
G75*
G02*
X16350000Y-16945000I111803J0D01*
G01*
X11511803Y-16325000D02*
G75*
G02*
X11288197Y-16325000I-111803J0D01*
G01*
X11288197Y-16325000D02*
G75*
G02*
X11511803Y-16325000I111803J0D01*
G01*
D11*
D12*
X11765000Y-15909000D02*
X11835000Y-15979000D01*
X11835000Y-15909000D02*
X11765000Y-15979000D01*
X11765000Y-16671000D02*
X11835000Y-16741000D01*
X11835000Y-16671000D02*
X11765000Y-16741000D01*
X10845000Y-16197500D02*
G75*
G02*
X10755000Y-16197500I-45000J0D01*
G01*
X10755000Y-16197500D02*
G75*
G02*
X10845000Y-16197500I45000J0D01*
G01*
X10845000Y-16451500D02*
G75*
G02*
X10755000Y-16451500I-45000J0D01*
G01*
X10755000Y-16451500D02*
G75*
G02*
X10845000Y-16451500I45000J0D01*
G01*
X12275000Y-16050000D02*
X12275000Y-16150000D01*
X12225000Y-16100000D02*
X12325000Y-16100000D01*
X12275000Y-16500000D02*
X12275000Y-16600000D01*
X12225000Y-16550000D02*
X12325000Y-16550000D01*
X12925000Y-16050000D02*
X12925000Y-16150000D01*
X12875000Y-16100000D02*
X12975000Y-16100000D01*
X12925000Y-16500000D02*
X12925000Y-16600000D01*
X12875000Y-16550000D02*
X12975000Y-16550000D01*
D11*
X10508277Y-18065991D02*
X10508277Y-17865991D01*
X10508277Y-17865991D02*
X10555896Y-17865991D01*
X10555896Y-17865991D02*
X10584467Y-17875515D01*
X10584467Y-17875515D02*
X10603515Y-17894563D01*
X10603515Y-17894563D02*
X10613039Y-17913610D01*
X10613039Y-17913610D02*
X10622563Y-17951705D01*
X10622563Y-17951705D02*
X10622563Y-17980277D01*
X10622563Y-17980277D02*
X10613039Y-18018372D01*
X10613039Y-18018372D02*
X10603515Y-18037420D01*
X10603515Y-18037420D02*
X10584467Y-18056467D01*
X10584467Y-18056467D02*
X10555896Y-18065991D01*
X10555896Y-18065991D02*
X10508277Y-18065991D01*
X10708277Y-18065991D02*
X10708277Y-17932658D01*
X10708277Y-17970753D02*
X10717801Y-17951705D01*
X10717801Y-17951705D02*
X10727324Y-17942182D01*
X10727324Y-17942182D02*
X10746372Y-17932658D01*
X10746372Y-17932658D02*
X10765420Y-17932658D01*
X10832086Y-18065991D02*
X10832086Y-17932658D01*
X10832086Y-17865991D02*
X10822563Y-17875515D01*
X10822563Y-17875515D02*
X10832086Y-17885039D01*
X10832086Y-17885039D02*
X10841610Y-17875515D01*
X10841610Y-17875515D02*
X10832086Y-17865991D01*
X10832086Y-17865991D02*
X10832086Y-17885039D01*
X10955896Y-18065991D02*
X10936848Y-18056467D01*
X10936848Y-18056467D02*
X10927324Y-18037420D01*
X10927324Y-18037420D02*
X10927324Y-17865991D01*
X11060658Y-18065991D02*
X11041610Y-18056467D01*
X11041610Y-18056467D02*
X11032086Y-18037420D01*
X11032086Y-18037420D02*
X11032086Y-17865991D01*
X11289229Y-18065991D02*
X11289229Y-17865991D01*
X11289229Y-17865991D02*
X11355896Y-18008848D01*
X11355896Y-18008848D02*
X11422562Y-17865991D01*
X11422562Y-17865991D02*
X11422562Y-18065991D01*
X11603515Y-18065991D02*
X11603515Y-17961229D01*
X11603515Y-17961229D02*
X11593991Y-17942182D01*
X11593991Y-17942182D02*
X11574943Y-17932658D01*
X11574943Y-17932658D02*
X11536848Y-17932658D01*
X11536848Y-17932658D02*
X11517801Y-17942182D01*
X11603515Y-18056467D02*
X11584467Y-18065991D01*
X11584467Y-18065991D02*
X11536848Y-18065991D01*
X11536848Y-18065991D02*
X11517801Y-18056467D01*
X11517801Y-18056467D02*
X11508277Y-18037420D01*
X11508277Y-18037420D02*
X11508277Y-18018372D01*
X11508277Y-18018372D02*
X11517801Y-17999325D01*
X11517801Y-17999325D02*
X11536848Y-17989801D01*
X11536848Y-17989801D02*
X11584467Y-17989801D01*
X11584467Y-17989801D02*
X11603515Y-17980277D01*
X11698753Y-17932658D02*
X11698753Y-18132658D01*
X11698753Y-17942182D02*
X11717801Y-17932658D01*
X11717801Y-17932658D02*
X11755896Y-17932658D01*
X11755896Y-17932658D02*
X11774943Y-17942182D01*
X11774943Y-17942182D02*
X11784467Y-17951705D01*
X11784467Y-17951705D02*
X11793991Y-17970753D01*
X11793991Y-17970753D02*
X11793991Y-18027896D01*
X11793991Y-18027896D02*
X11784467Y-18046944D01*
X11784467Y-18046944D02*
X11774943Y-18056467D01*
X11774943Y-18056467D02*
X11755896Y-18065991D01*
X11755896Y-18065991D02*
X11717801Y-18065991D01*
X11717801Y-18065991D02*
X11698753Y-18056467D01*
X11879705Y-18046944D02*
X11889229Y-18056467D01*
X11889229Y-18056467D02*
X11879705Y-18065991D01*
X11879705Y-18065991D02*
X11870182Y-18056467D01*
X11870182Y-18056467D02*
X11879705Y-18046944D01*
X11879705Y-18046944D02*
X11879705Y-18065991D01*
X11879705Y-17942182D02*
X11889229Y-17951705D01*
X11889229Y-17951705D02*
X11879705Y-17961229D01*
X11879705Y-17961229D02*
X11870182Y-17951705D01*
X11870182Y-17951705D02*
X11879705Y-17942182D01*
X11879705Y-17942182D02*
X11879705Y-17961229D01*
D12*
X10177500Y-18359507D02*
X10247500Y-18429507D01*
X10247500Y-18359507D02*
X10177500Y-18429507D01*
D11*
X10546372Y-18285991D02*
X10565420Y-18285991D01*
X10565420Y-18285991D02*
X10584467Y-18295515D01*
X10584467Y-18295515D02*
X10593991Y-18305039D01*
X10593991Y-18305039D02*
X10603515Y-18324086D01*
X10603515Y-18324086D02*
X10613039Y-18362182D01*
X10613039Y-18362182D02*
X10613039Y-18409801D01*
X10613039Y-18409801D02*
X10603515Y-18447896D01*
X10603515Y-18447896D02*
X10593991Y-18466944D01*
X10593991Y-18466944D02*
X10584467Y-18476467D01*
X10584467Y-18476467D02*
X10565420Y-18485991D01*
X10565420Y-18485991D02*
X10546372Y-18485991D01*
X10546372Y-18485991D02*
X10527324Y-18476467D01*
X10527324Y-18476467D02*
X10517801Y-18466944D01*
X10517801Y-18466944D02*
X10508277Y-18447896D01*
X10508277Y-18447896D02*
X10498753Y-18409801D01*
X10498753Y-18409801D02*
X10498753Y-18362182D01*
X10498753Y-18362182D02*
X10508277Y-18324086D01*
X10508277Y-18324086D02*
X10517801Y-18305039D01*
X10517801Y-18305039D02*
X10527324Y-18295515D01*
X10527324Y-18295515D02*
X10546372Y-18285991D01*
X10698753Y-18466944D02*
X10708277Y-18476467D01*
X10708277Y-18476467D02*
X10698753Y-18485991D01*
X10698753Y-18485991D02*
X10689229Y-18476467D01*
X10689229Y-18476467D02*
X10698753Y-18466944D01*
X10698753Y-18466944D02*
X10698753Y-18485991D01*
X10774944Y-18285991D02*
X10908277Y-18285991D01*
X10908277Y-18285991D02*
X10822563Y-18485991D01*
X11022563Y-18285991D02*
X11041610Y-18285991D01*
X11041610Y-18285991D02*
X11060658Y-18295515D01*
X11060658Y-18295515D02*
X11070182Y-18305039D01*
X11070182Y-18305039D02*
X11079705Y-18324086D01*
X11079705Y-18324086D02*
X11089229Y-18362182D01*
X11089229Y-18362182D02*
X11089229Y-18409801D01*
X11089229Y-18409801D02*
X11079705Y-18447896D01*
X11079705Y-18447896D02*
X11070182Y-18466944D01*
X11070182Y-18466944D02*
X11060658Y-18476467D01*
X11060658Y-18476467D02*
X11041610Y-18485991D01*
X11041610Y-18485991D02*
X11022563Y-18485991D01*
X11022563Y-18485991D02*
X11003515Y-18476467D01*
X11003515Y-18476467D02*
X10993991Y-18466944D01*
X10993991Y-18466944D02*
X10984467Y-18447896D01*
X10984467Y-18447896D02*
X10974944Y-18409801D01*
X10974944Y-18409801D02*
X10974944Y-18362182D01*
X10974944Y-18362182D02*
X10984467Y-18324086D01*
X10984467Y-18324086D02*
X10993991Y-18305039D01*
X10993991Y-18305039D02*
X11003515Y-18295515D01*
X11003515Y-18295515D02*
X11022563Y-18285991D01*
X11213039Y-18285991D02*
X11232086Y-18285991D01*
X11232086Y-18285991D02*
X11251134Y-18295515D01*
X11251134Y-18295515D02*
X11260658Y-18305039D01*
X11260658Y-18305039D02*
X11270182Y-18324086D01*
X11270182Y-18324086D02*
X11279705Y-18362182D01*
X11279705Y-18362182D02*
X11279705Y-18409801D01*
X11279705Y-18409801D02*
X11270182Y-18447896D01*
X11270182Y-18447896D02*
X11260658Y-18466944D01*
X11260658Y-18466944D02*
X11251134Y-18476467D01*
X11251134Y-18476467D02*
X11232086Y-18485991D01*
X11232086Y-18485991D02*
X11213039Y-18485991D01*
X11213039Y-18485991D02*
X11193991Y-18476467D01*
X11193991Y-18476467D02*
X11184467Y-18466944D01*
X11184467Y-18466944D02*
X11174944Y-18447896D01*
X11174944Y-18447896D02*
X11165420Y-18409801D01*
X11165420Y-18409801D02*
X11165420Y-18362182D01*
X11165420Y-18362182D02*
X11174944Y-18324086D01*
X11174944Y-18324086D02*
X11184467Y-18305039D01*
X11184467Y-18305039D02*
X11193991Y-18295515D01*
X11193991Y-18295515D02*
X11213039Y-18285991D01*
X11365420Y-18485991D02*
X11365420Y-18352658D01*
X11365420Y-18371705D02*
X11374943Y-18362182D01*
X11374943Y-18362182D02*
X11393991Y-18352658D01*
X11393991Y-18352658D02*
X11422563Y-18352658D01*
X11422563Y-18352658D02*
X11441610Y-18362182D01*
X11441610Y-18362182D02*
X11451134Y-18381229D01*
X11451134Y-18381229D02*
X11451134Y-18485991D01*
X11451134Y-18381229D02*
X11460658Y-18362182D01*
X11460658Y-18362182D02*
X11479705Y-18352658D01*
X11479705Y-18352658D02*
X11508277Y-18352658D01*
X11508277Y-18352658D02*
X11527324Y-18362182D01*
X11527324Y-18362182D02*
X11536848Y-18381229D01*
X11536848Y-18381229D02*
X11536848Y-18485991D01*
X11632086Y-18485991D02*
X11632086Y-18352658D01*
X11632086Y-18371705D02*
X11641610Y-18362182D01*
X11641610Y-18362182D02*
X11660658Y-18352658D01*
X11660658Y-18352658D02*
X11689229Y-18352658D01*
X11689229Y-18352658D02*
X11708277Y-18362182D01*
X11708277Y-18362182D02*
X11717801Y-18381229D01*
X11717801Y-18381229D02*
X11717801Y-18485991D01*
X11717801Y-18381229D02*
X11727324Y-18362182D01*
X11727324Y-18362182D02*
X11746372Y-18352658D01*
X11746372Y-18352658D02*
X11774943Y-18352658D01*
X11774943Y-18352658D02*
X11793991Y-18362182D01*
X11793991Y-18362182D02*
X11803515Y-18381229D01*
X11803515Y-18381229D02*
X11803515Y-18485991D01*
X12193991Y-18276467D02*
X12022563Y-18533610D01*
X12451134Y-18285991D02*
X12470182Y-18285991D01*
X12470182Y-18285991D02*
X12489229Y-18295515D01*
X12489229Y-18295515D02*
X12498753Y-18305039D01*
X12498753Y-18305039D02*
X12508277Y-18324086D01*
X12508277Y-18324086D02*
X12517801Y-18362182D01*
X12517801Y-18362182D02*
X12517801Y-18409801D01*
X12517801Y-18409801D02*
X12508277Y-18447896D01*
X12508277Y-18447896D02*
X12498753Y-18466944D01*
X12498753Y-18466944D02*
X12489229Y-18476467D01*
X12489229Y-18476467D02*
X12470182Y-18485991D01*
X12470182Y-18485991D02*
X12451134Y-18485991D01*
X12451134Y-18485991D02*
X12432086Y-18476467D01*
X12432086Y-18476467D02*
X12422563Y-18466944D01*
X12422563Y-18466944D02*
X12413039Y-18447896D01*
X12413039Y-18447896D02*
X12403515Y-18409801D01*
X12403515Y-18409801D02*
X12403515Y-18362182D01*
X12403515Y-18362182D02*
X12413039Y-18324086D01*
X12413039Y-18324086D02*
X12422563Y-18305039D01*
X12422563Y-18305039D02*
X12432086Y-18295515D01*
X12432086Y-18295515D02*
X12451134Y-18285991D01*
X12603515Y-18466944D02*
X12613039Y-18476467D01*
X12613039Y-18476467D02*
X12603515Y-18485991D01*
X12603515Y-18485991D02*
X12593991Y-18476467D01*
X12593991Y-18476467D02*
X12603515Y-18466944D01*
X12603515Y-18466944D02*
X12603515Y-18485991D01*
X12736848Y-18285991D02*
X12755896Y-18285991D01*
X12755896Y-18285991D02*
X12774944Y-18295515D01*
X12774944Y-18295515D02*
X12784467Y-18305039D01*
X12784467Y-18305039D02*
X12793991Y-18324086D01*
X12793991Y-18324086D02*
X12803515Y-18362182D01*
X12803515Y-18362182D02*
X12803515Y-18409801D01*
X12803515Y-18409801D02*
X12793991Y-18447896D01*
X12793991Y-18447896D02*
X12784467Y-18466944D01*
X12784467Y-18466944D02*
X12774944Y-18476467D01*
X12774944Y-18476467D02*
X12755896Y-18485991D01*
X12755896Y-18485991D02*
X12736848Y-18485991D01*
X12736848Y-18485991D02*
X12717801Y-18476467D01*
X12717801Y-18476467D02*
X12708277Y-18466944D01*
X12708277Y-18466944D02*
X12698753Y-18447896D01*
X12698753Y-18447896D02*
X12689229Y-18409801D01*
X12689229Y-18409801D02*
X12689229Y-18362182D01*
X12689229Y-18362182D02*
X12698753Y-18324086D01*
X12698753Y-18324086D02*
X12708277Y-18305039D01*
X12708277Y-18305039D02*
X12717801Y-18295515D01*
X12717801Y-18295515D02*
X12736848Y-18285991D01*
X12879706Y-18305039D02*
X12889229Y-18295515D01*
X12889229Y-18295515D02*
X12908277Y-18285991D01*
X12908277Y-18285991D02*
X12955896Y-18285991D01*
X12955896Y-18285991D02*
X12974944Y-18295515D01*
X12974944Y-18295515D02*
X12984467Y-18305039D01*
X12984467Y-18305039D02*
X12993991Y-18324086D01*
X12993991Y-18324086D02*
X12993991Y-18343134D01*
X12993991Y-18343134D02*
X12984467Y-18371705D01*
X12984467Y-18371705D02*
X12870182Y-18485991D01*
X12870182Y-18485991D02*
X12993991Y-18485991D01*
X13060658Y-18285991D02*
X13193991Y-18285991D01*
X13193991Y-18285991D02*
X13108277Y-18485991D01*
X13355896Y-18285991D02*
X13317801Y-18285991D01*
X13317801Y-18285991D02*
X13298753Y-18295515D01*
X13298753Y-18295515D02*
X13289229Y-18305039D01*
X13289229Y-18305039D02*
X13270182Y-18333610D01*
X13270182Y-18333610D02*
X13260658Y-18371705D01*
X13260658Y-18371705D02*
X13260658Y-18447896D01*
X13260658Y-18447896D02*
X13270182Y-18466944D01*
X13270182Y-18466944D02*
X13279706Y-18476467D01*
X13279706Y-18476467D02*
X13298753Y-18485991D01*
X13298753Y-18485991D02*
X13336848Y-18485991D01*
X13336848Y-18485991D02*
X13355896Y-18476467D01*
X13355896Y-18476467D02*
X13365420Y-18466944D01*
X13365420Y-18466944D02*
X13374944Y-18447896D01*
X13374944Y-18447896D02*
X13374944Y-18400277D01*
X13374944Y-18400277D02*
X13365420Y-18381229D01*
X13365420Y-18381229D02*
X13355896Y-18371705D01*
X13355896Y-18371705D02*
X13336848Y-18362182D01*
X13336848Y-18362182D02*
X13298753Y-18362182D01*
X13298753Y-18362182D02*
X13279706Y-18371705D01*
X13279706Y-18371705D02*
X13270182Y-18381229D01*
X13270182Y-18381229D02*
X13260658Y-18400277D01*
X13451134Y-18285991D02*
X13451134Y-18324086D01*
X13527325Y-18285991D02*
X13527325Y-18324086D01*
X13822563Y-18562182D02*
X13813039Y-18552658D01*
X13813039Y-18552658D02*
X13793991Y-18524086D01*
X13793991Y-18524086D02*
X13784468Y-18505039D01*
X13784468Y-18505039D02*
X13774944Y-18476467D01*
X13774944Y-18476467D02*
X13765420Y-18428848D01*
X13765420Y-18428848D02*
X13765420Y-18390753D01*
X13765420Y-18390753D02*
X13774944Y-18343134D01*
X13774944Y-18343134D02*
X13784468Y-18314563D01*
X13784468Y-18314563D02*
X13793991Y-18295515D01*
X13793991Y-18295515D02*
X13813039Y-18266944D01*
X13813039Y-18266944D02*
X13822563Y-18257420D01*
X13889229Y-18305039D02*
X13898753Y-18295515D01*
X13898753Y-18295515D02*
X13917801Y-18285991D01*
X13917801Y-18285991D02*
X13965420Y-18285991D01*
X13965420Y-18285991D02*
X13984468Y-18295515D01*
X13984468Y-18295515D02*
X13993991Y-18305039D01*
X13993991Y-18305039D02*
X14003515Y-18324086D01*
X14003515Y-18324086D02*
X14003515Y-18343134D01*
X14003515Y-18343134D02*
X13993991Y-18371705D01*
X13993991Y-18371705D02*
X13879706Y-18485991D01*
X13879706Y-18485991D02*
X14003515Y-18485991D01*
X14241610Y-18485991D02*
X14241610Y-18285991D01*
X14327325Y-18485991D02*
X14327325Y-18381229D01*
X14327325Y-18381229D02*
X14317801Y-18362182D01*
X14317801Y-18362182D02*
X14298753Y-18352658D01*
X14298753Y-18352658D02*
X14270182Y-18352658D01*
X14270182Y-18352658D02*
X14251134Y-18362182D01*
X14251134Y-18362182D02*
X14241610Y-18371705D01*
X14451134Y-18485991D02*
X14432087Y-18476467D01*
X14432087Y-18476467D02*
X14422563Y-18466944D01*
X14422563Y-18466944D02*
X14413039Y-18447896D01*
X14413039Y-18447896D02*
X14413039Y-18390753D01*
X14413039Y-18390753D02*
X14422563Y-18371705D01*
X14422563Y-18371705D02*
X14432087Y-18362182D01*
X14432087Y-18362182D02*
X14451134Y-18352658D01*
X14451134Y-18352658D02*
X14479706Y-18352658D01*
X14479706Y-18352658D02*
X14498753Y-18362182D01*
X14498753Y-18362182D02*
X14508277Y-18371705D01*
X14508277Y-18371705D02*
X14517801Y-18390753D01*
X14517801Y-18390753D02*
X14517801Y-18447896D01*
X14517801Y-18447896D02*
X14508277Y-18466944D01*
X14508277Y-18466944D02*
X14498753Y-18476467D01*
X14498753Y-18476467D02*
X14479706Y-18485991D01*
X14479706Y-18485991D02*
X14451134Y-18485991D01*
X14632087Y-18485991D02*
X14613039Y-18476467D01*
X14613039Y-18476467D02*
X14603515Y-18457420D01*
X14603515Y-18457420D02*
X14603515Y-18285991D01*
X14784468Y-18476467D02*
X14765420Y-18485991D01*
X14765420Y-18485991D02*
X14727325Y-18485991D01*
X14727325Y-18485991D02*
X14708277Y-18476467D01*
X14708277Y-18476467D02*
X14698753Y-18457420D01*
X14698753Y-18457420D02*
X14698753Y-18381229D01*
X14698753Y-18381229D02*
X14708277Y-18362182D01*
X14708277Y-18362182D02*
X14727325Y-18352658D01*
X14727325Y-18352658D02*
X14765420Y-18352658D01*
X14765420Y-18352658D02*
X14784468Y-18362182D01*
X14784468Y-18362182D02*
X14793991Y-18381229D01*
X14793991Y-18381229D02*
X14793991Y-18400277D01*
X14793991Y-18400277D02*
X14698753Y-18419325D01*
X14870182Y-18476467D02*
X14889230Y-18485991D01*
X14889230Y-18485991D02*
X14927325Y-18485991D01*
X14927325Y-18485991D02*
X14946372Y-18476467D01*
X14946372Y-18476467D02*
X14955896Y-18457420D01*
X14955896Y-18457420D02*
X14955896Y-18447896D01*
X14955896Y-18447896D02*
X14946372Y-18428848D01*
X14946372Y-18428848D02*
X14927325Y-18419325D01*
X14927325Y-18419325D02*
X14898753Y-18419325D01*
X14898753Y-18419325D02*
X14879706Y-18409801D01*
X14879706Y-18409801D02*
X14870182Y-18390753D01*
X14870182Y-18390753D02*
X14870182Y-18381229D01*
X14870182Y-18381229D02*
X14879706Y-18362182D01*
X14879706Y-18362182D02*
X14898753Y-18352658D01*
X14898753Y-18352658D02*
X14927325Y-18352658D01*
X14927325Y-18352658D02*
X14946372Y-18362182D01*
X15022563Y-18562182D02*
X15032087Y-18552658D01*
X15032087Y-18552658D02*
X15051134Y-18524086D01*
X15051134Y-18524086D02*
X15060658Y-18505039D01*
X15060658Y-18505039D02*
X15070182Y-18476467D01*
X15070182Y-18476467D02*
X15079706Y-18428848D01*
X15079706Y-18428848D02*
X15079706Y-18390753D01*
X15079706Y-18390753D02*
X15070182Y-18343134D01*
X15070182Y-18343134D02*
X15060658Y-18314563D01*
X15060658Y-18314563D02*
X15051134Y-18295515D01*
X15051134Y-18295515D02*
X15032087Y-18266944D01*
X15032087Y-18266944D02*
X15022563Y-18257420D01*
D12*
X10247500Y-18658507D02*
G75*
G02*
X10157500Y-18658507I-45000J0D01*
G01*
X10157500Y-18658507D02*
G75*
G02*
X10247500Y-18658507I45000J0D01*
G01*
D11*
X10546372Y-18549991D02*
X10565420Y-18549991D01*
X10565420Y-18549991D02*
X10584467Y-18559515D01*
X10584467Y-18559515D02*
X10593991Y-18569039D01*
X10593991Y-18569039D02*
X10603515Y-18588086D01*
X10603515Y-18588086D02*
X10613039Y-18626182D01*
X10613039Y-18626182D02*
X10613039Y-18673801D01*
X10613039Y-18673801D02*
X10603515Y-18711896D01*
X10603515Y-18711896D02*
X10593991Y-18730944D01*
X10593991Y-18730944D02*
X10584467Y-18740467D01*
X10584467Y-18740467D02*
X10565420Y-18749991D01*
X10565420Y-18749991D02*
X10546372Y-18749991D01*
X10546372Y-18749991D02*
X10527324Y-18740467D01*
X10527324Y-18740467D02*
X10517801Y-18730944D01*
X10517801Y-18730944D02*
X10508277Y-18711896D01*
X10508277Y-18711896D02*
X10498753Y-18673801D01*
X10498753Y-18673801D02*
X10498753Y-18626182D01*
X10498753Y-18626182D02*
X10508277Y-18588086D01*
X10508277Y-18588086D02*
X10517801Y-18569039D01*
X10517801Y-18569039D02*
X10527324Y-18559515D01*
X10527324Y-18559515D02*
X10546372Y-18549991D01*
X10698753Y-18730944D02*
X10708277Y-18740467D01*
X10708277Y-18740467D02*
X10698753Y-18749991D01*
X10698753Y-18749991D02*
X10689229Y-18740467D01*
X10689229Y-18740467D02*
X10698753Y-18730944D01*
X10698753Y-18730944D02*
X10698753Y-18749991D01*
X10803515Y-18749991D02*
X10841610Y-18749991D01*
X10841610Y-18749991D02*
X10860658Y-18740467D01*
X10860658Y-18740467D02*
X10870182Y-18730944D01*
X10870182Y-18730944D02*
X10889229Y-18702372D01*
X10889229Y-18702372D02*
X10898753Y-18664277D01*
X10898753Y-18664277D02*
X10898753Y-18588086D01*
X10898753Y-18588086D02*
X10889229Y-18569039D01*
X10889229Y-18569039D02*
X10879705Y-18559515D01*
X10879705Y-18559515D02*
X10860658Y-18549991D01*
X10860658Y-18549991D02*
X10822563Y-18549991D01*
X10822563Y-18549991D02*
X10803515Y-18559515D01*
X10803515Y-18559515D02*
X10793991Y-18569039D01*
X10793991Y-18569039D02*
X10784467Y-18588086D01*
X10784467Y-18588086D02*
X10784467Y-18635705D01*
X10784467Y-18635705D02*
X10793991Y-18654753D01*
X10793991Y-18654753D02*
X10803515Y-18664277D01*
X10803515Y-18664277D02*
X10822563Y-18673801D01*
X10822563Y-18673801D02*
X10860658Y-18673801D01*
X10860658Y-18673801D02*
X10879705Y-18664277D01*
X10879705Y-18664277D02*
X10889229Y-18654753D01*
X10889229Y-18654753D02*
X10898753Y-18635705D01*
X11022563Y-18549991D02*
X11041610Y-18549991D01*
X11041610Y-18549991D02*
X11060658Y-18559515D01*
X11060658Y-18559515D02*
X11070182Y-18569039D01*
X11070182Y-18569039D02*
X11079705Y-18588086D01*
X11079705Y-18588086D02*
X11089229Y-18626182D01*
X11089229Y-18626182D02*
X11089229Y-18673801D01*
X11089229Y-18673801D02*
X11079705Y-18711896D01*
X11079705Y-18711896D02*
X11070182Y-18730944D01*
X11070182Y-18730944D02*
X11060658Y-18740467D01*
X11060658Y-18740467D02*
X11041610Y-18749991D01*
X11041610Y-18749991D02*
X11022563Y-18749991D01*
X11022563Y-18749991D02*
X11003515Y-18740467D01*
X11003515Y-18740467D02*
X10993991Y-18730944D01*
X10993991Y-18730944D02*
X10984467Y-18711896D01*
X10984467Y-18711896D02*
X10974944Y-18673801D01*
X10974944Y-18673801D02*
X10974944Y-18626182D01*
X10974944Y-18626182D02*
X10984467Y-18588086D01*
X10984467Y-18588086D02*
X10993991Y-18569039D01*
X10993991Y-18569039D02*
X11003515Y-18559515D01*
X11003515Y-18559515D02*
X11022563Y-18549991D01*
X11213039Y-18549991D02*
X11232086Y-18549991D01*
X11232086Y-18549991D02*
X11251134Y-18559515D01*
X11251134Y-18559515D02*
X11260658Y-18569039D01*
X11260658Y-18569039D02*
X11270182Y-18588086D01*
X11270182Y-18588086D02*
X11279705Y-18626182D01*
X11279705Y-18626182D02*
X11279705Y-18673801D01*
X11279705Y-18673801D02*
X11270182Y-18711896D01*
X11270182Y-18711896D02*
X11260658Y-18730944D01*
X11260658Y-18730944D02*
X11251134Y-18740467D01*
X11251134Y-18740467D02*
X11232086Y-18749991D01*
X11232086Y-18749991D02*
X11213039Y-18749991D01*
X11213039Y-18749991D02*
X11193991Y-18740467D01*
X11193991Y-18740467D02*
X11184467Y-18730944D01*
X11184467Y-18730944D02*
X11174944Y-18711896D01*
X11174944Y-18711896D02*
X11165420Y-18673801D01*
X11165420Y-18673801D02*
X11165420Y-18626182D01*
X11165420Y-18626182D02*
X11174944Y-18588086D01*
X11174944Y-18588086D02*
X11184467Y-18569039D01*
X11184467Y-18569039D02*
X11193991Y-18559515D01*
X11193991Y-18559515D02*
X11213039Y-18549991D01*
X11365420Y-18749991D02*
X11365420Y-18616658D01*
X11365420Y-18635705D02*
X11374943Y-18626182D01*
X11374943Y-18626182D02*
X11393991Y-18616658D01*
X11393991Y-18616658D02*
X11422563Y-18616658D01*
X11422563Y-18616658D02*
X11441610Y-18626182D01*
X11441610Y-18626182D02*
X11451134Y-18645229D01*
X11451134Y-18645229D02*
X11451134Y-18749991D01*
X11451134Y-18645229D02*
X11460658Y-18626182D01*
X11460658Y-18626182D02*
X11479705Y-18616658D01*
X11479705Y-18616658D02*
X11508277Y-18616658D01*
X11508277Y-18616658D02*
X11527324Y-18626182D01*
X11527324Y-18626182D02*
X11536848Y-18645229D01*
X11536848Y-18645229D02*
X11536848Y-18749991D01*
X11632086Y-18749991D02*
X11632086Y-18616658D01*
X11632086Y-18635705D02*
X11641610Y-18626182D01*
X11641610Y-18626182D02*
X11660658Y-18616658D01*
X11660658Y-18616658D02*
X11689229Y-18616658D01*
X11689229Y-18616658D02*
X11708277Y-18626182D01*
X11708277Y-18626182D02*
X11717801Y-18645229D01*
X11717801Y-18645229D02*
X11717801Y-18749991D01*
X11717801Y-18645229D02*
X11727324Y-18626182D01*
X11727324Y-18626182D02*
X11746372Y-18616658D01*
X11746372Y-18616658D02*
X11774943Y-18616658D01*
X11774943Y-18616658D02*
X11793991Y-18626182D01*
X11793991Y-18626182D02*
X11803515Y-18645229D01*
X11803515Y-18645229D02*
X11803515Y-18749991D01*
X12193991Y-18540467D02*
X12022563Y-18797610D01*
X12451134Y-18549991D02*
X12470182Y-18549991D01*
X12470182Y-18549991D02*
X12489229Y-18559515D01*
X12489229Y-18559515D02*
X12498753Y-18569039D01*
X12498753Y-18569039D02*
X12508277Y-18588086D01*
X12508277Y-18588086D02*
X12517801Y-18626182D01*
X12517801Y-18626182D02*
X12517801Y-18673801D01*
X12517801Y-18673801D02*
X12508277Y-18711896D01*
X12508277Y-18711896D02*
X12498753Y-18730944D01*
X12498753Y-18730944D02*
X12489229Y-18740467D01*
X12489229Y-18740467D02*
X12470182Y-18749991D01*
X12470182Y-18749991D02*
X12451134Y-18749991D01*
X12451134Y-18749991D02*
X12432086Y-18740467D01*
X12432086Y-18740467D02*
X12422563Y-18730944D01*
X12422563Y-18730944D02*
X12413039Y-18711896D01*
X12413039Y-18711896D02*
X12403515Y-18673801D01*
X12403515Y-18673801D02*
X12403515Y-18626182D01*
X12403515Y-18626182D02*
X12413039Y-18588086D01*
X12413039Y-18588086D02*
X12422563Y-18569039D01*
X12422563Y-18569039D02*
X12432086Y-18559515D01*
X12432086Y-18559515D02*
X12451134Y-18549991D01*
X12603515Y-18730944D02*
X12613039Y-18740467D01*
X12613039Y-18740467D02*
X12603515Y-18749991D01*
X12603515Y-18749991D02*
X12593991Y-18740467D01*
X12593991Y-18740467D02*
X12603515Y-18730944D01*
X12603515Y-18730944D02*
X12603515Y-18749991D01*
X12736848Y-18549991D02*
X12755896Y-18549991D01*
X12755896Y-18549991D02*
X12774944Y-18559515D01*
X12774944Y-18559515D02*
X12784467Y-18569039D01*
X12784467Y-18569039D02*
X12793991Y-18588086D01*
X12793991Y-18588086D02*
X12803515Y-18626182D01*
X12803515Y-18626182D02*
X12803515Y-18673801D01*
X12803515Y-18673801D02*
X12793991Y-18711896D01*
X12793991Y-18711896D02*
X12784467Y-18730944D01*
X12784467Y-18730944D02*
X12774944Y-18740467D01*
X12774944Y-18740467D02*
X12755896Y-18749991D01*
X12755896Y-18749991D02*
X12736848Y-18749991D01*
X12736848Y-18749991D02*
X12717801Y-18740467D01*
X12717801Y-18740467D02*
X12708277Y-18730944D01*
X12708277Y-18730944D02*
X12698753Y-18711896D01*
X12698753Y-18711896D02*
X12689229Y-18673801D01*
X12689229Y-18673801D02*
X12689229Y-18626182D01*
X12689229Y-18626182D02*
X12698753Y-18588086D01*
X12698753Y-18588086D02*
X12708277Y-18569039D01*
X12708277Y-18569039D02*
X12717801Y-18559515D01*
X12717801Y-18559515D02*
X12736848Y-18549991D01*
X12870182Y-18549991D02*
X12993991Y-18549991D01*
X12993991Y-18549991D02*
X12927325Y-18626182D01*
X12927325Y-18626182D02*
X12955896Y-18626182D01*
X12955896Y-18626182D02*
X12974944Y-18635705D01*
X12974944Y-18635705D02*
X12984467Y-18645229D01*
X12984467Y-18645229D02*
X12993991Y-18664277D01*
X12993991Y-18664277D02*
X12993991Y-18711896D01*
X12993991Y-18711896D02*
X12984467Y-18730944D01*
X12984467Y-18730944D02*
X12974944Y-18740467D01*
X12974944Y-18740467D02*
X12955896Y-18749991D01*
X12955896Y-18749991D02*
X12898753Y-18749991D01*
X12898753Y-18749991D02*
X12879706Y-18740467D01*
X12879706Y-18740467D02*
X12870182Y-18730944D01*
X13174944Y-18549991D02*
X13079706Y-18549991D01*
X13079706Y-18549991D02*
X13070182Y-18645229D01*
X13070182Y-18645229D02*
X13079706Y-18635705D01*
X13079706Y-18635705D02*
X13098753Y-18626182D01*
X13098753Y-18626182D02*
X13146372Y-18626182D01*
X13146372Y-18626182D02*
X13165420Y-18635705D01*
X13165420Y-18635705D02*
X13174944Y-18645229D01*
X13174944Y-18645229D02*
X13184467Y-18664277D01*
X13184467Y-18664277D02*
X13184467Y-18711896D01*
X13184467Y-18711896D02*
X13174944Y-18730944D01*
X13174944Y-18730944D02*
X13165420Y-18740467D01*
X13165420Y-18740467D02*
X13146372Y-18749991D01*
X13146372Y-18749991D02*
X13098753Y-18749991D01*
X13098753Y-18749991D02*
X13079706Y-18740467D01*
X13079706Y-18740467D02*
X13070182Y-18730944D01*
X13355896Y-18616658D02*
X13355896Y-18749991D01*
X13308277Y-18540467D02*
X13260658Y-18683325D01*
X13260658Y-18683325D02*
X13384467Y-18683325D01*
X13451134Y-18549991D02*
X13451134Y-18588086D01*
X13527325Y-18549991D02*
X13527325Y-18588086D01*
X13822563Y-18826182D02*
X13813039Y-18816658D01*
X13813039Y-18816658D02*
X13793991Y-18788086D01*
X13793991Y-18788086D02*
X13784468Y-18769039D01*
X13784468Y-18769039D02*
X13774944Y-18740467D01*
X13774944Y-18740467D02*
X13765420Y-18692848D01*
X13765420Y-18692848D02*
X13765420Y-18654753D01*
X13765420Y-18654753D02*
X13774944Y-18607134D01*
X13774944Y-18607134D02*
X13784468Y-18578563D01*
X13784468Y-18578563D02*
X13793991Y-18559515D01*
X13793991Y-18559515D02*
X13813039Y-18530944D01*
X13813039Y-18530944D02*
X13822563Y-18521420D01*
X13889229Y-18569039D02*
X13898753Y-18559515D01*
X13898753Y-18559515D02*
X13917801Y-18549991D01*
X13917801Y-18549991D02*
X13965420Y-18549991D01*
X13965420Y-18549991D02*
X13984468Y-18559515D01*
X13984468Y-18559515D02*
X13993991Y-18569039D01*
X13993991Y-18569039D02*
X14003515Y-18588086D01*
X14003515Y-18588086D02*
X14003515Y-18607134D01*
X14003515Y-18607134D02*
X13993991Y-18635705D01*
X13993991Y-18635705D02*
X13879706Y-18749991D01*
X13879706Y-18749991D02*
X14003515Y-18749991D01*
X14241610Y-18749991D02*
X14241610Y-18549991D01*
X14327325Y-18749991D02*
X14327325Y-18645229D01*
X14327325Y-18645229D02*
X14317801Y-18626182D01*
X14317801Y-18626182D02*
X14298753Y-18616658D01*
X14298753Y-18616658D02*
X14270182Y-18616658D01*
X14270182Y-18616658D02*
X14251134Y-18626182D01*
X14251134Y-18626182D02*
X14241610Y-18635705D01*
X14451134Y-18749991D02*
X14432087Y-18740467D01*
X14432087Y-18740467D02*
X14422563Y-18730944D01*
X14422563Y-18730944D02*
X14413039Y-18711896D01*
X14413039Y-18711896D02*
X14413039Y-18654753D01*
X14413039Y-18654753D02*
X14422563Y-18635705D01*
X14422563Y-18635705D02*
X14432087Y-18626182D01*
X14432087Y-18626182D02*
X14451134Y-18616658D01*
X14451134Y-18616658D02*
X14479706Y-18616658D01*
X14479706Y-18616658D02*
X14498753Y-18626182D01*
X14498753Y-18626182D02*
X14508277Y-18635705D01*
X14508277Y-18635705D02*
X14517801Y-18654753D01*
X14517801Y-18654753D02*
X14517801Y-18711896D01*
X14517801Y-18711896D02*
X14508277Y-18730944D01*
X14508277Y-18730944D02*
X14498753Y-18740467D01*
X14498753Y-18740467D02*
X14479706Y-18749991D01*
X14479706Y-18749991D02*
X14451134Y-18749991D01*
X14632087Y-18749991D02*
X14613039Y-18740467D01*
X14613039Y-18740467D02*
X14603515Y-18721420D01*
X14603515Y-18721420D02*
X14603515Y-18549991D01*
X14784468Y-18740467D02*
X14765420Y-18749991D01*
X14765420Y-18749991D02*
X14727325Y-18749991D01*
X14727325Y-18749991D02*
X14708277Y-18740467D01*
X14708277Y-18740467D02*
X14698753Y-18721420D01*
X14698753Y-18721420D02*
X14698753Y-18645229D01*
X14698753Y-18645229D02*
X14708277Y-18626182D01*
X14708277Y-18626182D02*
X14727325Y-18616658D01*
X14727325Y-18616658D02*
X14765420Y-18616658D01*
X14765420Y-18616658D02*
X14784468Y-18626182D01*
X14784468Y-18626182D02*
X14793991Y-18645229D01*
X14793991Y-18645229D02*
X14793991Y-18664277D01*
X14793991Y-18664277D02*
X14698753Y-18683325D01*
X14870182Y-18740467D02*
X14889230Y-18749991D01*
X14889230Y-18749991D02*
X14927325Y-18749991D01*
X14927325Y-18749991D02*
X14946372Y-18740467D01*
X14946372Y-18740467D02*
X14955896Y-18721420D01*
X14955896Y-18721420D02*
X14955896Y-18711896D01*
X14955896Y-18711896D02*
X14946372Y-18692848D01*
X14946372Y-18692848D02*
X14927325Y-18683325D01*
X14927325Y-18683325D02*
X14898753Y-18683325D01*
X14898753Y-18683325D02*
X14879706Y-18673801D01*
X14879706Y-18673801D02*
X14870182Y-18654753D01*
X14870182Y-18654753D02*
X14870182Y-18645229D01*
X14870182Y-18645229D02*
X14879706Y-18626182D01*
X14879706Y-18626182D02*
X14898753Y-18616658D01*
X14898753Y-18616658D02*
X14927325Y-18616658D01*
X14927325Y-18616658D02*
X14946372Y-18626182D01*
X15022563Y-18826182D02*
X15032087Y-18816658D01*
X15032087Y-18816658D02*
X15051134Y-18788086D01*
X15051134Y-18788086D02*
X15060658Y-18769039D01*
X15060658Y-18769039D02*
X15070182Y-18740467D01*
X15070182Y-18740467D02*
X15079706Y-18692848D01*
X15079706Y-18692848D02*
X15079706Y-18654753D01*
X15079706Y-18654753D02*
X15070182Y-18607134D01*
X15070182Y-18607134D02*
X15060658Y-18578563D01*
X15060658Y-18578563D02*
X15051134Y-18559515D01*
X15051134Y-18559515D02*
X15032087Y-18530944D01*
X15032087Y-18530944D02*
X15022563Y-18521420D01*
D12*
X10197500Y-18872507D02*
X10197500Y-18972507D01*
X10147500Y-18922507D02*
X10247500Y-18922507D01*
D11*
X10613039Y-19013991D02*
X10498753Y-19013991D01*
X10555896Y-19013991D02*
X10555896Y-18813991D01*
X10555896Y-18813991D02*
X10536848Y-18842563D01*
X10536848Y-18842563D02*
X10517801Y-18861610D01*
X10517801Y-18861610D02*
X10498753Y-18871134D01*
X10698753Y-18994944D02*
X10708277Y-19004467D01*
X10708277Y-19004467D02*
X10698753Y-19013991D01*
X10698753Y-19013991D02*
X10689229Y-19004467D01*
X10689229Y-19004467D02*
X10698753Y-18994944D01*
X10698753Y-18994944D02*
X10698753Y-19013991D01*
X10832086Y-18813991D02*
X10851134Y-18813991D01*
X10851134Y-18813991D02*
X10870182Y-18823515D01*
X10870182Y-18823515D02*
X10879705Y-18833039D01*
X10879705Y-18833039D02*
X10889229Y-18852086D01*
X10889229Y-18852086D02*
X10898753Y-18890182D01*
X10898753Y-18890182D02*
X10898753Y-18937801D01*
X10898753Y-18937801D02*
X10889229Y-18975896D01*
X10889229Y-18975896D02*
X10879705Y-18994944D01*
X10879705Y-18994944D02*
X10870182Y-19004467D01*
X10870182Y-19004467D02*
X10851134Y-19013991D01*
X10851134Y-19013991D02*
X10832086Y-19013991D01*
X10832086Y-19013991D02*
X10813039Y-19004467D01*
X10813039Y-19004467D02*
X10803515Y-18994944D01*
X10803515Y-18994944D02*
X10793991Y-18975896D01*
X10793991Y-18975896D02*
X10784467Y-18937801D01*
X10784467Y-18937801D02*
X10784467Y-18890182D01*
X10784467Y-18890182D02*
X10793991Y-18852086D01*
X10793991Y-18852086D02*
X10803515Y-18833039D01*
X10803515Y-18833039D02*
X10813039Y-18823515D01*
X10813039Y-18823515D02*
X10832086Y-18813991D01*
X11022563Y-18813991D02*
X11041610Y-18813991D01*
X11041610Y-18813991D02*
X11060658Y-18823515D01*
X11060658Y-18823515D02*
X11070182Y-18833039D01*
X11070182Y-18833039D02*
X11079705Y-18852086D01*
X11079705Y-18852086D02*
X11089229Y-18890182D01*
X11089229Y-18890182D02*
X11089229Y-18937801D01*
X11089229Y-18937801D02*
X11079705Y-18975896D01*
X11079705Y-18975896D02*
X11070182Y-18994944D01*
X11070182Y-18994944D02*
X11060658Y-19004467D01*
X11060658Y-19004467D02*
X11041610Y-19013991D01*
X11041610Y-19013991D02*
X11022563Y-19013991D01*
X11022563Y-19013991D02*
X11003515Y-19004467D01*
X11003515Y-19004467D02*
X10993991Y-18994944D01*
X10993991Y-18994944D02*
X10984467Y-18975896D01*
X10984467Y-18975896D02*
X10974944Y-18937801D01*
X10974944Y-18937801D02*
X10974944Y-18890182D01*
X10974944Y-18890182D02*
X10984467Y-18852086D01*
X10984467Y-18852086D02*
X10993991Y-18833039D01*
X10993991Y-18833039D02*
X11003515Y-18823515D01*
X11003515Y-18823515D02*
X11022563Y-18813991D01*
X11213039Y-18813991D02*
X11232086Y-18813991D01*
X11232086Y-18813991D02*
X11251134Y-18823515D01*
X11251134Y-18823515D02*
X11260658Y-18833039D01*
X11260658Y-18833039D02*
X11270182Y-18852086D01*
X11270182Y-18852086D02*
X11279705Y-18890182D01*
X11279705Y-18890182D02*
X11279705Y-18937801D01*
X11279705Y-18937801D02*
X11270182Y-18975896D01*
X11270182Y-18975896D02*
X11260658Y-18994944D01*
X11260658Y-18994944D02*
X11251134Y-19004467D01*
X11251134Y-19004467D02*
X11232086Y-19013991D01*
X11232086Y-19013991D02*
X11213039Y-19013991D01*
X11213039Y-19013991D02*
X11193991Y-19004467D01*
X11193991Y-19004467D02*
X11184467Y-18994944D01*
X11184467Y-18994944D02*
X11174944Y-18975896D01*
X11174944Y-18975896D02*
X11165420Y-18937801D01*
X11165420Y-18937801D02*
X11165420Y-18890182D01*
X11165420Y-18890182D02*
X11174944Y-18852086D01*
X11174944Y-18852086D02*
X11184467Y-18833039D01*
X11184467Y-18833039D02*
X11193991Y-18823515D01*
X11193991Y-18823515D02*
X11213039Y-18813991D01*
X11365420Y-19013991D02*
X11365420Y-18880658D01*
X11365420Y-18899705D02*
X11374943Y-18890182D01*
X11374943Y-18890182D02*
X11393991Y-18880658D01*
X11393991Y-18880658D02*
X11422563Y-18880658D01*
X11422563Y-18880658D02*
X11441610Y-18890182D01*
X11441610Y-18890182D02*
X11451134Y-18909229D01*
X11451134Y-18909229D02*
X11451134Y-19013991D01*
X11451134Y-18909229D02*
X11460658Y-18890182D01*
X11460658Y-18890182D02*
X11479705Y-18880658D01*
X11479705Y-18880658D02*
X11508277Y-18880658D01*
X11508277Y-18880658D02*
X11527324Y-18890182D01*
X11527324Y-18890182D02*
X11536848Y-18909229D01*
X11536848Y-18909229D02*
X11536848Y-19013991D01*
X11632086Y-19013991D02*
X11632086Y-18880658D01*
X11632086Y-18899705D02*
X11641610Y-18890182D01*
X11641610Y-18890182D02*
X11660658Y-18880658D01*
X11660658Y-18880658D02*
X11689229Y-18880658D01*
X11689229Y-18880658D02*
X11708277Y-18890182D01*
X11708277Y-18890182D02*
X11717801Y-18909229D01*
X11717801Y-18909229D02*
X11717801Y-19013991D01*
X11717801Y-18909229D02*
X11727324Y-18890182D01*
X11727324Y-18890182D02*
X11746372Y-18880658D01*
X11746372Y-18880658D02*
X11774943Y-18880658D01*
X11774943Y-18880658D02*
X11793991Y-18890182D01*
X11793991Y-18890182D02*
X11803515Y-18909229D01*
X11803515Y-18909229D02*
X11803515Y-19013991D01*
X12193991Y-18804467D02*
X12022563Y-19061610D01*
X12451134Y-18813991D02*
X12470182Y-18813991D01*
X12470182Y-18813991D02*
X12489229Y-18823515D01*
X12489229Y-18823515D02*
X12498753Y-18833039D01*
X12498753Y-18833039D02*
X12508277Y-18852086D01*
X12508277Y-18852086D02*
X12517801Y-18890182D01*
X12517801Y-18890182D02*
X12517801Y-18937801D01*
X12517801Y-18937801D02*
X12508277Y-18975896D01*
X12508277Y-18975896D02*
X12498753Y-18994944D01*
X12498753Y-18994944D02*
X12489229Y-19004467D01*
X12489229Y-19004467D02*
X12470182Y-19013991D01*
X12470182Y-19013991D02*
X12451134Y-19013991D01*
X12451134Y-19013991D02*
X12432086Y-19004467D01*
X12432086Y-19004467D02*
X12422563Y-18994944D01*
X12422563Y-18994944D02*
X12413039Y-18975896D01*
X12413039Y-18975896D02*
X12403515Y-18937801D01*
X12403515Y-18937801D02*
X12403515Y-18890182D01*
X12403515Y-18890182D02*
X12413039Y-18852086D01*
X12413039Y-18852086D02*
X12422563Y-18833039D01*
X12422563Y-18833039D02*
X12432086Y-18823515D01*
X12432086Y-18823515D02*
X12451134Y-18813991D01*
X12603515Y-18994944D02*
X12613039Y-19004467D01*
X12613039Y-19004467D02*
X12603515Y-19013991D01*
X12603515Y-19013991D02*
X12593991Y-19004467D01*
X12593991Y-19004467D02*
X12603515Y-18994944D01*
X12603515Y-18994944D02*
X12603515Y-19013991D01*
X12736848Y-18813991D02*
X12755896Y-18813991D01*
X12755896Y-18813991D02*
X12774944Y-18823515D01*
X12774944Y-18823515D02*
X12784467Y-18833039D01*
X12784467Y-18833039D02*
X12793991Y-18852086D01*
X12793991Y-18852086D02*
X12803515Y-18890182D01*
X12803515Y-18890182D02*
X12803515Y-18937801D01*
X12803515Y-18937801D02*
X12793991Y-18975896D01*
X12793991Y-18975896D02*
X12784467Y-18994944D01*
X12784467Y-18994944D02*
X12774944Y-19004467D01*
X12774944Y-19004467D02*
X12755896Y-19013991D01*
X12755896Y-19013991D02*
X12736848Y-19013991D01*
X12736848Y-19013991D02*
X12717801Y-19004467D01*
X12717801Y-19004467D02*
X12708277Y-18994944D01*
X12708277Y-18994944D02*
X12698753Y-18975896D01*
X12698753Y-18975896D02*
X12689229Y-18937801D01*
X12689229Y-18937801D02*
X12689229Y-18890182D01*
X12689229Y-18890182D02*
X12698753Y-18852086D01*
X12698753Y-18852086D02*
X12708277Y-18833039D01*
X12708277Y-18833039D02*
X12717801Y-18823515D01*
X12717801Y-18823515D02*
X12736848Y-18813991D01*
X12870182Y-18813991D02*
X12993991Y-18813991D01*
X12993991Y-18813991D02*
X12927325Y-18890182D01*
X12927325Y-18890182D02*
X12955896Y-18890182D01*
X12955896Y-18890182D02*
X12974944Y-18899705D01*
X12974944Y-18899705D02*
X12984467Y-18909229D01*
X12984467Y-18909229D02*
X12993991Y-18928277D01*
X12993991Y-18928277D02*
X12993991Y-18975896D01*
X12993991Y-18975896D02*
X12984467Y-18994944D01*
X12984467Y-18994944D02*
X12974944Y-19004467D01*
X12974944Y-19004467D02*
X12955896Y-19013991D01*
X12955896Y-19013991D02*
X12898753Y-19013991D01*
X12898753Y-19013991D02*
X12879706Y-19004467D01*
X12879706Y-19004467D02*
X12870182Y-18994944D01*
X13089229Y-19013991D02*
X13127325Y-19013991D01*
X13127325Y-19013991D02*
X13146372Y-19004467D01*
X13146372Y-19004467D02*
X13155896Y-18994944D01*
X13155896Y-18994944D02*
X13174944Y-18966372D01*
X13174944Y-18966372D02*
X13184467Y-18928277D01*
X13184467Y-18928277D02*
X13184467Y-18852086D01*
X13184467Y-18852086D02*
X13174944Y-18833039D01*
X13174944Y-18833039D02*
X13165420Y-18823515D01*
X13165420Y-18823515D02*
X13146372Y-18813991D01*
X13146372Y-18813991D02*
X13108277Y-18813991D01*
X13108277Y-18813991D02*
X13089229Y-18823515D01*
X13089229Y-18823515D02*
X13079706Y-18833039D01*
X13079706Y-18833039D02*
X13070182Y-18852086D01*
X13070182Y-18852086D02*
X13070182Y-18899705D01*
X13070182Y-18899705D02*
X13079706Y-18918753D01*
X13079706Y-18918753D02*
X13089229Y-18928277D01*
X13089229Y-18928277D02*
X13108277Y-18937801D01*
X13108277Y-18937801D02*
X13146372Y-18937801D01*
X13146372Y-18937801D02*
X13165420Y-18928277D01*
X13165420Y-18928277D02*
X13174944Y-18918753D01*
X13174944Y-18918753D02*
X13184467Y-18899705D01*
X13355896Y-18880658D02*
X13355896Y-19013991D01*
X13308277Y-18804467D02*
X13260658Y-18947325D01*
X13260658Y-18947325D02*
X13384467Y-18947325D01*
X13451134Y-18813991D02*
X13451134Y-18852086D01*
X13527325Y-18813991D02*
X13527325Y-18852086D01*
X13822563Y-19090182D02*
X13813039Y-19080658D01*
X13813039Y-19080658D02*
X13793991Y-19052086D01*
X13793991Y-19052086D02*
X13784468Y-19033039D01*
X13784468Y-19033039D02*
X13774944Y-19004467D01*
X13774944Y-19004467D02*
X13765420Y-18956848D01*
X13765420Y-18956848D02*
X13765420Y-18918753D01*
X13765420Y-18918753D02*
X13774944Y-18871134D01*
X13774944Y-18871134D02*
X13784468Y-18842563D01*
X13784468Y-18842563D02*
X13793991Y-18823515D01*
X13793991Y-18823515D02*
X13813039Y-18794944D01*
X13813039Y-18794944D02*
X13822563Y-18785420D01*
X13984468Y-18880658D02*
X13984468Y-19013991D01*
X13936848Y-18804467D02*
X13889229Y-18947325D01*
X13889229Y-18947325D02*
X14013039Y-18947325D01*
X14241610Y-19013991D02*
X14241610Y-18813991D01*
X14327325Y-19013991D02*
X14327325Y-18909229D01*
X14327325Y-18909229D02*
X14317801Y-18890182D01*
X14317801Y-18890182D02*
X14298753Y-18880658D01*
X14298753Y-18880658D02*
X14270182Y-18880658D01*
X14270182Y-18880658D02*
X14251134Y-18890182D01*
X14251134Y-18890182D02*
X14241610Y-18899705D01*
X14451134Y-19013991D02*
X14432087Y-19004467D01*
X14432087Y-19004467D02*
X14422563Y-18994944D01*
X14422563Y-18994944D02*
X14413039Y-18975896D01*
X14413039Y-18975896D02*
X14413039Y-18918753D01*
X14413039Y-18918753D02*
X14422563Y-18899705D01*
X14422563Y-18899705D02*
X14432087Y-18890182D01*
X14432087Y-18890182D02*
X14451134Y-18880658D01*
X14451134Y-18880658D02*
X14479706Y-18880658D01*
X14479706Y-18880658D02*
X14498753Y-18890182D01*
X14498753Y-18890182D02*
X14508277Y-18899705D01*
X14508277Y-18899705D02*
X14517801Y-18918753D01*
X14517801Y-18918753D02*
X14517801Y-18975896D01*
X14517801Y-18975896D02*
X14508277Y-18994944D01*
X14508277Y-18994944D02*
X14498753Y-19004467D01*
X14498753Y-19004467D02*
X14479706Y-19013991D01*
X14479706Y-19013991D02*
X14451134Y-19013991D01*
X14632087Y-19013991D02*
X14613039Y-19004467D01*
X14613039Y-19004467D02*
X14603515Y-18985420D01*
X14603515Y-18985420D02*
X14603515Y-18813991D01*
X14784468Y-19004467D02*
X14765420Y-19013991D01*
X14765420Y-19013991D02*
X14727325Y-19013991D01*
X14727325Y-19013991D02*
X14708277Y-19004467D01*
X14708277Y-19004467D02*
X14698753Y-18985420D01*
X14698753Y-18985420D02*
X14698753Y-18909229D01*
X14698753Y-18909229D02*
X14708277Y-18890182D01*
X14708277Y-18890182D02*
X14727325Y-18880658D01*
X14727325Y-18880658D02*
X14765420Y-18880658D01*
X14765420Y-18880658D02*
X14784468Y-18890182D01*
X14784468Y-18890182D02*
X14793991Y-18909229D01*
X14793991Y-18909229D02*
X14793991Y-18928277D01*
X14793991Y-18928277D02*
X14698753Y-18947325D01*
X14870182Y-19004467D02*
X14889230Y-19013991D01*
X14889230Y-19013991D02*
X14927325Y-19013991D01*
X14927325Y-19013991D02*
X14946372Y-19004467D01*
X14946372Y-19004467D02*
X14955896Y-18985420D01*
X14955896Y-18985420D02*
X14955896Y-18975896D01*
X14955896Y-18975896D02*
X14946372Y-18956848D01*
X14946372Y-18956848D02*
X14927325Y-18947325D01*
X14927325Y-18947325D02*
X14898753Y-18947325D01*
X14898753Y-18947325D02*
X14879706Y-18937801D01*
X14879706Y-18937801D02*
X14870182Y-18918753D01*
X14870182Y-18918753D02*
X14870182Y-18909229D01*
X14870182Y-18909229D02*
X14879706Y-18890182D01*
X14879706Y-18890182D02*
X14898753Y-18880658D01*
X14898753Y-18880658D02*
X14927325Y-18880658D01*
X14927325Y-18880658D02*
X14946372Y-18890182D01*
X15022563Y-19090182D02*
X15032087Y-19080658D01*
X15032087Y-19080658D02*
X15051134Y-19052086D01*
X15051134Y-19052086D02*
X15060658Y-19033039D01*
X15060658Y-19033039D02*
X15070182Y-19004467D01*
X15070182Y-19004467D02*
X15079706Y-18956848D01*
X15079706Y-18956848D02*
X15079706Y-18918753D01*
X15079706Y-18918753D02*
X15070182Y-18871134D01*
X15070182Y-18871134D02*
X15060658Y-18842563D01*
X15060658Y-18842563D02*
X15051134Y-18823515D01*
X15051134Y-18823515D02*
X15032087Y-18794944D01*
X15032087Y-18794944D02*
X15022563Y-18785420D01*
M02*
