%TF.GenerationSoftware,KiCad,Pcbnew,8.0.4*%
%TF.CreationDate,2025-01-27T11:44:49+05:30*%
%TF.ProjectId,Flash_light,466c6173-685f-46c6-9967-68742e6b6963,1*%
%TF.SameCoordinates,Original*%
%TF.FileFunction,Drillmap*%
%TF.FilePolarity,Positive*%
%FSLAX45Y45*%
G04 Gerber Fmt 4.5, Leading zero omitted, Abs format (unit mm)*
G04 Created by KiCad (PCBNEW 8.0.4) date 2025-01-27 11:44:49*
%MOMM*%
%LPD*%
G01*
G04 APERTURE LIST*
%ADD10C,0.050000*%
%ADD11C,0.200000*%
G04 APERTURE END LIST*
D10*
X16613187Y-17142337D02*
G75*
G02*
X16566000Y-17192000I-52188J2337D01*
G01*
X16558000Y-15459000D02*
G75*
G02*
X16620027Y-15518104I2000J-60000D01*
G01*
X15925606Y-15458796D02*
X16558000Y-15459000D01*
X13504000Y-15775000D02*
G75*
G02*
X15925606Y-15458796I1300000J-525000D01*
G01*
X10800000Y-15775000D02*
X13504000Y-15775000D01*
X16613187Y-17142337D02*
X16620027Y-15518104D01*
X15921606Y-17191204D02*
X16566000Y-17192000D01*
X15921606Y-17191204D02*
G75*
G02*
X13500000Y-16875000I-1121606J841204D01*
G01*
X10800000Y-16875000D02*
X13500000Y-16875000D01*
X10800000Y-16875000D02*
G75*
G02*
X10800000Y-15775000I0J550000D01*
G01*
X16346803Y-15703000D02*
G75*
G02*
X16123197Y-15703000I-111803J0D01*
G01*
X16123197Y-15703000D02*
G75*
G02*
X16346803Y-15703000I111803J0D01*
G01*
X16350000Y-16945000D02*
G75*
G02*
X16126393Y-16945000I-111803J0D01*
G01*
X16126393Y-16945000D02*
G75*
G02*
X16350000Y-16945000I111803J0D01*
G01*
X11511803Y-16325000D02*
G75*
G02*
X11288197Y-16325000I-111803J0D01*
G01*
X11288197Y-16325000D02*
G75*
G02*
X11511803Y-16325000I111803J0D01*
G01*
D11*
X10508277Y-18065991D02*
X10508277Y-17865991D01*
X10508277Y-17865991D02*
X10555896Y-17865991D01*
X10555896Y-17865991D02*
X10584467Y-17875515D01*
X10584467Y-17875515D02*
X10603515Y-17894563D01*
X10603515Y-17894563D02*
X10613039Y-17913610D01*
X10613039Y-17913610D02*
X10622563Y-17951705D01*
X10622563Y-17951705D02*
X10622563Y-17980277D01*
X10622563Y-17980277D02*
X10613039Y-18018372D01*
X10613039Y-18018372D02*
X10603515Y-18037420D01*
X10603515Y-18037420D02*
X10584467Y-18056467D01*
X10584467Y-18056467D02*
X10555896Y-18065991D01*
X10555896Y-18065991D02*
X10508277Y-18065991D01*
X10708277Y-18065991D02*
X10708277Y-17932658D01*
X10708277Y-17970753D02*
X10717801Y-17951705D01*
X10717801Y-17951705D02*
X10727324Y-17942182D01*
X10727324Y-17942182D02*
X10746372Y-17932658D01*
X10746372Y-17932658D02*
X10765420Y-17932658D01*
X10832086Y-18065991D02*
X10832086Y-17932658D01*
X10832086Y-17865991D02*
X10822563Y-17875515D01*
X10822563Y-17875515D02*
X10832086Y-17885039D01*
X10832086Y-17885039D02*
X10841610Y-17875515D01*
X10841610Y-17875515D02*
X10832086Y-17865991D01*
X10832086Y-17865991D02*
X10832086Y-17885039D01*
X10955896Y-18065991D02*
X10936848Y-18056467D01*
X10936848Y-18056467D02*
X10927324Y-18037420D01*
X10927324Y-18037420D02*
X10927324Y-17865991D01*
X11060658Y-18065991D02*
X11041610Y-18056467D01*
X11041610Y-18056467D02*
X11032086Y-18037420D01*
X11032086Y-18037420D02*
X11032086Y-17865991D01*
X11289229Y-18065991D02*
X11289229Y-17865991D01*
X11289229Y-17865991D02*
X11355896Y-18008848D01*
X11355896Y-18008848D02*
X11422562Y-17865991D01*
X11422562Y-17865991D02*
X11422562Y-18065991D01*
X11603515Y-18065991D02*
X11603515Y-17961229D01*
X11603515Y-17961229D02*
X11593991Y-17942182D01*
X11593991Y-17942182D02*
X11574943Y-17932658D01*
X11574943Y-17932658D02*
X11536848Y-17932658D01*
X11536848Y-17932658D02*
X11517801Y-17942182D01*
X11603515Y-18056467D02*
X11584467Y-18065991D01*
X11584467Y-18065991D02*
X11536848Y-18065991D01*
X11536848Y-18065991D02*
X11517801Y-18056467D01*
X11517801Y-18056467D02*
X11508277Y-18037420D01*
X11508277Y-18037420D02*
X11508277Y-18018372D01*
X11508277Y-18018372D02*
X11517801Y-17999325D01*
X11517801Y-17999325D02*
X11536848Y-17989801D01*
X11536848Y-17989801D02*
X11584467Y-17989801D01*
X11584467Y-17989801D02*
X11603515Y-17980277D01*
X11698753Y-17932658D02*
X11698753Y-18132658D01*
X11698753Y-17942182D02*
X11717801Y-17932658D01*
X11717801Y-17932658D02*
X11755896Y-17932658D01*
X11755896Y-17932658D02*
X11774943Y-17942182D01*
X11774943Y-17942182D02*
X11784467Y-17951705D01*
X11784467Y-17951705D02*
X11793991Y-17970753D01*
X11793991Y-17970753D02*
X11793991Y-18027896D01*
X11793991Y-18027896D02*
X11784467Y-18046944D01*
X11784467Y-18046944D02*
X11774943Y-18056467D01*
X11774943Y-18056467D02*
X11755896Y-18065991D01*
X11755896Y-18065991D02*
X11717801Y-18065991D01*
X11717801Y-18065991D02*
X11698753Y-18056467D01*
X11879705Y-18046944D02*
X11889229Y-18056467D01*
X11889229Y-18056467D02*
X11879705Y-18065991D01*
X11879705Y-18065991D02*
X11870182Y-18056467D01*
X11870182Y-18056467D02*
X11879705Y-18046944D01*
X11879705Y-18046944D02*
X11879705Y-18065991D01*
X11879705Y-17942182D02*
X11889229Y-17951705D01*
X11889229Y-17951705D02*
X11879705Y-17961229D01*
X11879705Y-17961229D02*
X11870182Y-17951705D01*
X11870182Y-17951705D02*
X11879705Y-17942182D01*
X11879705Y-17942182D02*
X11879705Y-17961229D01*
M02*
