%TF.GenerationSoftware,KiCad,Pcbnew,8.0.4*%
%TF.CreationDate,2025-01-27T11:44:45+05:30*%
%TF.ProjectId,Flash_light,466c6173-685f-46c6-9967-68742e6b6963,1*%
%TF.SameCoordinates,Original*%
%TF.FileFunction,Legend,Bot*%
%TF.FilePolarity,Positive*%
%FSLAX46Y46*%
G04 Gerber Fmt 4.6, Leading zero omitted, Abs format (unit mm)*
G04 Created by KiCad (PCBNEW 8.0.4) date 2025-01-27 11:44:45*
%MOMM*%
%LPD*%
G01*
G04 APERTURE LIST*
%ADD10C,0.150000*%
%ADD11C,0.010000*%
G04 APERTURE END LIST*
D10*
X151946077Y-167119819D02*
X151612744Y-168119819D01*
X151612744Y-168119819D02*
X151279411Y-167119819D01*
X150565125Y-168072200D02*
X150660363Y-168119819D01*
X150660363Y-168119819D02*
X150850839Y-168119819D01*
X150850839Y-168119819D02*
X150946077Y-168072200D01*
X150946077Y-168072200D02*
X150993696Y-167976961D01*
X150993696Y-167976961D02*
X150993696Y-167596009D01*
X150993696Y-167596009D02*
X150946077Y-167500771D01*
X150946077Y-167500771D02*
X150850839Y-167453152D01*
X150850839Y-167453152D02*
X150660363Y-167453152D01*
X150660363Y-167453152D02*
X150565125Y-167500771D01*
X150565125Y-167500771D02*
X150517506Y-167596009D01*
X150517506Y-167596009D02*
X150517506Y-167691247D01*
X150517506Y-167691247D02*
X150993696Y-167786485D01*
X150088934Y-168119819D02*
X150088934Y-167453152D01*
X150088934Y-167643628D02*
X150041315Y-167548390D01*
X150041315Y-167548390D02*
X149993696Y-167500771D01*
X149993696Y-167500771D02*
X149898458Y-167453152D01*
X149898458Y-167453152D02*
X149803220Y-167453152D01*
X149517505Y-168072200D02*
X149422267Y-168119819D01*
X149422267Y-168119819D02*
X149231791Y-168119819D01*
X149231791Y-168119819D02*
X149136553Y-168072200D01*
X149136553Y-168072200D02*
X149088934Y-167976961D01*
X149088934Y-167976961D02*
X149088934Y-167929342D01*
X149088934Y-167929342D02*
X149136553Y-167834104D01*
X149136553Y-167834104D02*
X149231791Y-167786485D01*
X149231791Y-167786485D02*
X149374648Y-167786485D01*
X149374648Y-167786485D02*
X149469886Y-167738866D01*
X149469886Y-167738866D02*
X149517505Y-167643628D01*
X149517505Y-167643628D02*
X149517505Y-167596009D01*
X149517505Y-167596009D02*
X149469886Y-167500771D01*
X149469886Y-167500771D02*
X149374648Y-167453152D01*
X149374648Y-167453152D02*
X149231791Y-167453152D01*
X149231791Y-167453152D02*
X149136553Y-167500771D01*
X148660362Y-168119819D02*
X148660362Y-167453152D01*
X148660362Y-167119819D02*
X148707981Y-167167438D01*
X148707981Y-167167438D02*
X148660362Y-167215057D01*
X148660362Y-167215057D02*
X148612743Y-167167438D01*
X148612743Y-167167438D02*
X148660362Y-167119819D01*
X148660362Y-167119819D02*
X148660362Y-167215057D01*
X148041315Y-168119819D02*
X148136553Y-168072200D01*
X148136553Y-168072200D02*
X148184172Y-168024580D01*
X148184172Y-168024580D02*
X148231791Y-167929342D01*
X148231791Y-167929342D02*
X148231791Y-167643628D01*
X148231791Y-167643628D02*
X148184172Y-167548390D01*
X148184172Y-167548390D02*
X148136553Y-167500771D01*
X148136553Y-167500771D02*
X148041315Y-167453152D01*
X148041315Y-167453152D02*
X147898458Y-167453152D01*
X147898458Y-167453152D02*
X147803220Y-167500771D01*
X147803220Y-167500771D02*
X147755601Y-167548390D01*
X147755601Y-167548390D02*
X147707982Y-167643628D01*
X147707982Y-167643628D02*
X147707982Y-167929342D01*
X147707982Y-167929342D02*
X147755601Y-168024580D01*
X147755601Y-168024580D02*
X147803220Y-168072200D01*
X147803220Y-168072200D02*
X147898458Y-168119819D01*
X147898458Y-168119819D02*
X148041315Y-168119819D01*
X147279410Y-167453152D02*
X147279410Y-168119819D01*
X147279410Y-167548390D02*
X147231791Y-167500771D01*
X147231791Y-167500771D02*
X147136553Y-167453152D01*
X147136553Y-167453152D02*
X146993696Y-167453152D01*
X146993696Y-167453152D02*
X146898458Y-167500771D01*
X146898458Y-167500771D02*
X146850839Y-167596009D01*
X146850839Y-167596009D02*
X146850839Y-168119819D01*
X145088934Y-168119819D02*
X145660362Y-168119819D01*
X145374648Y-168119819D02*
X145374648Y-167119819D01*
X145374648Y-167119819D02*
X145469886Y-167262676D01*
X145469886Y-167262676D02*
X145565124Y-167357914D01*
X145565124Y-167357914D02*
X145660362Y-167405533D01*
X144660362Y-168024580D02*
X144612743Y-168072200D01*
X144612743Y-168072200D02*
X144660362Y-168119819D01*
X144660362Y-168119819D02*
X144707981Y-168072200D01*
X144707981Y-168072200D02*
X144660362Y-168024580D01*
X144660362Y-168024580D02*
X144660362Y-168119819D01*
X143993696Y-167119819D02*
X143898458Y-167119819D01*
X143898458Y-167119819D02*
X143803220Y-167167438D01*
X143803220Y-167167438D02*
X143755601Y-167215057D01*
X143755601Y-167215057D02*
X143707982Y-167310295D01*
X143707982Y-167310295D02*
X143660363Y-167500771D01*
X143660363Y-167500771D02*
X143660363Y-167738866D01*
X143660363Y-167738866D02*
X143707982Y-167929342D01*
X143707982Y-167929342D02*
X143755601Y-168024580D01*
X143755601Y-168024580D02*
X143803220Y-168072200D01*
X143803220Y-168072200D02*
X143898458Y-168119819D01*
X143898458Y-168119819D02*
X143993696Y-168119819D01*
X143993696Y-168119819D02*
X144088934Y-168072200D01*
X144088934Y-168072200D02*
X144136553Y-168024580D01*
X144136553Y-168024580D02*
X144184172Y-167929342D01*
X144184172Y-167929342D02*
X144231791Y-167738866D01*
X144231791Y-167738866D02*
X144231791Y-167500771D01*
X144231791Y-167500771D02*
X144184172Y-167310295D01*
X144184172Y-167310295D02*
X144136553Y-167215057D01*
X144136553Y-167215057D02*
X144088934Y-167167438D01*
X144088934Y-167167438D02*
X143993696Y-167119819D01*
D11*
%TO.C,REF\u002A\u002A*%
X143875406Y-165714949D02*
X143901127Y-165730647D01*
X143927778Y-165752227D01*
X143927778Y-166399684D01*
X143901127Y-166421264D01*
X143869767Y-166438739D01*
X143833966Y-166439575D01*
X143802528Y-166419082D01*
X143798652Y-166414416D01*
X143793186Y-166404949D01*
X143788979Y-166391267D01*
X143785867Y-166370748D01*
X143783687Y-166340768D01*
X143782276Y-166298704D01*
X143781471Y-166241932D01*
X143781107Y-166167830D01*
X143781022Y-166073773D01*
X143781022Y-165752227D01*
X143807673Y-165730647D01*
X143831386Y-165715877D01*
X143854400Y-165709067D01*
X143875406Y-165714949D01*
G36*
X143875406Y-165714949D02*
G01*
X143901127Y-165730647D01*
X143927778Y-165752227D01*
X143927778Y-166399684D01*
X143901127Y-166421264D01*
X143869767Y-166438739D01*
X143833966Y-166439575D01*
X143802528Y-166419082D01*
X143798652Y-166414416D01*
X143793186Y-166404949D01*
X143788979Y-166391267D01*
X143785867Y-166370748D01*
X143783687Y-166340768D01*
X143782276Y-166298704D01*
X143781471Y-166241932D01*
X143781107Y-166167830D01*
X143781022Y-166073773D01*
X143781022Y-165752227D01*
X143807673Y-165730647D01*
X143831386Y-165715877D01*
X143854400Y-165709067D01*
X143875406Y-165714949D01*
G37*
X151006137Y-165713463D02*
X151040291Y-165736776D01*
X151068000Y-165764485D01*
X151068000Y-166077537D01*
X151067959Y-166161567D01*
X151067701Y-166235789D01*
X151067030Y-166292541D01*
X151065752Y-166334512D01*
X151063673Y-166364389D01*
X151060599Y-166384861D01*
X151056334Y-166398614D01*
X151050684Y-166408337D01*
X151043455Y-166416717D01*
X151011991Y-166438181D01*
X150976826Y-166439947D01*
X150943822Y-166420267D01*
X150938516Y-166414398D01*
X150933066Y-166405314D01*
X150928900Y-166391973D01*
X150925846Y-166371757D01*
X150923732Y-166342049D01*
X150922386Y-166300232D01*
X150921638Y-166243689D01*
X150921314Y-166169802D01*
X150921245Y-166075956D01*
X150921284Y-166000294D01*
X150921539Y-165922385D01*
X150922183Y-165862375D01*
X150923387Y-165817648D01*
X150925324Y-165785585D01*
X150928164Y-165763571D01*
X150932079Y-165748987D01*
X150937242Y-165739218D01*
X150943822Y-165731645D01*
X150973006Y-165712623D01*
X151006137Y-165713463D01*
G36*
X151006137Y-165713463D02*
G01*
X151040291Y-165736776D01*
X151068000Y-165764485D01*
X151068000Y-166077537D01*
X151067959Y-166161567D01*
X151067701Y-166235789D01*
X151067030Y-166292541D01*
X151065752Y-166334512D01*
X151063673Y-166364389D01*
X151060599Y-166384861D01*
X151056334Y-166398614D01*
X151050684Y-166408337D01*
X151043455Y-166416717D01*
X151011991Y-166438181D01*
X150976826Y-166439947D01*
X150943822Y-166420267D01*
X150938516Y-166414398D01*
X150933066Y-166405314D01*
X150928900Y-166391973D01*
X150925846Y-166371757D01*
X150923732Y-166342049D01*
X150922386Y-166300232D01*
X150921638Y-166243689D01*
X150921314Y-166169802D01*
X150921245Y-166075956D01*
X150921284Y-166000294D01*
X150921539Y-165922385D01*
X150922183Y-165862375D01*
X150923387Y-165817648D01*
X150925324Y-165785585D01*
X150928164Y-165763571D01*
X150932079Y-165748987D01*
X150937242Y-165739218D01*
X150943822Y-165731645D01*
X150973006Y-165712623D01*
X151006137Y-165713463D01*
G37*
X150474562Y-160472850D02*
X150557313Y-160500053D01*
X150632406Y-160545484D01*
X150704298Y-160611302D01*
X150742846Y-160655567D01*
X150782256Y-160713961D01*
X150807446Y-160774586D01*
X150820861Y-160843865D01*
X150824948Y-160928222D01*
X150824669Y-160974307D01*
X150822460Y-161015450D01*
X150816894Y-161047582D01*
X150806586Y-161078122D01*
X150790148Y-161114489D01*
X150776200Y-161141728D01*
X150717665Y-161227429D01*
X150645619Y-161296617D01*
X150561947Y-161347741D01*
X150468531Y-161379250D01*
X150435434Y-161386225D01*
X150394960Y-161393094D01*
X150361999Y-161394919D01*
X150327698Y-161391947D01*
X150283200Y-161384426D01*
X150231934Y-161372002D01*
X150141434Y-161334112D01*
X150062345Y-161279836D01*
X149996528Y-161211770D01*
X149945840Y-161132511D01*
X149912140Y-161044654D01*
X149897286Y-160950795D01*
X149903136Y-160853530D01*
X149929399Y-160757220D01*
X149974418Y-160668494D01*
X150035373Y-160593419D01*
X150110184Y-160533641D01*
X150196768Y-160490809D01*
X150293043Y-160466571D01*
X150396928Y-160462576D01*
X150474562Y-160472850D01*
G36*
X150474562Y-160472850D02*
G01*
X150557313Y-160500053D01*
X150632406Y-160545484D01*
X150704298Y-160611302D01*
X150742846Y-160655567D01*
X150782256Y-160713961D01*
X150807446Y-160774586D01*
X150820861Y-160843865D01*
X150824948Y-160928222D01*
X150824669Y-160974307D01*
X150822460Y-161015450D01*
X150816894Y-161047582D01*
X150806586Y-161078122D01*
X150790148Y-161114489D01*
X150776200Y-161141728D01*
X150717665Y-161227429D01*
X150645619Y-161296617D01*
X150561947Y-161347741D01*
X150468531Y-161379250D01*
X150435434Y-161386225D01*
X150394960Y-161393094D01*
X150361999Y-161394919D01*
X150327698Y-161391947D01*
X150283200Y-161384426D01*
X150231934Y-161372002D01*
X150141434Y-161334112D01*
X150062345Y-161279836D01*
X149996528Y-161211770D01*
X149945840Y-161132511D01*
X149912140Y-161044654D01*
X149897286Y-160950795D01*
X149903136Y-160853530D01*
X149929399Y-160757220D01*
X149974418Y-160668494D01*
X150035373Y-160593419D01*
X150110184Y-160533641D01*
X150196768Y-160490809D01*
X150293043Y-160466571D01*
X150396928Y-160462576D01*
X150474562Y-160472850D01*
G37*
X143175767Y-165709068D02*
X143269890Y-165709158D01*
X143344405Y-165709498D01*
X143401811Y-165710239D01*
X143444611Y-165711535D01*
X143475304Y-165713537D01*
X143496391Y-165716396D01*
X143510373Y-165720266D01*
X143519750Y-165725298D01*
X143527022Y-165731645D01*
X143545828Y-165764362D01*
X143547275Y-165801939D01*
X143530917Y-165835178D01*
X143529557Y-165836631D01*
X143518354Y-165844992D01*
X143501252Y-165850547D01*
X143474082Y-165853840D01*
X143432678Y-165855418D01*
X143372873Y-165855822D01*
X143233511Y-165855822D01*
X143233511Y-166119589D01*
X143233436Y-166195417D01*
X143233028Y-166262083D01*
X143232046Y-166311867D01*
X143230250Y-166347784D01*
X143227399Y-166372850D01*
X143223253Y-166390081D01*
X143217571Y-166402492D01*
X143210114Y-166413100D01*
X143207824Y-166415906D01*
X143176646Y-166438548D01*
X143142266Y-166440112D01*
X143109334Y-166420267D01*
X143102355Y-166412191D01*
X143096883Y-166401593D01*
X143092863Y-166385749D01*
X143090072Y-166361773D01*
X143088288Y-166326774D01*
X143087289Y-166277864D01*
X143086852Y-166212154D01*
X143086756Y-166126756D01*
X143086756Y-165855822D01*
X142940820Y-165855822D01*
X142929720Y-165855821D01*
X142873202Y-165855596D01*
X142834358Y-165854457D01*
X142808965Y-165851657D01*
X142792804Y-165846450D01*
X142781652Y-165838089D01*
X142771289Y-165825826D01*
X142755441Y-165795138D01*
X142758543Y-165761358D01*
X142784187Y-165728822D01*
X142789129Y-165725105D01*
X142799338Y-165720269D01*
X142814764Y-165716506D01*
X142837886Y-165713683D01*
X142871183Y-165711670D01*
X142917137Y-165710333D01*
X142978228Y-165709542D01*
X143056935Y-165709163D01*
X143155740Y-165709067D01*
X143175767Y-165709068D01*
G36*
X143175767Y-165709068D02*
G01*
X143269890Y-165709158D01*
X143344405Y-165709498D01*
X143401811Y-165710239D01*
X143444611Y-165711535D01*
X143475304Y-165713537D01*
X143496391Y-165716396D01*
X143510373Y-165720266D01*
X143519750Y-165725298D01*
X143527022Y-165731645D01*
X143545828Y-165764362D01*
X143547275Y-165801939D01*
X143530917Y-165835178D01*
X143529557Y-165836631D01*
X143518354Y-165844992D01*
X143501252Y-165850547D01*
X143474082Y-165853840D01*
X143432678Y-165855418D01*
X143372873Y-165855822D01*
X143233511Y-165855822D01*
X143233511Y-166119589D01*
X143233436Y-166195417D01*
X143233028Y-166262083D01*
X143232046Y-166311867D01*
X143230250Y-166347784D01*
X143227399Y-166372850D01*
X143223253Y-166390081D01*
X143217571Y-166402492D01*
X143210114Y-166413100D01*
X143207824Y-166415906D01*
X143176646Y-166438548D01*
X143142266Y-166440112D01*
X143109334Y-166420267D01*
X143102355Y-166412191D01*
X143096883Y-166401593D01*
X143092863Y-166385749D01*
X143090072Y-166361773D01*
X143088288Y-166326774D01*
X143087289Y-166277864D01*
X143086852Y-166212154D01*
X143086756Y-166126756D01*
X143086756Y-165855822D01*
X142940820Y-165855822D01*
X142929720Y-165855821D01*
X142873202Y-165855596D01*
X142834358Y-165854457D01*
X142808965Y-165851657D01*
X142792804Y-165846450D01*
X142781652Y-165838089D01*
X142771289Y-165825826D01*
X142755441Y-165795138D01*
X142758543Y-165761358D01*
X142784187Y-165728822D01*
X142789129Y-165725105D01*
X142799338Y-165720269D01*
X142814764Y-165716506D01*
X142837886Y-165713683D01*
X142871183Y-165711670D01*
X142917137Y-165710333D01*
X142978228Y-165709542D01*
X143056935Y-165709163D01*
X143155740Y-165709067D01*
X143175767Y-165709068D01*
G37*
X142499734Y-165731645D02*
X142505366Y-165737835D01*
X142510456Y-165746041D01*
X142514543Y-165757817D01*
X142517721Y-165775276D01*
X142520087Y-165800530D01*
X142521738Y-165835690D01*
X142522769Y-165882869D01*
X142523277Y-165944177D01*
X142523359Y-166021727D01*
X142523109Y-166117631D01*
X142522625Y-166234000D01*
X142522557Y-166248175D01*
X142521971Y-166309937D01*
X142520648Y-166353620D01*
X142518103Y-166383001D01*
X142513848Y-166401855D01*
X142507396Y-166413959D01*
X142498262Y-166423089D01*
X142464804Y-166440506D01*
X142429856Y-166437604D01*
X142398953Y-166413100D01*
X142389944Y-166399897D01*
X142382492Y-166381361D01*
X142378124Y-166355333D01*
X142376069Y-166316787D01*
X142375556Y-166260700D01*
X142375556Y-166138045D01*
X141878845Y-166138045D01*
X141878845Y-166272871D01*
X141878772Y-166308662D01*
X141878009Y-166354992D01*
X141875833Y-166385526D01*
X141871536Y-166404557D01*
X141864412Y-166416374D01*
X141853755Y-166425271D01*
X141821504Y-166440341D01*
X141786217Y-166437673D01*
X141755486Y-166413100D01*
X141750831Y-166406845D01*
X141744895Y-166396321D01*
X141740364Y-166382391D01*
X141737048Y-166362317D01*
X141734759Y-166333360D01*
X141733308Y-166292780D01*
X141732505Y-166237840D01*
X141732162Y-166165799D01*
X141732089Y-166073920D01*
X141732089Y-165764485D01*
X141759798Y-165736776D01*
X141791177Y-165714533D01*
X141824406Y-165711844D01*
X141856267Y-165731645D01*
X141864553Y-165741415D01*
X141871965Y-165757307D01*
X141876302Y-165781275D01*
X141878338Y-165818148D01*
X141878845Y-165872756D01*
X141878845Y-165991289D01*
X142375556Y-165991289D01*
X142375556Y-165875776D01*
X142375994Y-165824078D01*
X142377958Y-165789554D01*
X142382474Y-165766978D01*
X142390567Y-165751126D01*
X142403265Y-165736776D01*
X142434643Y-165714533D01*
X142467872Y-165711844D01*
X142499734Y-165731645D01*
G36*
X142499734Y-165731645D02*
G01*
X142505366Y-165737835D01*
X142510456Y-165746041D01*
X142514543Y-165757817D01*
X142517721Y-165775276D01*
X142520087Y-165800530D01*
X142521738Y-165835690D01*
X142522769Y-165882869D01*
X142523277Y-165944177D01*
X142523359Y-166021727D01*
X142523109Y-166117631D01*
X142522625Y-166234000D01*
X142522557Y-166248175D01*
X142521971Y-166309937D01*
X142520648Y-166353620D01*
X142518103Y-166383001D01*
X142513848Y-166401855D01*
X142507396Y-166413959D01*
X142498262Y-166423089D01*
X142464804Y-166440506D01*
X142429856Y-166437604D01*
X142398953Y-166413100D01*
X142389944Y-166399897D01*
X142382492Y-166381361D01*
X142378124Y-166355333D01*
X142376069Y-166316787D01*
X142375556Y-166260700D01*
X142375556Y-166138045D01*
X141878845Y-166138045D01*
X141878845Y-166272871D01*
X141878772Y-166308662D01*
X141878009Y-166354992D01*
X141875833Y-166385526D01*
X141871536Y-166404557D01*
X141864412Y-166416374D01*
X141853755Y-166425271D01*
X141821504Y-166440341D01*
X141786217Y-166437673D01*
X141755486Y-166413100D01*
X141750831Y-166406845D01*
X141744895Y-166396321D01*
X141740364Y-166382391D01*
X141737048Y-166362317D01*
X141734759Y-166333360D01*
X141733308Y-166292780D01*
X141732505Y-166237840D01*
X141732162Y-166165799D01*
X141732089Y-166073920D01*
X141732089Y-165764485D01*
X141759798Y-165736776D01*
X141791177Y-165714533D01*
X141824406Y-165711844D01*
X141856267Y-165731645D01*
X141864553Y-165741415D01*
X141871965Y-165757307D01*
X141876302Y-165781275D01*
X141878338Y-165818148D01*
X141878845Y-165872756D01*
X141878845Y-165991289D01*
X142375556Y-165991289D01*
X142375556Y-165875776D01*
X142375994Y-165824078D01*
X142377958Y-165789554D01*
X142382474Y-165766978D01*
X142390567Y-165751126D01*
X142403265Y-165736776D01*
X142434643Y-165714533D01*
X142467872Y-165711844D01*
X142499734Y-165731645D01*
G37*
X147205133Y-166320396D02*
X147203163Y-166353175D01*
X147200235Y-166376095D01*
X147196158Y-166391897D01*
X147190743Y-166403319D01*
X147183803Y-166413100D01*
X147160406Y-166442845D01*
X146994714Y-166442251D01*
X146959918Y-166441953D01*
X146861435Y-166438522D01*
X146780473Y-166430839D01*
X146713379Y-166418282D01*
X146656496Y-166400227D01*
X146606169Y-166376052D01*
X146602810Y-166374135D01*
X146544998Y-166337417D01*
X146502644Y-166300451D01*
X146469828Y-166256966D01*
X146440628Y-166200689D01*
X146436346Y-166191073D01*
X146413769Y-166127887D01*
X146408034Y-166082333D01*
X146557279Y-166082333D01*
X146562892Y-166107061D01*
X146568618Y-166122939D01*
X146601548Y-166182847D01*
X146648886Y-166228600D01*
X146712652Y-166261736D01*
X146794861Y-166283790D01*
X146797655Y-166284292D01*
X146843940Y-166290255D01*
X146900336Y-166294483D01*
X146955274Y-166296089D01*
X147049156Y-166296089D01*
X147049156Y-165855822D01*
X146961667Y-165856270D01*
X146894747Y-165858746D01*
X146802349Y-165869998D01*
X146723034Y-165889537D01*
X146661060Y-165916511D01*
X146630120Y-165937240D01*
X146602000Y-165967006D01*
X146578660Y-166009434D01*
X146571533Y-166025400D01*
X146559709Y-166057902D01*
X146557279Y-166082333D01*
X146408034Y-166082333D01*
X146406797Y-166072509D01*
X146415399Y-166017483D01*
X146439541Y-165955351D01*
X146440337Y-165953658D01*
X146480788Y-165884236D01*
X146531473Y-165827638D01*
X146594198Y-165783070D01*
X146670774Y-165749741D01*
X146763009Y-165726861D01*
X146872712Y-165713636D01*
X147001691Y-165709275D01*
X147005263Y-165709270D01*
X147065283Y-165709410D01*
X147107214Y-165710446D01*
X147135328Y-165713040D01*
X147153897Y-165717853D01*
X147167194Y-165725544D01*
X147179491Y-165736776D01*
X147207200Y-165764485D01*
X147207200Y-166073920D01*
X147207175Y-166135526D01*
X147206950Y-166214311D01*
X147206332Y-166275021D01*
X147205775Y-166296089D01*
X147205133Y-166320396D01*
G36*
X147205133Y-166320396D02*
G01*
X147203163Y-166353175D01*
X147200235Y-166376095D01*
X147196158Y-166391897D01*
X147190743Y-166403319D01*
X147183803Y-166413100D01*
X147160406Y-166442845D01*
X146994714Y-166442251D01*
X146959918Y-166441953D01*
X146861435Y-166438522D01*
X146780473Y-166430839D01*
X146713379Y-166418282D01*
X146656496Y-166400227D01*
X146606169Y-166376052D01*
X146602810Y-166374135D01*
X146544998Y-166337417D01*
X146502644Y-166300451D01*
X146469828Y-166256966D01*
X146440628Y-166200689D01*
X146436346Y-166191073D01*
X146413769Y-166127887D01*
X146408034Y-166082333D01*
X146557279Y-166082333D01*
X146562892Y-166107061D01*
X146568618Y-166122939D01*
X146601548Y-166182847D01*
X146648886Y-166228600D01*
X146712652Y-166261736D01*
X146794861Y-166283790D01*
X146797655Y-166284292D01*
X146843940Y-166290255D01*
X146900336Y-166294483D01*
X146955274Y-166296089D01*
X147049156Y-166296089D01*
X147049156Y-165855822D01*
X146961667Y-165856270D01*
X146894747Y-165858746D01*
X146802349Y-165869998D01*
X146723034Y-165889537D01*
X146661060Y-165916511D01*
X146630120Y-165937240D01*
X146602000Y-165967006D01*
X146578660Y-166009434D01*
X146571533Y-166025400D01*
X146559709Y-166057902D01*
X146557279Y-166082333D01*
X146408034Y-166082333D01*
X146406797Y-166072509D01*
X146415399Y-166017483D01*
X146439541Y-165955351D01*
X146440337Y-165953658D01*
X146480788Y-165884236D01*
X146531473Y-165827638D01*
X146594198Y-165783070D01*
X146670774Y-165749741D01*
X146763009Y-165726861D01*
X146872712Y-165713636D01*
X147001691Y-165709275D01*
X147005263Y-165709270D01*
X147065283Y-165709410D01*
X147107214Y-165710446D01*
X147135328Y-165713040D01*
X147153897Y-165717853D01*
X147167194Y-165725544D01*
X147179491Y-165736776D01*
X147207200Y-165764485D01*
X147207200Y-166073920D01*
X147207175Y-166135526D01*
X147206950Y-166214311D01*
X147206332Y-166275021D01*
X147205775Y-166296089D01*
X147205133Y-166320396D01*
G37*
X154296817Y-165894427D02*
X154296870Y-165975041D01*
X154296622Y-166075956D01*
X154296583Y-166151617D01*
X154296328Y-166229526D01*
X154295684Y-166289536D01*
X154294480Y-166334264D01*
X154292543Y-166366326D01*
X154289703Y-166388340D01*
X154285788Y-166402924D01*
X154280626Y-166412694D01*
X154274045Y-166420267D01*
X154267077Y-166426501D01*
X154254079Y-166433801D01*
X154234931Y-166438554D01*
X154205528Y-166441292D01*
X154161762Y-166442545D01*
X154099528Y-166442845D01*
X154050582Y-166442469D01*
X153943722Y-166438041D01*
X153854494Y-166427953D01*
X153779696Y-166411365D01*
X153716125Y-166387435D01*
X153660579Y-166355321D01*
X153609854Y-166314182D01*
X153603866Y-166308330D01*
X153566999Y-166259821D01*
X153535899Y-166199013D01*
X153514417Y-166134769D01*
X153509136Y-166096026D01*
X153656353Y-166096026D01*
X153674635Y-166146961D01*
X153704305Y-166192878D01*
X153751002Y-166235287D01*
X153812392Y-166265090D01*
X153891538Y-166284226D01*
X153893028Y-166284464D01*
X153941999Y-166290256D01*
X154000693Y-166294396D01*
X154056734Y-166296004D01*
X154149867Y-166296089D01*
X154149867Y-165855822D01*
X154073667Y-165855808D01*
X154070639Y-165855817D01*
X154019519Y-165857782D01*
X153959416Y-165862507D01*
X153902708Y-165869035D01*
X153852750Y-165878331D01*
X153777998Y-165904600D01*
X153720489Y-165943899D01*
X153678988Y-165996933D01*
X153657771Y-166048200D01*
X153656353Y-166096026D01*
X153509136Y-166096026D01*
X153506400Y-166075956D01*
X153507679Y-166054739D01*
X153519991Y-165997323D01*
X153542520Y-165937413D01*
X153571750Y-165883363D01*
X153604167Y-165843532D01*
X153623708Y-165826510D01*
X153678420Y-165787322D01*
X153738723Y-165757193D01*
X153807919Y-165735232D01*
X153889311Y-165720550D01*
X153986200Y-165712259D01*
X154101889Y-165709467D01*
X154141371Y-165709066D01*
X154187082Y-165708653D01*
X154222883Y-165710457D01*
X154249974Y-165716739D01*
X154269556Y-165729759D01*
X154282830Y-165751778D01*
X154290998Y-165785055D01*
X154295260Y-165831851D01*
X154295857Y-165855822D01*
X154296817Y-165894427D01*
G36*
X154296817Y-165894427D02*
G01*
X154296870Y-165975041D01*
X154296622Y-166075956D01*
X154296583Y-166151617D01*
X154296328Y-166229526D01*
X154295684Y-166289536D01*
X154294480Y-166334264D01*
X154292543Y-166366326D01*
X154289703Y-166388340D01*
X154285788Y-166402924D01*
X154280626Y-166412694D01*
X154274045Y-166420267D01*
X154267077Y-166426501D01*
X154254079Y-166433801D01*
X154234931Y-166438554D01*
X154205528Y-166441292D01*
X154161762Y-166442545D01*
X154099528Y-166442845D01*
X154050582Y-166442469D01*
X153943722Y-166438041D01*
X153854494Y-166427953D01*
X153779696Y-166411365D01*
X153716125Y-166387435D01*
X153660579Y-166355321D01*
X153609854Y-166314182D01*
X153603866Y-166308330D01*
X153566999Y-166259821D01*
X153535899Y-166199013D01*
X153514417Y-166134769D01*
X153509136Y-166096026D01*
X153656353Y-166096026D01*
X153674635Y-166146961D01*
X153704305Y-166192878D01*
X153751002Y-166235287D01*
X153812392Y-166265090D01*
X153891538Y-166284226D01*
X153893028Y-166284464D01*
X153941999Y-166290256D01*
X154000693Y-166294396D01*
X154056734Y-166296004D01*
X154149867Y-166296089D01*
X154149867Y-165855822D01*
X154073667Y-165855808D01*
X154070639Y-165855817D01*
X154019519Y-165857782D01*
X153959416Y-165862507D01*
X153902708Y-165869035D01*
X153852750Y-165878331D01*
X153777998Y-165904600D01*
X153720489Y-165943899D01*
X153678988Y-165996933D01*
X153657771Y-166048200D01*
X153656353Y-166096026D01*
X153509136Y-166096026D01*
X153506400Y-166075956D01*
X153507679Y-166054739D01*
X153519991Y-165997323D01*
X153542520Y-165937413D01*
X153571750Y-165883363D01*
X153604167Y-165843532D01*
X153623708Y-165826510D01*
X153678420Y-165787322D01*
X153738723Y-165757193D01*
X153807919Y-165735232D01*
X153889311Y-165720550D01*
X153986200Y-165712259D01*
X154101889Y-165709467D01*
X154141371Y-165709066D01*
X154187082Y-165708653D01*
X154222883Y-165710457D01*
X154249974Y-165716739D01*
X154269556Y-165729759D01*
X154282830Y-165751778D01*
X154290998Y-165785055D01*
X154295260Y-165831851D01*
X154295857Y-165855822D01*
X154296817Y-165894427D01*
G37*
X149351893Y-165707892D02*
X149363301Y-165714029D01*
X149373850Y-165724691D01*
X149385136Y-165738811D01*
X149389589Y-165744772D01*
X149395588Y-165755268D01*
X149400167Y-165769093D01*
X149403519Y-165788998D01*
X149405833Y-165817732D01*
X149407301Y-165858045D01*
X149408113Y-165912687D01*
X149408460Y-165984407D01*
X149408534Y-166075956D01*
X149408511Y-166134486D01*
X149408292Y-166213573D01*
X149407683Y-166274516D01*
X149406492Y-166320062D01*
X149404529Y-166352963D01*
X149401603Y-166375968D01*
X149397523Y-166391826D01*
X149392097Y-166403286D01*
X149385136Y-166413100D01*
X149354708Y-166437493D01*
X149319765Y-166440372D01*
X149282784Y-166421282D01*
X149278600Y-166417807D01*
X149270424Y-166409279D01*
X149264364Y-166397728D01*
X149259981Y-166379896D01*
X149256839Y-166352524D01*
X149254502Y-166312354D01*
X149252531Y-166256128D01*
X149250489Y-166180589D01*
X149244845Y-165961458D01*
X148979556Y-166202099D01*
X148905722Y-166268875D01*
X148840542Y-166326991D01*
X148788348Y-166371949D01*
X148747273Y-166404871D01*
X148715455Y-166426879D01*
X148691026Y-166439094D01*
X148672124Y-166442639D01*
X148656883Y-166438636D01*
X148643439Y-166428207D01*
X148629927Y-166412474D01*
X148623682Y-166403991D01*
X148618050Y-166393413D01*
X148613839Y-166379255D01*
X148610887Y-166358803D01*
X148609032Y-166329342D01*
X148608113Y-166288161D01*
X148607968Y-166232544D01*
X148608435Y-166159779D01*
X148609352Y-166067151D01*
X148612667Y-165752199D01*
X148639318Y-165730633D01*
X148665383Y-165714441D01*
X148698241Y-165711670D01*
X148732772Y-165730623D01*
X148737084Y-165734208D01*
X148745216Y-165742737D01*
X148751245Y-165754329D01*
X148755606Y-165772235D01*
X148758734Y-165799706D01*
X148761063Y-165839994D01*
X148763029Y-165896351D01*
X148765067Y-165972029D01*
X148770711Y-166191878D01*
X148951334Y-166028084D01*
X149038072Y-165949451D01*
X149113843Y-165881058D01*
X149175980Y-165825708D01*
X149226078Y-165782338D01*
X149265735Y-165749881D01*
X149296548Y-165727273D01*
X149320114Y-165713448D01*
X149338030Y-165707343D01*
X149351893Y-165707892D01*
G36*
X149351893Y-165707892D02*
G01*
X149363301Y-165714029D01*
X149373850Y-165724691D01*
X149385136Y-165738811D01*
X149389589Y-165744772D01*
X149395588Y-165755268D01*
X149400167Y-165769093D01*
X149403519Y-165788998D01*
X149405833Y-165817732D01*
X149407301Y-165858045D01*
X149408113Y-165912687D01*
X149408460Y-165984407D01*
X149408534Y-166075956D01*
X149408511Y-166134486D01*
X149408292Y-166213573D01*
X149407683Y-166274516D01*
X149406492Y-166320062D01*
X149404529Y-166352963D01*
X149401603Y-166375968D01*
X149397523Y-166391826D01*
X149392097Y-166403286D01*
X149385136Y-166413100D01*
X149354708Y-166437493D01*
X149319765Y-166440372D01*
X149282784Y-166421282D01*
X149278600Y-166417807D01*
X149270424Y-166409279D01*
X149264364Y-166397728D01*
X149259981Y-166379896D01*
X149256839Y-166352524D01*
X149254502Y-166312354D01*
X149252531Y-166256128D01*
X149250489Y-166180589D01*
X149244845Y-165961458D01*
X148979556Y-166202099D01*
X148905722Y-166268875D01*
X148840542Y-166326991D01*
X148788348Y-166371949D01*
X148747273Y-166404871D01*
X148715455Y-166426879D01*
X148691026Y-166439094D01*
X148672124Y-166442639D01*
X148656883Y-166438636D01*
X148643439Y-166428207D01*
X148629927Y-166412474D01*
X148623682Y-166403991D01*
X148618050Y-166393413D01*
X148613839Y-166379255D01*
X148610887Y-166358803D01*
X148609032Y-166329342D01*
X148608113Y-166288161D01*
X148607968Y-166232544D01*
X148608435Y-166159779D01*
X148609352Y-166067151D01*
X148612667Y-165752199D01*
X148639318Y-165730633D01*
X148665383Y-165714441D01*
X148698241Y-165711670D01*
X148732772Y-165730623D01*
X148737084Y-165734208D01*
X148745216Y-165742737D01*
X148751245Y-165754329D01*
X148755606Y-165772235D01*
X148758734Y-165799706D01*
X148761063Y-165839994D01*
X148763029Y-165896351D01*
X148765067Y-165972029D01*
X148770711Y-166191878D01*
X148951334Y-166028084D01*
X149038072Y-165949451D01*
X149113843Y-165881058D01*
X149175980Y-165825708D01*
X149226078Y-165782338D01*
X149265735Y-165749881D01*
X149296548Y-165727273D01*
X149320114Y-165713448D01*
X149338030Y-165707343D01*
X149351893Y-165707892D01*
G37*
X150149150Y-165714179D02*
X150255157Y-165730494D01*
X150348969Y-165758545D01*
X150427765Y-165797452D01*
X150488719Y-165846334D01*
X150514789Y-165879195D01*
X150544297Y-165928394D01*
X150569568Y-165982252D01*
X150587218Y-166033419D01*
X150593858Y-166074544D01*
X150592298Y-166094259D01*
X150579357Y-166145592D01*
X150556194Y-166202118D01*
X150526302Y-166256035D01*
X150493173Y-166299539D01*
X150482977Y-166309887D01*
X150415892Y-166361662D01*
X150335766Y-166401554D01*
X150249556Y-166425956D01*
X150194592Y-166434068D01*
X150101139Y-166440673D01*
X150011358Y-166438586D01*
X149928869Y-166428340D01*
X149857286Y-166410470D01*
X149800228Y-166385508D01*
X149761311Y-166353988D01*
X149759936Y-166352012D01*
X149752848Y-166326786D01*
X149748609Y-166279535D01*
X149747200Y-166210071D01*
X149748060Y-166147838D01*
X149752780Y-166100456D01*
X149764470Y-166068353D01*
X149786239Y-166048800D01*
X149821198Y-166039070D01*
X149872456Y-166036433D01*
X149943123Y-166038161D01*
X149991743Y-166041173D01*
X150041939Y-166049366D01*
X150074433Y-166063419D01*
X150091892Y-166084654D01*
X150096983Y-166114394D01*
X150096877Y-166118936D01*
X150088175Y-166153730D01*
X150064165Y-166177147D01*
X150022900Y-166190347D01*
X149962431Y-166194489D01*
X149893956Y-166194489D01*
X149893956Y-166232841D01*
X149894006Y-166241976D01*
X149896227Y-166259227D01*
X149905494Y-166269521D01*
X149926875Y-166276459D01*
X149965436Y-166283641D01*
X149970910Y-166284575D01*
X150067860Y-166294478D01*
X150157852Y-166291559D01*
X150238760Y-166276829D01*
X150308459Y-166251299D01*
X150364824Y-166215978D01*
X150405729Y-166171879D01*
X150429051Y-166120012D01*
X150432663Y-166061388D01*
X150427145Y-166032494D01*
X150400461Y-165976604D01*
X150354273Y-165930945D01*
X150289291Y-165896108D01*
X150206229Y-165872690D01*
X150181555Y-165868241D01*
X150092226Y-165857742D01*
X150012419Y-165858971D01*
X149934326Y-165871906D01*
X149899183Y-165878696D01*
X149853745Y-165879713D01*
X149822430Y-165867182D01*
X149802277Y-165840395D01*
X149795893Y-165812148D01*
X149805379Y-165780924D01*
X149814708Y-165767499D01*
X149848943Y-165743967D01*
X149901565Y-165726095D01*
X149970081Y-165714599D01*
X150052000Y-165710192D01*
X150149150Y-165714179D01*
G36*
X150149150Y-165714179D02*
G01*
X150255157Y-165730494D01*
X150348969Y-165758545D01*
X150427765Y-165797452D01*
X150488719Y-165846334D01*
X150514789Y-165879195D01*
X150544297Y-165928394D01*
X150569568Y-165982252D01*
X150587218Y-166033419D01*
X150593858Y-166074544D01*
X150592298Y-166094259D01*
X150579357Y-166145592D01*
X150556194Y-166202118D01*
X150526302Y-166256035D01*
X150493173Y-166299539D01*
X150482977Y-166309887D01*
X150415892Y-166361662D01*
X150335766Y-166401554D01*
X150249556Y-166425956D01*
X150194592Y-166434068D01*
X150101139Y-166440673D01*
X150011358Y-166438586D01*
X149928869Y-166428340D01*
X149857286Y-166410470D01*
X149800228Y-166385508D01*
X149761311Y-166353988D01*
X149759936Y-166352012D01*
X149752848Y-166326786D01*
X149748609Y-166279535D01*
X149747200Y-166210071D01*
X149748060Y-166147838D01*
X149752780Y-166100456D01*
X149764470Y-166068353D01*
X149786239Y-166048800D01*
X149821198Y-166039070D01*
X149872456Y-166036433D01*
X149943123Y-166038161D01*
X149991743Y-166041173D01*
X150041939Y-166049366D01*
X150074433Y-166063419D01*
X150091892Y-166084654D01*
X150096983Y-166114394D01*
X150096877Y-166118936D01*
X150088175Y-166153730D01*
X150064165Y-166177147D01*
X150022900Y-166190347D01*
X149962431Y-166194489D01*
X149893956Y-166194489D01*
X149893956Y-166232841D01*
X149894006Y-166241976D01*
X149896227Y-166259227D01*
X149905494Y-166269521D01*
X149926875Y-166276459D01*
X149965436Y-166283641D01*
X149970910Y-166284575D01*
X150067860Y-166294478D01*
X150157852Y-166291559D01*
X150238760Y-166276829D01*
X150308459Y-166251299D01*
X150364824Y-166215978D01*
X150405729Y-166171879D01*
X150429051Y-166120012D01*
X150432663Y-166061388D01*
X150427145Y-166032494D01*
X150400461Y-165976604D01*
X150354273Y-165930945D01*
X150289291Y-165896108D01*
X150206229Y-165872690D01*
X150181555Y-165868241D01*
X150092226Y-165857742D01*
X150012419Y-165858971D01*
X149934326Y-165871906D01*
X149899183Y-165878696D01*
X149853745Y-165879713D01*
X149822430Y-165867182D01*
X149802277Y-165840395D01*
X149795893Y-165812148D01*
X149805379Y-165780924D01*
X149814708Y-165767499D01*
X149848943Y-165743967D01*
X149901565Y-165726095D01*
X149970081Y-165714599D01*
X150052000Y-165710192D01*
X150149150Y-165714179D01*
G37*
X148199803Y-165738811D02*
X148204752Y-165745495D01*
X148210596Y-165756066D01*
X148215057Y-165770153D01*
X148218321Y-165790478D01*
X148220574Y-165819765D01*
X148222002Y-165860737D01*
X148222792Y-165916117D01*
X148223129Y-165988628D01*
X148223200Y-166080994D01*
X148223171Y-166146911D01*
X148222939Y-166225228D01*
X148222319Y-166285496D01*
X148221126Y-166330393D01*
X148219179Y-166362602D01*
X148216294Y-166384800D01*
X148212288Y-166399669D01*
X148206979Y-166409889D01*
X148200183Y-166418138D01*
X148195668Y-166422795D01*
X148187438Y-166429282D01*
X148176078Y-166434194D01*
X148158810Y-166437749D01*
X148132855Y-166440167D01*
X148095436Y-166441667D01*
X148043773Y-166442467D01*
X147975089Y-166442787D01*
X147886606Y-166442845D01*
X147866931Y-166442838D01*
X147779906Y-166442572D01*
X147712254Y-166441806D01*
X147661299Y-166440392D01*
X147624367Y-166438180D01*
X147598783Y-166435022D01*
X147581871Y-166430769D01*
X147570957Y-166425271D01*
X147560464Y-166415285D01*
X147547203Y-166384168D01*
X147548386Y-166348280D01*
X147564550Y-166316733D01*
X147566739Y-166314457D01*
X147575427Y-166308189D01*
X147588769Y-166303523D01*
X147609752Y-166300227D01*
X147641363Y-166298068D01*
X147686590Y-166296814D01*
X147748420Y-166296231D01*
X147829839Y-166296089D01*
X148076445Y-166296089D01*
X148076445Y-166138045D01*
X147914006Y-166138045D01*
X147878338Y-166137964D01*
X147822568Y-166137167D01*
X147783430Y-166135162D01*
X147756976Y-166131521D01*
X147739259Y-166125812D01*
X147726329Y-166117607D01*
X147722686Y-166114423D01*
X147704278Y-166083448D01*
X147703644Y-166047112D01*
X147721183Y-166013493D01*
X147721245Y-166013424D01*
X147730916Y-166004798D01*
X147744209Y-165998742D01*
X147764917Y-165994811D01*
X147796828Y-165992556D01*
X147843734Y-165991531D01*
X147909424Y-165991289D01*
X148077571Y-165991289D01*
X148074186Y-165926378D01*
X148070800Y-165861467D01*
X147828723Y-165858414D01*
X147803707Y-165858086D01*
X147722087Y-165856606D01*
X147659768Y-165854222D01*
X147614154Y-165850227D01*
X147582652Y-165843913D01*
X147562667Y-165834574D01*
X147551604Y-165821503D01*
X147546869Y-165803992D01*
X147545867Y-165781335D01*
X147545873Y-165778970D01*
X147547027Y-165758939D01*
X147551824Y-165743146D01*
X147562632Y-165731090D01*
X147581817Y-165722267D01*
X147611745Y-165716175D01*
X147654783Y-165712311D01*
X147713299Y-165710174D01*
X147789657Y-165709260D01*
X147886226Y-165709067D01*
X148176406Y-165709067D01*
X148199803Y-165738811D01*
G36*
X148199803Y-165738811D02*
G01*
X148204752Y-165745495D01*
X148210596Y-165756066D01*
X148215057Y-165770153D01*
X148218321Y-165790478D01*
X148220574Y-165819765D01*
X148222002Y-165860737D01*
X148222792Y-165916117D01*
X148223129Y-165988628D01*
X148223200Y-166080994D01*
X148223171Y-166146911D01*
X148222939Y-166225228D01*
X148222319Y-166285496D01*
X148221126Y-166330393D01*
X148219179Y-166362602D01*
X148216294Y-166384800D01*
X148212288Y-166399669D01*
X148206979Y-166409889D01*
X148200183Y-166418138D01*
X148195668Y-166422795D01*
X148187438Y-166429282D01*
X148176078Y-166434194D01*
X148158810Y-166437749D01*
X148132855Y-166440167D01*
X148095436Y-166441667D01*
X148043773Y-166442467D01*
X147975089Y-166442787D01*
X147886606Y-166442845D01*
X147866931Y-166442838D01*
X147779906Y-166442572D01*
X147712254Y-166441806D01*
X147661299Y-166440392D01*
X147624367Y-166438180D01*
X147598783Y-166435022D01*
X147581871Y-166430769D01*
X147570957Y-166425271D01*
X147560464Y-166415285D01*
X147547203Y-166384168D01*
X147548386Y-166348280D01*
X147564550Y-166316733D01*
X147566739Y-166314457D01*
X147575427Y-166308189D01*
X147588769Y-166303523D01*
X147609752Y-166300227D01*
X147641363Y-166298068D01*
X147686590Y-166296814D01*
X147748420Y-166296231D01*
X147829839Y-166296089D01*
X148076445Y-166296089D01*
X148076445Y-166138045D01*
X147914006Y-166138045D01*
X147878338Y-166137964D01*
X147822568Y-166137167D01*
X147783430Y-166135162D01*
X147756976Y-166131521D01*
X147739259Y-166125812D01*
X147726329Y-166117607D01*
X147722686Y-166114423D01*
X147704278Y-166083448D01*
X147703644Y-166047112D01*
X147721183Y-166013493D01*
X147721245Y-166013424D01*
X147730916Y-166004798D01*
X147744209Y-165998742D01*
X147764917Y-165994811D01*
X147796828Y-165992556D01*
X147843734Y-165991531D01*
X147909424Y-165991289D01*
X148077571Y-165991289D01*
X148074186Y-165926378D01*
X148070800Y-165861467D01*
X147828723Y-165858414D01*
X147803707Y-165858086D01*
X147722087Y-165856606D01*
X147659768Y-165854222D01*
X147614154Y-165850227D01*
X147582652Y-165843913D01*
X147562667Y-165834574D01*
X147551604Y-165821503D01*
X147546869Y-165803992D01*
X147545867Y-165781335D01*
X147545873Y-165778970D01*
X147547027Y-165758939D01*
X147551824Y-165743146D01*
X147562632Y-165731090D01*
X147581817Y-165722267D01*
X147611745Y-165716175D01*
X147654783Y-165712311D01*
X147713299Y-165710174D01*
X147789657Y-165709260D01*
X147886226Y-165709067D01*
X148176406Y-165709067D01*
X148199803Y-165738811D01*
G37*
X152876734Y-165709083D02*
X152953831Y-165709275D01*
X153012777Y-165709860D01*
X153056364Y-165711051D01*
X153087383Y-165713064D01*
X153108625Y-165716112D01*
X153122882Y-165720409D01*
X153132945Y-165726172D01*
X153141606Y-165733612D01*
X153143391Y-165735293D01*
X153150635Y-165742832D01*
X153156277Y-165751850D01*
X153160517Y-165764984D01*
X153163556Y-165784872D01*
X153165594Y-165814151D01*
X153166830Y-165855458D01*
X153167465Y-165911431D01*
X153167700Y-165984707D01*
X153167734Y-166077923D01*
X153167697Y-166150713D01*
X153167448Y-166228889D01*
X153166812Y-166289103D01*
X153165615Y-166333982D01*
X153163684Y-166366152D01*
X153160846Y-166388239D01*
X153156927Y-166402870D01*
X153151755Y-166412670D01*
X153145156Y-166420267D01*
X153141822Y-166423444D01*
X153133300Y-166429554D01*
X153121298Y-166434229D01*
X153103087Y-166437659D01*
X153075940Y-166440036D01*
X153037129Y-166441552D01*
X152983924Y-166442398D01*
X152913598Y-166442765D01*
X152823422Y-166442845D01*
X152781314Y-166442833D01*
X152700167Y-166442651D01*
X152637675Y-166442098D01*
X152591109Y-166440982D01*
X152557741Y-166439113D01*
X152534844Y-166436298D01*
X152519688Y-166432346D01*
X152509546Y-166427066D01*
X152501689Y-166420267D01*
X152486963Y-166398667D01*
X152479111Y-166369467D01*
X152484610Y-166345560D01*
X152501689Y-166318667D01*
X152506668Y-166314059D01*
X152516443Y-166307772D01*
X152530559Y-166303146D01*
X152552054Y-166299930D01*
X152583968Y-166297870D01*
X152629342Y-166296712D01*
X152691213Y-166296202D01*
X152772622Y-166296089D01*
X153020978Y-166296089D01*
X153020978Y-166138045D01*
X152859801Y-166138045D01*
X152823983Y-166137899D01*
X152758359Y-166136176D01*
X152711118Y-166131741D01*
X152679383Y-166123637D01*
X152660277Y-166110906D01*
X152650923Y-166092592D01*
X152648445Y-166067738D01*
X152649242Y-166047482D01*
X152654494Y-166025656D01*
X152667288Y-166010304D01*
X152690628Y-166000309D01*
X152727517Y-165994553D01*
X152780959Y-165991919D01*
X152853958Y-165991289D01*
X153022105Y-165991289D01*
X153018719Y-165926378D01*
X153015334Y-165861467D01*
X152767617Y-165858418D01*
X152705026Y-165857539D01*
X152636565Y-165856095D01*
X152585661Y-165854164D01*
X152549408Y-165851514D01*
X152524901Y-165847910D01*
X152509235Y-165843121D01*
X152499506Y-165836913D01*
X152493491Y-165830510D01*
X152480482Y-165798828D01*
X152484043Y-165763142D01*
X152503818Y-165732084D01*
X152507069Y-165729161D01*
X152516049Y-165722810D01*
X152528153Y-165717957D01*
X152546159Y-165714403D01*
X152572847Y-165711946D01*
X152610997Y-165710385D01*
X152663386Y-165709518D01*
X152732794Y-165709146D01*
X152822001Y-165709067D01*
X152876734Y-165709083D01*
G36*
X152876734Y-165709083D02*
G01*
X152953831Y-165709275D01*
X153012777Y-165709860D01*
X153056364Y-165711051D01*
X153087383Y-165713064D01*
X153108625Y-165716112D01*
X153122882Y-165720409D01*
X153132945Y-165726172D01*
X153141606Y-165733612D01*
X153143391Y-165735293D01*
X153150635Y-165742832D01*
X153156277Y-165751850D01*
X153160517Y-165764984D01*
X153163556Y-165784872D01*
X153165594Y-165814151D01*
X153166830Y-165855458D01*
X153167465Y-165911431D01*
X153167700Y-165984707D01*
X153167734Y-166077923D01*
X153167697Y-166150713D01*
X153167448Y-166228889D01*
X153166812Y-166289103D01*
X153165615Y-166333982D01*
X153163684Y-166366152D01*
X153160846Y-166388239D01*
X153156927Y-166402870D01*
X153151755Y-166412670D01*
X153145156Y-166420267D01*
X153141822Y-166423444D01*
X153133300Y-166429554D01*
X153121298Y-166434229D01*
X153103087Y-166437659D01*
X153075940Y-166440036D01*
X153037129Y-166441552D01*
X152983924Y-166442398D01*
X152913598Y-166442765D01*
X152823422Y-166442845D01*
X152781314Y-166442833D01*
X152700167Y-166442651D01*
X152637675Y-166442098D01*
X152591109Y-166440982D01*
X152557741Y-166439113D01*
X152534844Y-166436298D01*
X152519688Y-166432346D01*
X152509546Y-166427066D01*
X152501689Y-166420267D01*
X152486963Y-166398667D01*
X152479111Y-166369467D01*
X152484610Y-166345560D01*
X152501689Y-166318667D01*
X152506668Y-166314059D01*
X152516443Y-166307772D01*
X152530559Y-166303146D01*
X152552054Y-166299930D01*
X152583968Y-166297870D01*
X152629342Y-166296712D01*
X152691213Y-166296202D01*
X152772622Y-166296089D01*
X153020978Y-166296089D01*
X153020978Y-166138045D01*
X152859801Y-166138045D01*
X152823983Y-166137899D01*
X152758359Y-166136176D01*
X152711118Y-166131741D01*
X152679383Y-166123637D01*
X152660277Y-166110906D01*
X152650923Y-166092592D01*
X152648445Y-166067738D01*
X152649242Y-166047482D01*
X152654494Y-166025656D01*
X152667288Y-166010304D01*
X152690628Y-166000309D01*
X152727517Y-165994553D01*
X152780959Y-165991919D01*
X152853958Y-165991289D01*
X153022105Y-165991289D01*
X153018719Y-165926378D01*
X153015334Y-165861467D01*
X152767617Y-165858418D01*
X152705026Y-165857539D01*
X152636565Y-165856095D01*
X152585661Y-165854164D01*
X152549408Y-165851514D01*
X152524901Y-165847910D01*
X152509235Y-165843121D01*
X152499506Y-165836913D01*
X152493491Y-165830510D01*
X152480482Y-165798828D01*
X152484043Y-165763142D01*
X152503818Y-165732084D01*
X152507069Y-165729161D01*
X152516049Y-165722810D01*
X152528153Y-165717957D01*
X152546159Y-165714403D01*
X152572847Y-165711946D01*
X152610997Y-165710385D01*
X152663386Y-165709518D01*
X152732794Y-165709146D01*
X152822001Y-165709067D01*
X152876734Y-165709083D01*
G37*
X144309702Y-165718478D02*
X144327663Y-165736989D01*
X144348263Y-165768071D01*
X144373095Y-165813756D01*
X144403750Y-165876078D01*
X144441820Y-165957071D01*
X144456454Y-165988454D01*
X144486203Y-166051638D01*
X144512297Y-166106244D01*
X144533292Y-166149290D01*
X144547739Y-166177793D01*
X144554191Y-166188770D01*
X144555550Y-166188189D01*
X144565542Y-166174242D01*
X144582833Y-166144704D01*
X144605430Y-166103087D01*
X144631338Y-166052903D01*
X144647311Y-166021414D01*
X144676261Y-165966061D01*
X144698749Y-165927044D01*
X144716965Y-165901566D01*
X144733096Y-165886831D01*
X144749330Y-165880042D01*
X144767857Y-165878400D01*
X144778360Y-165878875D01*
X144794476Y-165883082D01*
X144809790Y-165893946D01*
X144826388Y-165914219D01*
X144846357Y-165946654D01*
X144871783Y-165994004D01*
X144904752Y-166059022D01*
X144914485Y-166078277D01*
X144938943Y-166124946D01*
X144959178Y-166161109D01*
X144973311Y-166183497D01*
X144979460Y-166188845D01*
X144980827Y-166185573D01*
X144990202Y-166164664D01*
X145007062Y-166127725D01*
X145029979Y-166077874D01*
X145057520Y-166018226D01*
X145088255Y-165951898D01*
X145114970Y-165894677D01*
X145144593Y-165832688D01*
X145167664Y-165786949D01*
X145185643Y-165754908D01*
X145199990Y-165734014D01*
X145212166Y-165721718D01*
X145223632Y-165715466D01*
X145233042Y-165712574D01*
X145258147Y-165712425D01*
X145285290Y-165727768D01*
X145286590Y-165728753D01*
X145308674Y-165751388D01*
X145319723Y-165773613D01*
X145319769Y-165774253D01*
X145315228Y-165791915D01*
X145302364Y-165826481D01*
X145282605Y-165874826D01*
X145257381Y-165933825D01*
X145228119Y-166000355D01*
X145196250Y-166071291D01*
X145163201Y-166143507D01*
X145130401Y-166213880D01*
X145099280Y-166279285D01*
X145071265Y-166336597D01*
X145047786Y-166382692D01*
X145030272Y-166414446D01*
X145020151Y-166428733D01*
X144985743Y-166442102D01*
X144944046Y-166435741D01*
X144938681Y-166431044D01*
X144922852Y-166408893D01*
X144900650Y-166372132D01*
X144874233Y-166324415D01*
X144845760Y-166269393D01*
X144765986Y-166110150D01*
X144692799Y-166256742D01*
X144683103Y-166276032D01*
X144656125Y-166328380D01*
X144632096Y-166373170D01*
X144613332Y-166406154D01*
X144602146Y-166423089D01*
X144601000Y-166424332D01*
X144572879Y-166439619D01*
X144537817Y-166441302D01*
X144506776Y-166428733D01*
X144504350Y-166425884D01*
X144492090Y-166405259D01*
X144472352Y-166367708D01*
X144446448Y-166315880D01*
X144415685Y-166252423D01*
X144381375Y-166179985D01*
X144344825Y-166101216D01*
X144324585Y-166057093D01*
X144287812Y-165976365D01*
X144259355Y-165912687D01*
X144238331Y-165863752D01*
X144223854Y-165827257D01*
X144215039Y-165800895D01*
X144211004Y-165782361D01*
X144210862Y-165769352D01*
X144213730Y-165759561D01*
X144228387Y-165738678D01*
X144254990Y-165718377D01*
X144255745Y-165718035D01*
X144275335Y-165711034D01*
X144292790Y-165710504D01*
X144309702Y-165718478D01*
G36*
X144309702Y-165718478D02*
G01*
X144327663Y-165736989D01*
X144348263Y-165768071D01*
X144373095Y-165813756D01*
X144403750Y-165876078D01*
X144441820Y-165957071D01*
X144456454Y-165988454D01*
X144486203Y-166051638D01*
X144512297Y-166106244D01*
X144533292Y-166149290D01*
X144547739Y-166177793D01*
X144554191Y-166188770D01*
X144555550Y-166188189D01*
X144565542Y-166174242D01*
X144582833Y-166144704D01*
X144605430Y-166103087D01*
X144631338Y-166052903D01*
X144647311Y-166021414D01*
X144676261Y-165966061D01*
X144698749Y-165927044D01*
X144716965Y-165901566D01*
X144733096Y-165886831D01*
X144749330Y-165880042D01*
X144767857Y-165878400D01*
X144778360Y-165878875D01*
X144794476Y-165883082D01*
X144809790Y-165893946D01*
X144826388Y-165914219D01*
X144846357Y-165946654D01*
X144871783Y-165994004D01*
X144904752Y-166059022D01*
X144914485Y-166078277D01*
X144938943Y-166124946D01*
X144959178Y-166161109D01*
X144973311Y-166183497D01*
X144979460Y-166188845D01*
X144980827Y-166185573D01*
X144990202Y-166164664D01*
X145007062Y-166127725D01*
X145029979Y-166077874D01*
X145057520Y-166018226D01*
X145088255Y-165951898D01*
X145114970Y-165894677D01*
X145144593Y-165832688D01*
X145167664Y-165786949D01*
X145185643Y-165754908D01*
X145199990Y-165734014D01*
X145212166Y-165721718D01*
X145223632Y-165715466D01*
X145233042Y-165712574D01*
X145258147Y-165712425D01*
X145285290Y-165727768D01*
X145286590Y-165728753D01*
X145308674Y-165751388D01*
X145319723Y-165773613D01*
X145319769Y-165774253D01*
X145315228Y-165791915D01*
X145302364Y-165826481D01*
X145282605Y-165874826D01*
X145257381Y-165933825D01*
X145228119Y-166000355D01*
X145196250Y-166071291D01*
X145163201Y-166143507D01*
X145130401Y-166213880D01*
X145099280Y-166279285D01*
X145071265Y-166336597D01*
X145047786Y-166382692D01*
X145030272Y-166414446D01*
X145020151Y-166428733D01*
X144985743Y-166442102D01*
X144944046Y-166435741D01*
X144938681Y-166431044D01*
X144922852Y-166408893D01*
X144900650Y-166372132D01*
X144874233Y-166324415D01*
X144845760Y-166269393D01*
X144765986Y-166110150D01*
X144692799Y-166256742D01*
X144683103Y-166276032D01*
X144656125Y-166328380D01*
X144632096Y-166373170D01*
X144613332Y-166406154D01*
X144602146Y-166423089D01*
X144601000Y-166424332D01*
X144572879Y-166439619D01*
X144537817Y-166441302D01*
X144506776Y-166428733D01*
X144504350Y-166425884D01*
X144492090Y-166405259D01*
X144472352Y-166367708D01*
X144446448Y-166315880D01*
X144415685Y-166252423D01*
X144381375Y-166179985D01*
X144344825Y-166101216D01*
X144324585Y-166057093D01*
X144287812Y-165976365D01*
X144259355Y-165912687D01*
X144238331Y-165863752D01*
X144223854Y-165827257D01*
X144215039Y-165800895D01*
X144211004Y-165782361D01*
X144210862Y-165769352D01*
X144213730Y-165759561D01*
X144228387Y-165738678D01*
X144254990Y-165718377D01*
X144255745Y-165718035D01*
X144275335Y-165711034D01*
X144292790Y-165710504D01*
X144309702Y-165718478D01*
G37*
X151860853Y-165709936D02*
X151927100Y-165715366D01*
X151982400Y-165724964D01*
X152033283Y-165739825D01*
X152104595Y-165772958D01*
X152155752Y-165815640D01*
X152186575Y-165867705D01*
X152196889Y-165928983D01*
X152195952Y-165960232D01*
X152190160Y-165985029D01*
X152175353Y-166006699D01*
X152147380Y-166034049D01*
X152139402Y-166041378D01*
X152115692Y-166062281D01*
X152093298Y-166079251D01*
X152069265Y-166093205D01*
X152040637Y-166105056D01*
X152004460Y-166115720D01*
X151957780Y-166126111D01*
X151897641Y-166137146D01*
X151821090Y-166149738D01*
X151725171Y-166164804D01*
X151706808Y-166167838D01*
X151644478Y-166181458D01*
X151599260Y-166197192D01*
X151572976Y-166214263D01*
X151567447Y-166231897D01*
X151570068Y-166236168D01*
X151588000Y-166251233D01*
X151616126Y-166267867D01*
X151628926Y-166273857D01*
X151650224Y-166281050D01*
X151676610Y-166285827D01*
X151712454Y-166288646D01*
X151762128Y-166289964D01*
X151830000Y-166290237D01*
X151847785Y-166290164D01*
X151915406Y-166289053D01*
X151980345Y-166286828D01*
X152035970Y-166283762D01*
X152075651Y-166280127D01*
X152111162Y-166276059D01*
X152140415Y-166275276D01*
X152159315Y-166279876D01*
X152174429Y-166290551D01*
X152178085Y-166294144D01*
X152194427Y-166325918D01*
X152193107Y-166361572D01*
X152174150Y-166392190D01*
X152153780Y-166403796D01*
X152117796Y-166416491D01*
X152075372Y-166426541D01*
X152071922Y-166427140D01*
X152029252Y-166432356D01*
X151971866Y-166436730D01*
X151906849Y-166439818D01*
X151841289Y-166441177D01*
X151825057Y-166441218D01*
X151726744Y-166438741D01*
X151646692Y-166430735D01*
X151581513Y-166416203D01*
X151527817Y-166394149D01*
X151482216Y-166363576D01*
X151441323Y-166323486D01*
X151421202Y-166297259D01*
X151409576Y-166267712D01*
X151406667Y-166227995D01*
X151406808Y-166216026D01*
X151410681Y-166183345D01*
X151423065Y-166156819D01*
X151448230Y-166125971D01*
X151469442Y-166103831D01*
X151495838Y-166081285D01*
X151525555Y-166062917D01*
X151561785Y-166047661D01*
X151607717Y-166034449D01*
X151666544Y-166022214D01*
X151741456Y-166009889D01*
X151835645Y-165996406D01*
X151880957Y-165989396D01*
X151948911Y-165974837D01*
X151998047Y-165958337D01*
X152027614Y-165940439D01*
X152036864Y-165921685D01*
X152025048Y-165902615D01*
X151991416Y-165883771D01*
X151988370Y-165882557D01*
X151942011Y-165870479D01*
X151879361Y-165862279D01*
X151805927Y-165858119D01*
X151727217Y-165858161D01*
X151648739Y-165862569D01*
X151576000Y-165871505D01*
X151572073Y-165872154D01*
X151523257Y-165879861D01*
X151491005Y-165883473D01*
X151470008Y-165882876D01*
X151454954Y-165877954D01*
X151440534Y-165868596D01*
X151439364Y-165867725D01*
X151414847Y-165837351D01*
X151410054Y-165801850D01*
X151425860Y-165767269D01*
X151430406Y-165762813D01*
X151460020Y-165747673D01*
X151507002Y-165734550D01*
X151567306Y-165723750D01*
X151636888Y-165715581D01*
X151711703Y-165710351D01*
X151787706Y-165708367D01*
X151860853Y-165709936D01*
G36*
X151860853Y-165709936D02*
G01*
X151927100Y-165715366D01*
X151982400Y-165724964D01*
X152033283Y-165739825D01*
X152104595Y-165772958D01*
X152155752Y-165815640D01*
X152186575Y-165867705D01*
X152196889Y-165928983D01*
X152195952Y-165960232D01*
X152190160Y-165985029D01*
X152175353Y-166006699D01*
X152147380Y-166034049D01*
X152139402Y-166041378D01*
X152115692Y-166062281D01*
X152093298Y-166079251D01*
X152069265Y-166093205D01*
X152040637Y-166105056D01*
X152004460Y-166115720D01*
X151957780Y-166126111D01*
X151897641Y-166137146D01*
X151821090Y-166149738D01*
X151725171Y-166164804D01*
X151706808Y-166167838D01*
X151644478Y-166181458D01*
X151599260Y-166197192D01*
X151572976Y-166214263D01*
X151567447Y-166231897D01*
X151570068Y-166236168D01*
X151588000Y-166251233D01*
X151616126Y-166267867D01*
X151628926Y-166273857D01*
X151650224Y-166281050D01*
X151676610Y-166285827D01*
X151712454Y-166288646D01*
X151762128Y-166289964D01*
X151830000Y-166290237D01*
X151847785Y-166290164D01*
X151915406Y-166289053D01*
X151980345Y-166286828D01*
X152035970Y-166283762D01*
X152075651Y-166280127D01*
X152111162Y-166276059D01*
X152140415Y-166275276D01*
X152159315Y-166279876D01*
X152174429Y-166290551D01*
X152178085Y-166294144D01*
X152194427Y-166325918D01*
X152193107Y-166361572D01*
X152174150Y-166392190D01*
X152153780Y-166403796D01*
X152117796Y-166416491D01*
X152075372Y-166426541D01*
X152071922Y-166427140D01*
X152029252Y-166432356D01*
X151971866Y-166436730D01*
X151906849Y-166439818D01*
X151841289Y-166441177D01*
X151825057Y-166441218D01*
X151726744Y-166438741D01*
X151646692Y-166430735D01*
X151581513Y-166416203D01*
X151527817Y-166394149D01*
X151482216Y-166363576D01*
X151441323Y-166323486D01*
X151421202Y-166297259D01*
X151409576Y-166267712D01*
X151406667Y-166227995D01*
X151406808Y-166216026D01*
X151410681Y-166183345D01*
X151423065Y-166156819D01*
X151448230Y-166125971D01*
X151469442Y-166103831D01*
X151495838Y-166081285D01*
X151525555Y-166062917D01*
X151561785Y-166047661D01*
X151607717Y-166034449D01*
X151666544Y-166022214D01*
X151741456Y-166009889D01*
X151835645Y-165996406D01*
X151880957Y-165989396D01*
X151948911Y-165974837D01*
X151998047Y-165958337D01*
X152027614Y-165940439D01*
X152036864Y-165921685D01*
X152025048Y-165902615D01*
X151991416Y-165883771D01*
X151988370Y-165882557D01*
X151942011Y-165870479D01*
X151879361Y-165862279D01*
X151805927Y-165858119D01*
X151727217Y-165858161D01*
X151648739Y-165862569D01*
X151576000Y-165871505D01*
X151572073Y-165872154D01*
X151523257Y-165879861D01*
X151491005Y-165883473D01*
X151470008Y-165882876D01*
X151454954Y-165877954D01*
X151440534Y-165868596D01*
X151439364Y-165867725D01*
X151414847Y-165837351D01*
X151410054Y-165801850D01*
X151425860Y-165767269D01*
X151430406Y-165762813D01*
X151460020Y-165747673D01*
X151507002Y-165734550D01*
X151567306Y-165723750D01*
X151636888Y-165715581D01*
X151711703Y-165710351D01*
X151787706Y-165708367D01*
X151860853Y-165709936D01*
G37*
X148008711Y-161402033D02*
X148104268Y-161419523D01*
X148268558Y-161464564D01*
X148422589Y-161527656D01*
X148568509Y-161609915D01*
X148708466Y-161712457D01*
X148844608Y-161836399D01*
X148888473Y-161881661D01*
X149000758Y-162013865D01*
X149093972Y-162151832D01*
X149170719Y-162299750D01*
X149233603Y-162461803D01*
X149237420Y-162473391D01*
X149287507Y-162659392D01*
X149320899Y-162855521D01*
X149337584Y-163057568D01*
X149337551Y-163261325D01*
X149320791Y-163462581D01*
X149287292Y-163657128D01*
X149237044Y-163840756D01*
X149193190Y-163958053D01*
X149115348Y-164120951D01*
X149021828Y-164274866D01*
X148914822Y-164416671D01*
X148796519Y-164543239D01*
X148669111Y-164651441D01*
X148591606Y-164704120D01*
X148464725Y-164773750D01*
X148327243Y-164832468D01*
X148185716Y-164877587D01*
X148046702Y-164906422D01*
X148032597Y-164908106D01*
X147989153Y-164911434D01*
X147931723Y-164914275D01*
X147866122Y-164916373D01*
X147798167Y-164917468D01*
X147671378Y-164915140D01*
X147523673Y-164902136D01*
X147385779Y-164877133D01*
X147252014Y-164839318D01*
X147228562Y-164830889D01*
X147180612Y-164811408D01*
X147124140Y-164786473D01*
X147062379Y-164757722D01*
X146998563Y-164726790D01*
X146935926Y-164695315D01*
X146877703Y-164664934D01*
X146827127Y-164637283D01*
X146787433Y-164613999D01*
X146761854Y-164596718D01*
X146753625Y-164587079D01*
X146755076Y-164583984D01*
X146766250Y-164564079D01*
X146787134Y-164528420D01*
X146816265Y-164479459D01*
X146852181Y-164419646D01*
X146893420Y-164351433D01*
X146938517Y-164277271D01*
X147119785Y-163980008D01*
X147166315Y-164024539D01*
X147257723Y-164102865D01*
X147371334Y-164177439D01*
X147489122Y-164231474D01*
X147609559Y-164264290D01*
X147731117Y-164275211D01*
X147772585Y-164273868D01*
X147890080Y-164255612D01*
X148000089Y-164216617D01*
X148101430Y-164157670D01*
X148192921Y-164079557D01*
X148273380Y-163983064D01*
X148341627Y-163868978D01*
X148357908Y-163834724D01*
X148403982Y-163711240D01*
X148439106Y-163572918D01*
X148463197Y-163423561D01*
X148476173Y-163266973D01*
X148477949Y-163106956D01*
X148468443Y-162947314D01*
X148447572Y-162791850D01*
X148415252Y-162644366D01*
X148371399Y-162508667D01*
X148333982Y-162422076D01*
X148269185Y-162308688D01*
X148193772Y-162215070D01*
X148107418Y-162140959D01*
X148009795Y-162086094D01*
X147900577Y-162050212D01*
X147779439Y-162033051D01*
X147710038Y-162031880D01*
X147587168Y-162046141D01*
X147471664Y-162081241D01*
X147364953Y-162136682D01*
X147268464Y-162211964D01*
X147252720Y-162226440D01*
X147222150Y-162252962D01*
X147199809Y-162270138D01*
X147189691Y-162274787D01*
X147187706Y-162272597D01*
X147173241Y-162253721D01*
X147149400Y-162220397D01*
X147118029Y-162175380D01*
X147080974Y-162121425D01*
X147040083Y-162061285D01*
X146997202Y-161997718D01*
X146954178Y-161933476D01*
X146912857Y-161871315D01*
X146875086Y-161813991D01*
X146842712Y-161764257D01*
X146817582Y-161724868D01*
X146801542Y-161698580D01*
X146796439Y-161688147D01*
X146801050Y-161683941D01*
X146820267Y-161678933D01*
X146829838Y-161676386D01*
X146857809Y-161665249D01*
X146899448Y-161646802D01*
X146950995Y-161622725D01*
X147008690Y-161594699D01*
X147019957Y-161589154D01*
X147197687Y-161509889D01*
X147367490Y-161450385D01*
X147531430Y-161410245D01*
X147691571Y-161389071D01*
X147849977Y-161386466D01*
X148008711Y-161402033D01*
G36*
X148008711Y-161402033D02*
G01*
X148104268Y-161419523D01*
X148268558Y-161464564D01*
X148422589Y-161527656D01*
X148568509Y-161609915D01*
X148708466Y-161712457D01*
X148844608Y-161836399D01*
X148888473Y-161881661D01*
X149000758Y-162013865D01*
X149093972Y-162151832D01*
X149170719Y-162299750D01*
X149233603Y-162461803D01*
X149237420Y-162473391D01*
X149287507Y-162659392D01*
X149320899Y-162855521D01*
X149337584Y-163057568D01*
X149337551Y-163261325D01*
X149320791Y-163462581D01*
X149287292Y-163657128D01*
X149237044Y-163840756D01*
X149193190Y-163958053D01*
X149115348Y-164120951D01*
X149021828Y-164274866D01*
X148914822Y-164416671D01*
X148796519Y-164543239D01*
X148669111Y-164651441D01*
X148591606Y-164704120D01*
X148464725Y-164773750D01*
X148327243Y-164832468D01*
X148185716Y-164877587D01*
X148046702Y-164906422D01*
X148032597Y-164908106D01*
X147989153Y-164911434D01*
X147931723Y-164914275D01*
X147866122Y-164916373D01*
X147798167Y-164917468D01*
X147671378Y-164915140D01*
X147523673Y-164902136D01*
X147385779Y-164877133D01*
X147252014Y-164839318D01*
X147228562Y-164830889D01*
X147180612Y-164811408D01*
X147124140Y-164786473D01*
X147062379Y-164757722D01*
X146998563Y-164726790D01*
X146935926Y-164695315D01*
X146877703Y-164664934D01*
X146827127Y-164637283D01*
X146787433Y-164613999D01*
X146761854Y-164596718D01*
X146753625Y-164587079D01*
X146755076Y-164583984D01*
X146766250Y-164564079D01*
X146787134Y-164528420D01*
X146816265Y-164479459D01*
X146852181Y-164419646D01*
X146893420Y-164351433D01*
X146938517Y-164277271D01*
X147119785Y-163980008D01*
X147166315Y-164024539D01*
X147257723Y-164102865D01*
X147371334Y-164177439D01*
X147489122Y-164231474D01*
X147609559Y-164264290D01*
X147731117Y-164275211D01*
X147772585Y-164273868D01*
X147890080Y-164255612D01*
X148000089Y-164216617D01*
X148101430Y-164157670D01*
X148192921Y-164079557D01*
X148273380Y-163983064D01*
X148341627Y-163868978D01*
X148357908Y-163834724D01*
X148403982Y-163711240D01*
X148439106Y-163572918D01*
X148463197Y-163423561D01*
X148476173Y-163266973D01*
X148477949Y-163106956D01*
X148468443Y-162947314D01*
X148447572Y-162791850D01*
X148415252Y-162644366D01*
X148371399Y-162508667D01*
X148333982Y-162422076D01*
X148269185Y-162308688D01*
X148193772Y-162215070D01*
X148107418Y-162140959D01*
X148009795Y-162086094D01*
X147900577Y-162050212D01*
X147779439Y-162033051D01*
X147710038Y-162031880D01*
X147587168Y-162046141D01*
X147471664Y-162081241D01*
X147364953Y-162136682D01*
X147268464Y-162211964D01*
X147252720Y-162226440D01*
X147222150Y-162252962D01*
X147199809Y-162270138D01*
X147189691Y-162274787D01*
X147187706Y-162272597D01*
X147173241Y-162253721D01*
X147149400Y-162220397D01*
X147118029Y-162175380D01*
X147080974Y-162121425D01*
X147040083Y-162061285D01*
X146997202Y-161997718D01*
X146954178Y-161933476D01*
X146912857Y-161871315D01*
X146875086Y-161813991D01*
X146842712Y-161764257D01*
X146817582Y-161724868D01*
X146801542Y-161698580D01*
X146796439Y-161688147D01*
X146801050Y-161683941D01*
X146820267Y-161678933D01*
X146829838Y-161676386D01*
X146857809Y-161665249D01*
X146899448Y-161646802D01*
X146950995Y-161622725D01*
X147008690Y-161594699D01*
X147019957Y-161589154D01*
X147197687Y-161509889D01*
X147367490Y-161450385D01*
X147531430Y-161410245D01*
X147691571Y-161389071D01*
X147849977Y-161386466D01*
X148008711Y-161402033D01*
G37*
X144205994Y-163682711D02*
X144205268Y-163760158D01*
X144196689Y-163911594D01*
X144177833Y-164048283D01*
X144147837Y-164174276D01*
X144105836Y-164293625D01*
X144050969Y-164410381D01*
X143984167Y-164521179D01*
X143893363Y-164634739D01*
X143789708Y-164730211D01*
X143673887Y-164807073D01*
X143546586Y-164864797D01*
X143408489Y-164902858D01*
X143370793Y-164908666D01*
X143291752Y-164914396D01*
X143203629Y-164914583D01*
X143114236Y-164909539D01*
X143031384Y-164899578D01*
X142962887Y-164885012D01*
X142932035Y-164875364D01*
X142854730Y-164845123D01*
X142777679Y-164807617D01*
X142708200Y-164766614D01*
X142653615Y-164725879D01*
X142630916Y-164706505D01*
X142608201Y-164688662D01*
X142596779Y-164681778D01*
X142595537Y-164683424D01*
X142592728Y-164701205D01*
X142590776Y-164734370D01*
X142590045Y-164777733D01*
X142590045Y-164873689D01*
X141731896Y-164873689D01*
X141766161Y-164812974D01*
X141771355Y-164803868D01*
X141779715Y-164789249D01*
X141787288Y-164775173D01*
X141794112Y-164760540D01*
X141800227Y-164744249D01*
X141805673Y-164725198D01*
X141810487Y-164702286D01*
X141814708Y-164674413D01*
X141818377Y-164640478D01*
X141821531Y-164599379D01*
X141824211Y-164550015D01*
X141826454Y-164491286D01*
X141828299Y-164422090D01*
X141829787Y-164341326D01*
X141830955Y-164247894D01*
X141831844Y-164140692D01*
X141832491Y-164018620D01*
X141832936Y-163880576D01*
X141833218Y-163725459D01*
X141833375Y-163552168D01*
X141833448Y-163359603D01*
X141833474Y-163146662D01*
X141833485Y-163010530D01*
X142635200Y-163010530D01*
X142635200Y-164160721D01*
X142705756Y-164207089D01*
X142746417Y-164230791D01*
X142800546Y-164256639D01*
X142849689Y-164274829D01*
X142913165Y-164290551D01*
X143009331Y-164301541D01*
X143093900Y-164293365D01*
X143167219Y-164265805D01*
X143229637Y-164218642D01*
X143281502Y-164151658D01*
X143323160Y-164064633D01*
X143354962Y-163957350D01*
X143357545Y-163945009D01*
X143366000Y-163883772D01*
X143371663Y-163806692D01*
X143374576Y-163719002D01*
X143374783Y-163625934D01*
X143372330Y-163532720D01*
X143367261Y-163444594D01*
X143359619Y-163366788D01*
X143349448Y-163304533D01*
X143348167Y-163298666D01*
X143319126Y-163188121D01*
X143284610Y-163097575D01*
X143243456Y-163024953D01*
X143194499Y-162968181D01*
X143136574Y-162925184D01*
X143104620Y-162909615D01*
X143031784Y-162890722D01*
X142950443Y-162887465D01*
X142865319Y-162899389D01*
X142781133Y-162926040D01*
X142702608Y-162966962D01*
X142635200Y-163010530D01*
X141833485Y-163010530D01*
X141833493Y-162912245D01*
X141833689Y-161227378D01*
X142739017Y-161227378D01*
X142714585Y-161264067D01*
X142708318Y-161273647D01*
X142682208Y-161319981D01*
X142664469Y-161367102D01*
X142652908Y-161422251D01*
X142645331Y-161492667D01*
X142644839Y-161499650D01*
X142643062Y-161537641D01*
X142641444Y-161591576D01*
X142639999Y-161658703D01*
X142638740Y-161736271D01*
X142637680Y-161821528D01*
X142636829Y-161911724D01*
X142636203Y-162004107D01*
X142635812Y-162095925D01*
X142635670Y-162184427D01*
X142635790Y-162266862D01*
X142636183Y-162340479D01*
X142636862Y-162402526D01*
X142637841Y-162450251D01*
X142639132Y-162480904D01*
X142640747Y-162491733D01*
X142648957Y-162487333D01*
X142670647Y-162472362D01*
X142700014Y-162450448D01*
X142748879Y-162416236D01*
X142837125Y-162369714D01*
X142935916Y-162336046D01*
X143048510Y-162314231D01*
X143178164Y-162303265D01*
X143270670Y-162302219D01*
X143392011Y-162312014D01*
X143502099Y-162336174D01*
X143605389Y-162375785D01*
X143706338Y-162431932D01*
X143751503Y-162462883D01*
X143856911Y-162554115D01*
X143948538Y-162663106D01*
X144026332Y-162789726D01*
X144090241Y-162933845D01*
X144140214Y-163095332D01*
X144176198Y-163274059D01*
X144198143Y-163469895D01*
X144203900Y-163625934D01*
X144205994Y-163682711D01*
G36*
X144205994Y-163682711D02*
G01*
X144205268Y-163760158D01*
X144196689Y-163911594D01*
X144177833Y-164048283D01*
X144147837Y-164174276D01*
X144105836Y-164293625D01*
X144050969Y-164410381D01*
X143984167Y-164521179D01*
X143893363Y-164634739D01*
X143789708Y-164730211D01*
X143673887Y-164807073D01*
X143546586Y-164864797D01*
X143408489Y-164902858D01*
X143370793Y-164908666D01*
X143291752Y-164914396D01*
X143203629Y-164914583D01*
X143114236Y-164909539D01*
X143031384Y-164899578D01*
X142962887Y-164885012D01*
X142932035Y-164875364D01*
X142854730Y-164845123D01*
X142777679Y-164807617D01*
X142708200Y-164766614D01*
X142653615Y-164725879D01*
X142630916Y-164706505D01*
X142608201Y-164688662D01*
X142596779Y-164681778D01*
X142595537Y-164683424D01*
X142592728Y-164701205D01*
X142590776Y-164734370D01*
X142590045Y-164777733D01*
X142590045Y-164873689D01*
X141731896Y-164873689D01*
X141766161Y-164812974D01*
X141771355Y-164803868D01*
X141779715Y-164789249D01*
X141787288Y-164775173D01*
X141794112Y-164760540D01*
X141800227Y-164744249D01*
X141805673Y-164725198D01*
X141810487Y-164702286D01*
X141814708Y-164674413D01*
X141818377Y-164640478D01*
X141821531Y-164599379D01*
X141824211Y-164550015D01*
X141826454Y-164491286D01*
X141828299Y-164422090D01*
X141829787Y-164341326D01*
X141830955Y-164247894D01*
X141831844Y-164140692D01*
X141832491Y-164018620D01*
X141832936Y-163880576D01*
X141833218Y-163725459D01*
X141833375Y-163552168D01*
X141833448Y-163359603D01*
X141833474Y-163146662D01*
X141833485Y-163010530D01*
X142635200Y-163010530D01*
X142635200Y-164160721D01*
X142705756Y-164207089D01*
X142746417Y-164230791D01*
X142800546Y-164256639D01*
X142849689Y-164274829D01*
X142913165Y-164290551D01*
X143009331Y-164301541D01*
X143093900Y-164293365D01*
X143167219Y-164265805D01*
X143229637Y-164218642D01*
X143281502Y-164151658D01*
X143323160Y-164064633D01*
X143354962Y-163957350D01*
X143357545Y-163945009D01*
X143366000Y-163883772D01*
X143371663Y-163806692D01*
X143374576Y-163719002D01*
X143374783Y-163625934D01*
X143372330Y-163532720D01*
X143367261Y-163444594D01*
X143359619Y-163366788D01*
X143349448Y-163304533D01*
X143348167Y-163298666D01*
X143319126Y-163188121D01*
X143284610Y-163097575D01*
X143243456Y-163024953D01*
X143194499Y-162968181D01*
X143136574Y-162925184D01*
X143104620Y-162909615D01*
X143031784Y-162890722D01*
X142950443Y-162887465D01*
X142865319Y-162899389D01*
X142781133Y-162926040D01*
X142702608Y-162966962D01*
X142635200Y-163010530D01*
X141833485Y-163010530D01*
X141833493Y-162912245D01*
X141833689Y-161227378D01*
X142739017Y-161227378D01*
X142714585Y-161264067D01*
X142708318Y-161273647D01*
X142682208Y-161319981D01*
X142664469Y-161367102D01*
X142652908Y-161422251D01*
X142645331Y-161492667D01*
X142644839Y-161499650D01*
X142643062Y-161537641D01*
X142641444Y-161591576D01*
X142639999Y-161658703D01*
X142638740Y-161736271D01*
X142637680Y-161821528D01*
X142636829Y-161911724D01*
X142636203Y-162004107D01*
X142635812Y-162095925D01*
X142635670Y-162184427D01*
X142635790Y-162266862D01*
X142636183Y-162340479D01*
X142636862Y-162402526D01*
X142637841Y-162450251D01*
X142639132Y-162480904D01*
X142640747Y-162491733D01*
X142648957Y-162487333D01*
X142670647Y-162472362D01*
X142700014Y-162450448D01*
X142748879Y-162416236D01*
X142837125Y-162369714D01*
X142935916Y-162336046D01*
X143048510Y-162314231D01*
X143178164Y-162303265D01*
X143270670Y-162302219D01*
X143392011Y-162312014D01*
X143502099Y-162336174D01*
X143605389Y-162375785D01*
X143706338Y-162431932D01*
X143751503Y-162462883D01*
X143856911Y-162554115D01*
X143948538Y-162663106D01*
X144026332Y-162789726D01*
X144090241Y-162933845D01*
X144140214Y-163095332D01*
X144176198Y-163274059D01*
X144198143Y-163469895D01*
X144203900Y-163625934D01*
X144205994Y-163682711D01*
G37*
X146747755Y-164083467D02*
X146747261Y-164117363D01*
X146743632Y-164192202D01*
X146736022Y-164254401D01*
X146723688Y-164310984D01*
X146679313Y-164437076D01*
X146616400Y-164551679D01*
X146536238Y-164652568D01*
X146439740Y-164738924D01*
X146327822Y-164809932D01*
X146201397Y-164864776D01*
X146061378Y-164902638D01*
X146025149Y-164908351D01*
X145946155Y-164914313D01*
X145857841Y-164914646D01*
X145768075Y-164909659D01*
X145684722Y-164899666D01*
X145615651Y-164884978D01*
X145529187Y-164854749D01*
X145419286Y-164800057D01*
X145321956Y-164732543D01*
X145259867Y-164681556D01*
X145256605Y-164777622D01*
X145253343Y-164873689D01*
X144830450Y-164873689D01*
X144819543Y-164873686D01*
X144725056Y-164873380D01*
X144638331Y-164872616D01*
X144561837Y-164871451D01*
X144498043Y-164869942D01*
X144449418Y-164868147D01*
X144418433Y-164866121D01*
X144407556Y-164863922D01*
X144407578Y-164863463D01*
X144414614Y-164847910D01*
X144430434Y-164825071D01*
X144434734Y-164819638D01*
X144445777Y-164805606D01*
X144455311Y-164792186D01*
X144463461Y-164777722D01*
X144470352Y-164760556D01*
X144476111Y-164739034D01*
X144480862Y-164711498D01*
X144484731Y-164676292D01*
X144487844Y-164631760D01*
X144490325Y-164576246D01*
X144492300Y-164508093D01*
X144493894Y-164425645D01*
X144495234Y-164327246D01*
X144496444Y-164211239D01*
X144497649Y-164075968D01*
X144498595Y-163964586D01*
X145299378Y-163964586D01*
X145299378Y-164160462D01*
X145344048Y-164216973D01*
X145356785Y-164232212D01*
X145403604Y-164274844D01*
X145464255Y-164310672D01*
X145474897Y-164315850D01*
X145513676Y-164332745D01*
X145548692Y-164342909D01*
X145588722Y-164348325D01*
X145642541Y-164350978D01*
X145660648Y-164351383D01*
X145736011Y-164348540D01*
X145796743Y-164336620D01*
X145848452Y-164314037D01*
X145896746Y-164279211D01*
X145901803Y-164274798D01*
X145950272Y-164219160D01*
X145978459Y-164155333D01*
X145987752Y-164080282D01*
X145980520Y-164008693D01*
X145955796Y-163945645D01*
X145911249Y-163887758D01*
X145856319Y-163840808D01*
X145783894Y-163800961D01*
X145697340Y-163773263D01*
X145594670Y-163757096D01*
X145473894Y-163751842D01*
X145465007Y-163751857D01*
X145409660Y-163752655D01*
X145362736Y-163754488D01*
X145328953Y-163757111D01*
X145313028Y-163760274D01*
X145308943Y-163766741D01*
X145304572Y-163788875D01*
X145301604Y-163827988D01*
X145299914Y-163885939D01*
X145299378Y-163964586D01*
X144498595Y-163964586D01*
X144498975Y-163919778D01*
X144500228Y-163777012D01*
X144501651Y-163631942D01*
X144503176Y-163506027D01*
X144504933Y-163397436D01*
X144507051Y-163304334D01*
X144509660Y-163224891D01*
X144512890Y-163157273D01*
X144516869Y-163099649D01*
X144521728Y-163050185D01*
X144527597Y-163007050D01*
X144534604Y-162968410D01*
X144542880Y-162932434D01*
X144552554Y-162897289D01*
X144563756Y-162861142D01*
X144576616Y-162822161D01*
X144592090Y-162779091D01*
X144634994Y-162686871D01*
X144688735Y-162607099D01*
X144757576Y-162532965D01*
X144835185Y-162469405D01*
X144939761Y-162407725D01*
X145059244Y-162360202D01*
X145194508Y-162326567D01*
X145346426Y-162306552D01*
X145515872Y-162299889D01*
X145573890Y-162300287D01*
X145639398Y-162302335D01*
X145700693Y-162306704D01*
X145762097Y-162314035D01*
X145827932Y-162324969D01*
X145902520Y-162340147D01*
X145990184Y-162360209D01*
X146095245Y-162385797D01*
X146123806Y-162392820D01*
X146199054Y-162410776D01*
X146269388Y-162426820D01*
X146330567Y-162440028D01*
X146378354Y-162449474D01*
X146408511Y-162454231D01*
X146436783Y-162457910D01*
X146463060Y-162463187D01*
X146473059Y-162467942D01*
X146469952Y-162476781D01*
X146459194Y-162504072D01*
X146441864Y-162546906D01*
X146419126Y-162602425D01*
X146392147Y-162667772D01*
X146362090Y-162740089D01*
X146355493Y-162755879D01*
X146316907Y-162846484D01*
X146285768Y-162916217D01*
X146261917Y-162965405D01*
X146245198Y-162994374D01*
X146235454Y-163003452D01*
X146227766Y-163001405D01*
X146201415Y-162991760D01*
X146162982Y-162976190D01*
X146117822Y-162956815D01*
X146023293Y-162918814D01*
X145886480Y-162877780D01*
X145745289Y-162852612D01*
X145707314Y-162848611D01*
X145604059Y-162846447D01*
X145516952Y-162859622D01*
X145445129Y-162888756D01*
X145387731Y-162934466D01*
X145343896Y-162997372D01*
X145312762Y-163078092D01*
X145293470Y-163177245D01*
X145286050Y-163236224D01*
X145447936Y-163229445D01*
X145574495Y-163227813D01*
X145725951Y-163234194D01*
X145874396Y-163248777D01*
X146010578Y-163270882D01*
X146075245Y-163285821D01*
X146207490Y-163328741D01*
X146329762Y-163385340D01*
X146439685Y-163454017D01*
X146534883Y-163533170D01*
X146612980Y-163621196D01*
X146671599Y-163716493D01*
X146695595Y-163768864D01*
X146721232Y-163839590D01*
X146737478Y-163910812D01*
X146745822Y-163989712D01*
X146747690Y-164080282D01*
X146747755Y-164083467D01*
G36*
X146747755Y-164083467D02*
G01*
X146747261Y-164117363D01*
X146743632Y-164192202D01*
X146736022Y-164254401D01*
X146723688Y-164310984D01*
X146679313Y-164437076D01*
X146616400Y-164551679D01*
X146536238Y-164652568D01*
X146439740Y-164738924D01*
X146327822Y-164809932D01*
X146201397Y-164864776D01*
X146061378Y-164902638D01*
X146025149Y-164908351D01*
X145946155Y-164914313D01*
X145857841Y-164914646D01*
X145768075Y-164909659D01*
X145684722Y-164899666D01*
X145615651Y-164884978D01*
X145529187Y-164854749D01*
X145419286Y-164800057D01*
X145321956Y-164732543D01*
X145259867Y-164681556D01*
X145256605Y-164777622D01*
X145253343Y-164873689D01*
X144830450Y-164873689D01*
X144819543Y-164873686D01*
X144725056Y-164873380D01*
X144638331Y-164872616D01*
X144561837Y-164871451D01*
X144498043Y-164869942D01*
X144449418Y-164868147D01*
X144418433Y-164866121D01*
X144407556Y-164863922D01*
X144407578Y-164863463D01*
X144414614Y-164847910D01*
X144430434Y-164825071D01*
X144434734Y-164819638D01*
X144445777Y-164805606D01*
X144455311Y-164792186D01*
X144463461Y-164777722D01*
X144470352Y-164760556D01*
X144476111Y-164739034D01*
X144480862Y-164711498D01*
X144484731Y-164676292D01*
X144487844Y-164631760D01*
X144490325Y-164576246D01*
X144492300Y-164508093D01*
X144493894Y-164425645D01*
X144495234Y-164327246D01*
X144496444Y-164211239D01*
X144497649Y-164075968D01*
X144498595Y-163964586D01*
X145299378Y-163964586D01*
X145299378Y-164160462D01*
X145344048Y-164216973D01*
X145356785Y-164232212D01*
X145403604Y-164274844D01*
X145464255Y-164310672D01*
X145474897Y-164315850D01*
X145513676Y-164332745D01*
X145548692Y-164342909D01*
X145588722Y-164348325D01*
X145642541Y-164350978D01*
X145660648Y-164351383D01*
X145736011Y-164348540D01*
X145796743Y-164336620D01*
X145848452Y-164314037D01*
X145896746Y-164279211D01*
X145901803Y-164274798D01*
X145950272Y-164219160D01*
X145978459Y-164155333D01*
X145987752Y-164080282D01*
X145980520Y-164008693D01*
X145955796Y-163945645D01*
X145911249Y-163887758D01*
X145856319Y-163840808D01*
X145783894Y-163800961D01*
X145697340Y-163773263D01*
X145594670Y-163757096D01*
X145473894Y-163751842D01*
X145465007Y-163751857D01*
X145409660Y-163752655D01*
X145362736Y-163754488D01*
X145328953Y-163757111D01*
X145313028Y-163760274D01*
X145308943Y-163766741D01*
X145304572Y-163788875D01*
X145301604Y-163827988D01*
X145299914Y-163885939D01*
X145299378Y-163964586D01*
X144498595Y-163964586D01*
X144498975Y-163919778D01*
X144500228Y-163777012D01*
X144501651Y-163631942D01*
X144503176Y-163506027D01*
X144504933Y-163397436D01*
X144507051Y-163304334D01*
X144509660Y-163224891D01*
X144512890Y-163157273D01*
X144516869Y-163099649D01*
X144521728Y-163050185D01*
X144527597Y-163007050D01*
X144534604Y-162968410D01*
X144542880Y-162932434D01*
X144552554Y-162897289D01*
X144563756Y-162861142D01*
X144576616Y-162822161D01*
X144592090Y-162779091D01*
X144634994Y-162686871D01*
X144688735Y-162607099D01*
X144757576Y-162532965D01*
X144835185Y-162469405D01*
X144939761Y-162407725D01*
X145059244Y-162360202D01*
X145194508Y-162326567D01*
X145346426Y-162306552D01*
X145515872Y-162299889D01*
X145573890Y-162300287D01*
X145639398Y-162302335D01*
X145700693Y-162306704D01*
X145762097Y-162314035D01*
X145827932Y-162324969D01*
X145902520Y-162340147D01*
X145990184Y-162360209D01*
X146095245Y-162385797D01*
X146123806Y-162392820D01*
X146199054Y-162410776D01*
X146269388Y-162426820D01*
X146330567Y-162440028D01*
X146378354Y-162449474D01*
X146408511Y-162454231D01*
X146436783Y-162457910D01*
X146463060Y-162463187D01*
X146473059Y-162467942D01*
X146469952Y-162476781D01*
X146459194Y-162504072D01*
X146441864Y-162546906D01*
X146419126Y-162602425D01*
X146392147Y-162667772D01*
X146362090Y-162740089D01*
X146355493Y-162755879D01*
X146316907Y-162846484D01*
X146285768Y-162916217D01*
X146261917Y-162965405D01*
X146245198Y-162994374D01*
X146235454Y-163003452D01*
X146227766Y-163001405D01*
X146201415Y-162991760D01*
X146162982Y-162976190D01*
X146117822Y-162956815D01*
X146023293Y-162918814D01*
X145886480Y-162877780D01*
X145745289Y-162852612D01*
X145707314Y-162848611D01*
X145604059Y-162846447D01*
X145516952Y-162859622D01*
X145445129Y-162888756D01*
X145387731Y-162934466D01*
X145343896Y-162997372D01*
X145312762Y-163078092D01*
X145293470Y-163177245D01*
X145286050Y-163236224D01*
X145447936Y-163229445D01*
X145574495Y-163227813D01*
X145725951Y-163234194D01*
X145874396Y-163248777D01*
X146010578Y-163270882D01*
X146075245Y-163285821D01*
X146207490Y-163328741D01*
X146329762Y-163385340D01*
X146439685Y-163454017D01*
X146534883Y-163533170D01*
X146612980Y-163621196D01*
X146671599Y-163716493D01*
X146695595Y-163768864D01*
X146721232Y-163839590D01*
X146737478Y-163910812D01*
X146745822Y-163989712D01*
X146747690Y-164080282D01*
X146747755Y-164083467D01*
G37*
X154295614Y-161551792D02*
X154296059Y-161683011D01*
X154296362Y-161830216D01*
X154296548Y-161994349D01*
X154296642Y-162176352D01*
X154296671Y-162377165D01*
X154296661Y-162597732D01*
X154296636Y-162838992D01*
X154296622Y-163101889D01*
X154296622Y-163144040D01*
X154296646Y-163404668D01*
X154296685Y-163643796D01*
X154296708Y-163862360D01*
X154296687Y-164061295D01*
X154296593Y-164241535D01*
X154296395Y-164404015D01*
X154296063Y-164549670D01*
X154295569Y-164679434D01*
X154294883Y-164794243D01*
X154293976Y-164895030D01*
X154292817Y-164982730D01*
X154291378Y-165058279D01*
X154289629Y-165122611D01*
X154287540Y-165176661D01*
X154285083Y-165221363D01*
X154282227Y-165257652D01*
X154278943Y-165286463D01*
X154275202Y-165308731D01*
X154270974Y-165325390D01*
X154266229Y-165337375D01*
X154260939Y-165345621D01*
X154255073Y-165351062D01*
X154248602Y-165354634D01*
X154241497Y-165357270D01*
X154233728Y-165359906D01*
X154225266Y-165363477D01*
X154220908Y-165365145D01*
X154212395Y-165367111D01*
X154199694Y-165368911D01*
X154181885Y-165370555D01*
X154158049Y-165372047D01*
X154127266Y-165373397D01*
X154088617Y-165374611D01*
X154041182Y-165375697D01*
X153984043Y-165376661D01*
X153916279Y-165377511D01*
X153836971Y-165378253D01*
X153745199Y-165378897D01*
X153640044Y-165379447D01*
X153520587Y-165379913D01*
X153385908Y-165380300D01*
X153235088Y-165380616D01*
X153067206Y-165380869D01*
X152881345Y-165381066D01*
X152676583Y-165381213D01*
X152452002Y-165381318D01*
X152206682Y-165381389D01*
X151939704Y-165381432D01*
X151901321Y-165381437D01*
X151635922Y-165381480D01*
X151392050Y-165381525D01*
X151168783Y-165381548D01*
X150965196Y-165381524D01*
X150780367Y-165381430D01*
X150613373Y-165381243D01*
X150463290Y-165380939D01*
X150329196Y-165380494D01*
X150210166Y-165379885D01*
X150105279Y-165379089D01*
X150013610Y-165378080D01*
X149934237Y-165376837D01*
X149866237Y-165375335D01*
X149808686Y-165373551D01*
X149760662Y-165371461D01*
X149721240Y-165369042D01*
X149689499Y-165366270D01*
X149664514Y-165363121D01*
X149645364Y-165359572D01*
X149631123Y-165355598D01*
X149620871Y-165351178D01*
X149613682Y-165346286D01*
X149608635Y-165340900D01*
X149604805Y-165334996D01*
X149601271Y-165328549D01*
X149597108Y-165321537D01*
X149596025Y-165319687D01*
X149593813Y-165314180D01*
X149591786Y-165305868D01*
X149589938Y-165293809D01*
X149588261Y-165277063D01*
X149586745Y-165254687D01*
X149585383Y-165225740D01*
X149584167Y-165189280D01*
X149583089Y-165144367D01*
X149582140Y-165090057D01*
X149581312Y-165025410D01*
X149580597Y-164949484D01*
X149579987Y-164861338D01*
X149579942Y-164852493D01*
X149871378Y-164852493D01*
X149875260Y-164853765D01*
X149898520Y-164855791D01*
X149940874Y-164857626D01*
X150000132Y-164859227D01*
X150074107Y-164860549D01*
X150160610Y-164861548D01*
X150257452Y-164862180D01*
X150362445Y-164862400D01*
X151060651Y-164862400D01*
X152215090Y-164862400D01*
X152214456Y-164786200D01*
X152215574Y-164744160D01*
X152221304Y-164708334D01*
X152233890Y-164670772D01*
X152255568Y-164622577D01*
X152258789Y-164615897D01*
X152284188Y-164566359D01*
X152310996Y-164518369D01*
X152333917Y-164481466D01*
X152338485Y-164474834D01*
X152360516Y-164443593D01*
X152392693Y-164398654D01*
X152433457Y-164342147D01*
X152481245Y-164276204D01*
X152534498Y-164202957D01*
X152591655Y-164124536D01*
X152651155Y-164043072D01*
X152711437Y-163960698D01*
X152770940Y-163879544D01*
X152828105Y-163801742D01*
X152881370Y-163729423D01*
X152929174Y-163664718D01*
X152969957Y-163609759D01*
X153002158Y-163566676D01*
X153024216Y-163537602D01*
X153034571Y-163524667D01*
X153039044Y-163520351D01*
X153043236Y-163518312D01*
X153046643Y-163520926D01*
X153049325Y-163529986D01*
X153051341Y-163547285D01*
X153052748Y-163574614D01*
X153053605Y-163613765D01*
X153053970Y-163666533D01*
X153053903Y-163734707D01*
X153053460Y-163820082D01*
X153052702Y-163924449D01*
X153051685Y-164049600D01*
X153051308Y-164094300D01*
X153050169Y-164215395D01*
X153048972Y-164316688D01*
X153047636Y-164400262D01*
X153046077Y-164468204D01*
X153044215Y-164522599D01*
X153041966Y-164565532D01*
X153039248Y-164599089D01*
X153035979Y-164625355D01*
X153032078Y-164646416D01*
X153027461Y-164664357D01*
X153019192Y-164690770D01*
X152995583Y-164752772D01*
X152969685Y-164805573D01*
X152944535Y-164842645D01*
X152943339Y-164844075D01*
X152941168Y-164848424D01*
X152943328Y-164852026D01*
X152951644Y-164854951D01*
X152967940Y-164857269D01*
X152994041Y-164859051D01*
X153031771Y-164860367D01*
X153082956Y-164861286D01*
X153149420Y-164861878D01*
X153232987Y-164862215D01*
X153335483Y-164862365D01*
X153458732Y-164862400D01*
X153990296Y-164862400D01*
X153951523Y-164804783D01*
X153945432Y-164795893D01*
X153934976Y-164781069D01*
X153925579Y-164767422D01*
X153917183Y-164753765D01*
X153909733Y-164738911D01*
X153903173Y-164721670D01*
X153897446Y-164700855D01*
X153892495Y-164675280D01*
X153888266Y-164643755D01*
X153884701Y-164605093D01*
X153881744Y-164558107D01*
X153879340Y-164501608D01*
X153877431Y-164434409D01*
X153875962Y-164355322D01*
X153874876Y-164263160D01*
X153874118Y-164156734D01*
X153873630Y-164034857D01*
X153873358Y-163896341D01*
X153873243Y-163739999D01*
X153873231Y-163564642D01*
X153873265Y-163369082D01*
X153873289Y-163152133D01*
X153873280Y-163029513D01*
X153873243Y-162824447D01*
X153873227Y-162640116D01*
X153873288Y-162475334D01*
X153873484Y-162328916D01*
X153873870Y-162199674D01*
X153874505Y-162086422D01*
X153875444Y-161987975D01*
X153876745Y-161903144D01*
X153878464Y-161830744D01*
X153880659Y-161769589D01*
X153883385Y-161718492D01*
X153886701Y-161676267D01*
X153890662Y-161641727D01*
X153895325Y-161613686D01*
X153900747Y-161590958D01*
X153906986Y-161572356D01*
X153914097Y-161556693D01*
X153922138Y-161542784D01*
X153931166Y-161529441D01*
X153941236Y-161515479D01*
X153952407Y-161499711D01*
X153992197Y-161441867D01*
X152932314Y-161441867D01*
X152970311Y-161504966D01*
X152984993Y-161530005D01*
X152999531Y-161557586D01*
X153011627Y-161585700D01*
X153021532Y-161616551D01*
X153029494Y-161652344D01*
X153035761Y-161695283D01*
X153040582Y-161747574D01*
X153044206Y-161811419D01*
X153046881Y-161889025D01*
X153048857Y-161982594D01*
X153050382Y-162094333D01*
X153051704Y-162226445D01*
X153052613Y-162346434D01*
X153053020Y-162463063D01*
X153052767Y-162558531D01*
X153051857Y-162632556D01*
X153050293Y-162684855D01*
X153048079Y-162715149D01*
X153045220Y-162723156D01*
X153042161Y-162719858D01*
X153024006Y-162698408D01*
X152994275Y-162661889D01*
X152954639Y-162612442D01*
X152906771Y-162552207D01*
X152852343Y-162483327D01*
X152793027Y-162407943D01*
X152730495Y-162328196D01*
X152666421Y-162246228D01*
X152602475Y-162164180D01*
X152540331Y-162084194D01*
X152481661Y-162008411D01*
X152428137Y-161938973D01*
X152381430Y-161878021D01*
X152343214Y-161827696D01*
X152315161Y-161790140D01*
X152298943Y-161767495D01*
X152253635Y-161695212D01*
X152213661Y-161615463D01*
X152192130Y-161547188D01*
X152188827Y-161489844D01*
X152194116Y-161441867D01*
X151062356Y-161442117D01*
X151101867Y-161472722D01*
X151111248Y-161480089D01*
X151174183Y-161534438D01*
X151242997Y-161602259D01*
X151319596Y-161685516D01*
X151405888Y-161786178D01*
X151423052Y-161806847D01*
X151463833Y-161856409D01*
X151513588Y-161917326D01*
X151570955Y-161987898D01*
X151634569Y-162066424D01*
X151703069Y-162151204D01*
X151775090Y-162240537D01*
X151849270Y-162332722D01*
X151864517Y-162351702D01*
X151924246Y-162426060D01*
X151998653Y-162518848D01*
X152071131Y-162609388D01*
X152140314Y-162695978D01*
X152204841Y-162776918D01*
X152263347Y-162850506D01*
X152314470Y-162915044D01*
X152356847Y-162968829D01*
X152389115Y-163010162D01*
X152409910Y-163037342D01*
X152417869Y-163048668D01*
X152416111Y-163052771D01*
X152403230Y-163073334D01*
X152378885Y-163109561D01*
X152344247Y-163159824D01*
X152300486Y-163222492D01*
X152248775Y-163295936D01*
X152190284Y-163378527D01*
X152126184Y-163468636D01*
X152057646Y-163564631D01*
X151985843Y-163664885D01*
X151911944Y-163767768D01*
X151837121Y-163871650D01*
X151762545Y-163974901D01*
X151689387Y-164075892D01*
X151618819Y-164172994D01*
X151552011Y-164264577D01*
X151490135Y-164349011D01*
X151434361Y-164424667D01*
X151385862Y-164489916D01*
X151345807Y-164543128D01*
X151315369Y-164582673D01*
X151294944Y-164608026D01*
X151248899Y-164662295D01*
X151198612Y-164718775D01*
X151151815Y-164768669D01*
X151060651Y-164862400D01*
X150362445Y-164862400D01*
X150431356Y-164862349D01*
X150529607Y-164862091D01*
X150619030Y-164861637D01*
X150697333Y-164861010D01*
X150762223Y-164860235D01*
X150811411Y-164859335D01*
X150842604Y-164858334D01*
X150853511Y-164857257D01*
X150852322Y-164854037D01*
X150842176Y-164836452D01*
X150825040Y-164810158D01*
X150816540Y-164797691D01*
X150807329Y-164783622D01*
X150799233Y-164769351D01*
X150792185Y-164753479D01*
X150786117Y-164734609D01*
X150780961Y-164711341D01*
X150776651Y-164682278D01*
X150773119Y-164646021D01*
X150770297Y-164601170D01*
X150768118Y-164546328D01*
X150766514Y-164480097D01*
X150765419Y-164401077D01*
X150764765Y-164307871D01*
X150764484Y-164199079D01*
X150764509Y-164073303D01*
X150764772Y-163929145D01*
X150765206Y-163765207D01*
X150765745Y-163580089D01*
X150766279Y-163401232D01*
X150766805Y-163242374D01*
X150767350Y-163103316D01*
X150767945Y-162982665D01*
X150768619Y-162879028D01*
X150769403Y-162791011D01*
X150770326Y-162717223D01*
X150771419Y-162656269D01*
X150772712Y-162606757D01*
X150774235Y-162567293D01*
X150776019Y-162536484D01*
X150778092Y-162512938D01*
X150780486Y-162495260D01*
X150783230Y-162482059D01*
X150786356Y-162471940D01*
X150789892Y-162463511D01*
X150793791Y-162455375D01*
X150813438Y-162418544D01*
X150832225Y-162388391D01*
X150833272Y-162386908D01*
X150847602Y-162364659D01*
X150853511Y-162351702D01*
X150852504Y-162351249D01*
X150835305Y-162349803D01*
X150798656Y-162348480D01*
X150744962Y-162347316D01*
X150676630Y-162346347D01*
X150596064Y-162345611D01*
X150505670Y-162345142D01*
X150407853Y-162344978D01*
X149962195Y-162344978D01*
X149959120Y-163521845D01*
X149956045Y-164698711D01*
X149929407Y-164757622D01*
X149917485Y-164782183D01*
X149900246Y-164812434D01*
X149887074Y-164829560D01*
X149879076Y-164837591D01*
X149871378Y-164852493D01*
X149579942Y-164852493D01*
X149579474Y-164760029D01*
X149579050Y-164644617D01*
X149578706Y-164514160D01*
X149578434Y-164367716D01*
X149578227Y-164204344D01*
X149578076Y-164023101D01*
X149577972Y-163823048D01*
X149577908Y-163603241D01*
X149577876Y-163362739D01*
X149577867Y-163100602D01*
X149577867Y-160909031D01*
X149616249Y-160870649D01*
X149643355Y-160846911D01*
X149670253Y-160835111D01*
X149706560Y-160832267D01*
X149758489Y-160832267D01*
X149758489Y-160920206D01*
X149760427Y-160970102D01*
X149779199Y-161080523D01*
X149816217Y-161181987D01*
X149869369Y-161273152D01*
X149936546Y-161352673D01*
X150015638Y-161419205D01*
X150104534Y-161471406D01*
X150201125Y-161507930D01*
X150303300Y-161527434D01*
X150408950Y-161528573D01*
X150515964Y-161510005D01*
X150622232Y-161470384D01*
X150719219Y-161412516D01*
X150804293Y-161337684D01*
X150873015Y-161249615D01*
X150923918Y-161150616D01*
X150955535Y-161042993D01*
X150966400Y-160929054D01*
X150966400Y-160832267D01*
X152586753Y-160832267D01*
X152797897Y-160832280D01*
X153002020Y-160832330D01*
X153185686Y-160832430D01*
X153349991Y-160832592D01*
X153496029Y-160832829D01*
X153624894Y-160833153D01*
X153737683Y-160833575D01*
X153835488Y-160834109D01*
X153919404Y-160834767D01*
X153990527Y-160835561D01*
X154049950Y-160836504D01*
X154098768Y-160837608D01*
X154138077Y-160838884D01*
X154168969Y-160840347D01*
X154192541Y-160842007D01*
X154209886Y-160843878D01*
X154222099Y-160845972D01*
X154230275Y-160848300D01*
X154235508Y-160850876D01*
X154241504Y-160854445D01*
X154248279Y-160857978D01*
X154254478Y-160861488D01*
X154260126Y-160865918D01*
X154265247Y-160872208D01*
X154269869Y-160881301D01*
X154274015Y-160894139D01*
X154277713Y-160911662D01*
X154280987Y-160934813D01*
X154283863Y-160964534D01*
X154286367Y-161001765D01*
X154288524Y-161047449D01*
X154290360Y-161102527D01*
X154291900Y-161167941D01*
X154293170Y-161244633D01*
X154294195Y-161333544D01*
X154295001Y-161435617D01*
X154295034Y-161441867D01*
X154295614Y-161551792D01*
G36*
X154295614Y-161551792D02*
G01*
X154296059Y-161683011D01*
X154296362Y-161830216D01*
X154296548Y-161994349D01*
X154296642Y-162176352D01*
X154296671Y-162377165D01*
X154296661Y-162597732D01*
X154296636Y-162838992D01*
X154296622Y-163101889D01*
X154296622Y-163144040D01*
X154296646Y-163404668D01*
X154296685Y-163643796D01*
X154296708Y-163862360D01*
X154296687Y-164061295D01*
X154296593Y-164241535D01*
X154296395Y-164404015D01*
X154296063Y-164549670D01*
X154295569Y-164679434D01*
X154294883Y-164794243D01*
X154293976Y-164895030D01*
X154292817Y-164982730D01*
X154291378Y-165058279D01*
X154289629Y-165122611D01*
X154287540Y-165176661D01*
X154285083Y-165221363D01*
X154282227Y-165257652D01*
X154278943Y-165286463D01*
X154275202Y-165308731D01*
X154270974Y-165325390D01*
X154266229Y-165337375D01*
X154260939Y-165345621D01*
X154255073Y-165351062D01*
X154248602Y-165354634D01*
X154241497Y-165357270D01*
X154233728Y-165359906D01*
X154225266Y-165363477D01*
X154220908Y-165365145D01*
X154212395Y-165367111D01*
X154199694Y-165368911D01*
X154181885Y-165370555D01*
X154158049Y-165372047D01*
X154127266Y-165373397D01*
X154088617Y-165374611D01*
X154041182Y-165375697D01*
X153984043Y-165376661D01*
X153916279Y-165377511D01*
X153836971Y-165378253D01*
X153745199Y-165378897D01*
X153640044Y-165379447D01*
X153520587Y-165379913D01*
X153385908Y-165380300D01*
X153235088Y-165380616D01*
X153067206Y-165380869D01*
X152881345Y-165381066D01*
X152676583Y-165381213D01*
X152452002Y-165381318D01*
X152206682Y-165381389D01*
X151939704Y-165381432D01*
X151901321Y-165381437D01*
X151635922Y-165381480D01*
X151392050Y-165381525D01*
X151168783Y-165381548D01*
X150965196Y-165381524D01*
X150780367Y-165381430D01*
X150613373Y-165381243D01*
X150463290Y-165380939D01*
X150329196Y-165380494D01*
X150210166Y-165379885D01*
X150105279Y-165379089D01*
X150013610Y-165378080D01*
X149934237Y-165376837D01*
X149866237Y-165375335D01*
X149808686Y-165373551D01*
X149760662Y-165371461D01*
X149721240Y-165369042D01*
X149689499Y-165366270D01*
X149664514Y-165363121D01*
X149645364Y-165359572D01*
X149631123Y-165355598D01*
X149620871Y-165351178D01*
X149613682Y-165346286D01*
X149608635Y-165340900D01*
X149604805Y-165334996D01*
X149601271Y-165328549D01*
X149597108Y-165321537D01*
X149596025Y-165319687D01*
X149593813Y-165314180D01*
X149591786Y-165305868D01*
X149589938Y-165293809D01*
X149588261Y-165277063D01*
X149586745Y-165254687D01*
X149585383Y-165225740D01*
X149584167Y-165189280D01*
X149583089Y-165144367D01*
X149582140Y-165090057D01*
X149581312Y-165025410D01*
X149580597Y-164949484D01*
X149579987Y-164861338D01*
X149579942Y-164852493D01*
X149871378Y-164852493D01*
X149875260Y-164853765D01*
X149898520Y-164855791D01*
X149940874Y-164857626D01*
X150000132Y-164859227D01*
X150074107Y-164860549D01*
X150160610Y-164861548D01*
X150257452Y-164862180D01*
X150362445Y-164862400D01*
X151060651Y-164862400D01*
X152215090Y-164862400D01*
X152214456Y-164786200D01*
X152215574Y-164744160D01*
X152221304Y-164708334D01*
X152233890Y-164670772D01*
X152255568Y-164622577D01*
X152258789Y-164615897D01*
X152284188Y-164566359D01*
X152310996Y-164518369D01*
X152333917Y-164481466D01*
X152338485Y-164474834D01*
X152360516Y-164443593D01*
X152392693Y-164398654D01*
X152433457Y-164342147D01*
X152481245Y-164276204D01*
X152534498Y-164202957D01*
X152591655Y-164124536D01*
X152651155Y-164043072D01*
X152711437Y-163960698D01*
X152770940Y-163879544D01*
X152828105Y-163801742D01*
X152881370Y-163729423D01*
X152929174Y-163664718D01*
X152969957Y-163609759D01*
X153002158Y-163566676D01*
X153024216Y-163537602D01*
X153034571Y-163524667D01*
X153039044Y-163520351D01*
X153043236Y-163518312D01*
X153046643Y-163520926D01*
X153049325Y-163529986D01*
X153051341Y-163547285D01*
X153052748Y-163574614D01*
X153053605Y-163613765D01*
X153053970Y-163666533D01*
X153053903Y-163734707D01*
X153053460Y-163820082D01*
X153052702Y-163924449D01*
X153051685Y-164049600D01*
X153051308Y-164094300D01*
X153050169Y-164215395D01*
X153048972Y-164316688D01*
X153047636Y-164400262D01*
X153046077Y-164468204D01*
X153044215Y-164522599D01*
X153041966Y-164565532D01*
X153039248Y-164599089D01*
X153035979Y-164625355D01*
X153032078Y-164646416D01*
X153027461Y-164664357D01*
X153019192Y-164690770D01*
X152995583Y-164752772D01*
X152969685Y-164805573D01*
X152944535Y-164842645D01*
X152943339Y-164844075D01*
X152941168Y-164848424D01*
X152943328Y-164852026D01*
X152951644Y-164854951D01*
X152967940Y-164857269D01*
X152994041Y-164859051D01*
X153031771Y-164860367D01*
X153082956Y-164861286D01*
X153149420Y-164861878D01*
X153232987Y-164862215D01*
X153335483Y-164862365D01*
X153458732Y-164862400D01*
X153990296Y-164862400D01*
X153951523Y-164804783D01*
X153945432Y-164795893D01*
X153934976Y-164781069D01*
X153925579Y-164767422D01*
X153917183Y-164753765D01*
X153909733Y-164738911D01*
X153903173Y-164721670D01*
X153897446Y-164700855D01*
X153892495Y-164675280D01*
X153888266Y-164643755D01*
X153884701Y-164605093D01*
X153881744Y-164558107D01*
X153879340Y-164501608D01*
X153877431Y-164434409D01*
X153875962Y-164355322D01*
X153874876Y-164263160D01*
X153874118Y-164156734D01*
X153873630Y-164034857D01*
X153873358Y-163896341D01*
X153873243Y-163739999D01*
X153873231Y-163564642D01*
X153873265Y-163369082D01*
X153873289Y-163152133D01*
X153873280Y-163029513D01*
X153873243Y-162824447D01*
X153873227Y-162640116D01*
X153873288Y-162475334D01*
X153873484Y-162328916D01*
X153873870Y-162199674D01*
X153874505Y-162086422D01*
X153875444Y-161987975D01*
X153876745Y-161903144D01*
X153878464Y-161830744D01*
X153880659Y-161769589D01*
X153883385Y-161718492D01*
X153886701Y-161676267D01*
X153890662Y-161641727D01*
X153895325Y-161613686D01*
X153900747Y-161590958D01*
X153906986Y-161572356D01*
X153914097Y-161556693D01*
X153922138Y-161542784D01*
X153931166Y-161529441D01*
X153941236Y-161515479D01*
X153952407Y-161499711D01*
X153992197Y-161441867D01*
X152932314Y-161441867D01*
X152970311Y-161504966D01*
X152984993Y-161530005D01*
X152999531Y-161557586D01*
X153011627Y-161585700D01*
X153021532Y-161616551D01*
X153029494Y-161652344D01*
X153035761Y-161695283D01*
X153040582Y-161747574D01*
X153044206Y-161811419D01*
X153046881Y-161889025D01*
X153048857Y-161982594D01*
X153050382Y-162094333D01*
X153051704Y-162226445D01*
X153052613Y-162346434D01*
X153053020Y-162463063D01*
X153052767Y-162558531D01*
X153051857Y-162632556D01*
X153050293Y-162684855D01*
X153048079Y-162715149D01*
X153045220Y-162723156D01*
X153042161Y-162719858D01*
X153024006Y-162698408D01*
X152994275Y-162661889D01*
X152954639Y-162612442D01*
X152906771Y-162552207D01*
X152852343Y-162483327D01*
X152793027Y-162407943D01*
X152730495Y-162328196D01*
X152666421Y-162246228D01*
X152602475Y-162164180D01*
X152540331Y-162084194D01*
X152481661Y-162008411D01*
X152428137Y-161938973D01*
X152381430Y-161878021D01*
X152343214Y-161827696D01*
X152315161Y-161790140D01*
X152298943Y-161767495D01*
X152253635Y-161695212D01*
X152213661Y-161615463D01*
X152192130Y-161547188D01*
X152188827Y-161489844D01*
X152194116Y-161441867D01*
X151062356Y-161442117D01*
X151101867Y-161472722D01*
X151111248Y-161480089D01*
X151174183Y-161534438D01*
X151242997Y-161602259D01*
X151319596Y-161685516D01*
X151405888Y-161786178D01*
X151423052Y-161806847D01*
X151463833Y-161856409D01*
X151513588Y-161917326D01*
X151570955Y-161987898D01*
X151634569Y-162066424D01*
X151703069Y-162151204D01*
X151775090Y-162240537D01*
X151849270Y-162332722D01*
X151864517Y-162351702D01*
X151924246Y-162426060D01*
X151998653Y-162518848D01*
X152071131Y-162609388D01*
X152140314Y-162695978D01*
X152204841Y-162776918D01*
X152263347Y-162850506D01*
X152314470Y-162915044D01*
X152356847Y-162968829D01*
X152389115Y-163010162D01*
X152409910Y-163037342D01*
X152417869Y-163048668D01*
X152416111Y-163052771D01*
X152403230Y-163073334D01*
X152378885Y-163109561D01*
X152344247Y-163159824D01*
X152300486Y-163222492D01*
X152248775Y-163295936D01*
X152190284Y-163378527D01*
X152126184Y-163468636D01*
X152057646Y-163564631D01*
X151985843Y-163664885D01*
X151911944Y-163767768D01*
X151837121Y-163871650D01*
X151762545Y-163974901D01*
X151689387Y-164075892D01*
X151618819Y-164172994D01*
X151552011Y-164264577D01*
X151490135Y-164349011D01*
X151434361Y-164424667D01*
X151385862Y-164489916D01*
X151345807Y-164543128D01*
X151315369Y-164582673D01*
X151294944Y-164608026D01*
X151248899Y-164662295D01*
X151198612Y-164718775D01*
X151151815Y-164768669D01*
X151060651Y-164862400D01*
X150362445Y-164862400D01*
X150431356Y-164862349D01*
X150529607Y-164862091D01*
X150619030Y-164861637D01*
X150697333Y-164861010D01*
X150762223Y-164860235D01*
X150811411Y-164859335D01*
X150842604Y-164858334D01*
X150853511Y-164857257D01*
X150852322Y-164854037D01*
X150842176Y-164836452D01*
X150825040Y-164810158D01*
X150816540Y-164797691D01*
X150807329Y-164783622D01*
X150799233Y-164769351D01*
X150792185Y-164753479D01*
X150786117Y-164734609D01*
X150780961Y-164711341D01*
X150776651Y-164682278D01*
X150773119Y-164646021D01*
X150770297Y-164601170D01*
X150768118Y-164546328D01*
X150766514Y-164480097D01*
X150765419Y-164401077D01*
X150764765Y-164307871D01*
X150764484Y-164199079D01*
X150764509Y-164073303D01*
X150764772Y-163929145D01*
X150765206Y-163765207D01*
X150765745Y-163580089D01*
X150766279Y-163401232D01*
X150766805Y-163242374D01*
X150767350Y-163103316D01*
X150767945Y-162982665D01*
X150768619Y-162879028D01*
X150769403Y-162791011D01*
X150770326Y-162717223D01*
X150771419Y-162656269D01*
X150772712Y-162606757D01*
X150774235Y-162567293D01*
X150776019Y-162536484D01*
X150778092Y-162512938D01*
X150780486Y-162495260D01*
X150783230Y-162482059D01*
X150786356Y-162471940D01*
X150789892Y-162463511D01*
X150793791Y-162455375D01*
X150813438Y-162418544D01*
X150832225Y-162388391D01*
X150833272Y-162386908D01*
X150847602Y-162364659D01*
X150853511Y-162351702D01*
X150852504Y-162351249D01*
X150835305Y-162349803D01*
X150798656Y-162348480D01*
X150744962Y-162347316D01*
X150676630Y-162346347D01*
X150596064Y-162345611D01*
X150505670Y-162345142D01*
X150407853Y-162344978D01*
X149962195Y-162344978D01*
X149959120Y-163521845D01*
X149956045Y-164698711D01*
X149929407Y-164757622D01*
X149917485Y-164782183D01*
X149900246Y-164812434D01*
X149887074Y-164829560D01*
X149879076Y-164837591D01*
X149871378Y-164852493D01*
X149579942Y-164852493D01*
X149579474Y-164760029D01*
X149579050Y-164644617D01*
X149578706Y-164514160D01*
X149578434Y-164367716D01*
X149578227Y-164204344D01*
X149578076Y-164023101D01*
X149577972Y-163823048D01*
X149577908Y-163603241D01*
X149577876Y-163362739D01*
X149577867Y-163100602D01*
X149577867Y-160909031D01*
X149616249Y-160870649D01*
X149643355Y-160846911D01*
X149670253Y-160835111D01*
X149706560Y-160832267D01*
X149758489Y-160832267D01*
X149758489Y-160920206D01*
X149760427Y-160970102D01*
X149779199Y-161080523D01*
X149816217Y-161181987D01*
X149869369Y-161273152D01*
X149936546Y-161352673D01*
X150015638Y-161419205D01*
X150104534Y-161471406D01*
X150201125Y-161507930D01*
X150303300Y-161527434D01*
X150408950Y-161528573D01*
X150515964Y-161510005D01*
X150622232Y-161470384D01*
X150719219Y-161412516D01*
X150804293Y-161337684D01*
X150873015Y-161249615D01*
X150923918Y-161150616D01*
X150955535Y-161042993D01*
X150966400Y-160929054D01*
X150966400Y-160832267D01*
X152586753Y-160832267D01*
X152797897Y-160832280D01*
X153002020Y-160832330D01*
X153185686Y-160832430D01*
X153349991Y-160832592D01*
X153496029Y-160832829D01*
X153624894Y-160833153D01*
X153737683Y-160833575D01*
X153835488Y-160834109D01*
X153919404Y-160834767D01*
X153990527Y-160835561D01*
X154049950Y-160836504D01*
X154098768Y-160837608D01*
X154138077Y-160838884D01*
X154168969Y-160840347D01*
X154192541Y-160842007D01*
X154209886Y-160843878D01*
X154222099Y-160845972D01*
X154230275Y-160848300D01*
X154235508Y-160850876D01*
X154241504Y-160854445D01*
X154248279Y-160857978D01*
X154254478Y-160861488D01*
X154260126Y-160865918D01*
X154265247Y-160872208D01*
X154269869Y-160881301D01*
X154274015Y-160894139D01*
X154277713Y-160911662D01*
X154280987Y-160934813D01*
X154283863Y-160964534D01*
X154286367Y-161001765D01*
X154288524Y-161047449D01*
X154290360Y-161102527D01*
X154291900Y-161167941D01*
X154293170Y-161244633D01*
X154294195Y-161333544D01*
X154295001Y-161435617D01*
X154295034Y-161441867D01*
X154295614Y-161551792D01*
G37*
%TD*%
M02*
