%TF.GenerationSoftware,KiCad,Pcbnew,8.0.4*%
%TF.CreationDate,2025-01-30T18:37:50+05:30*%
%TF.ProjectId,Bread_board_power_supply,42726561-645f-4626-9f61-72645f706f77,1*%
%TF.SameCoordinates,Original*%
%TF.FileFunction,Copper,L2,Bot*%
%TF.FilePolarity,Positive*%
%FSLAX46Y46*%
G04 Gerber Fmt 4.6, Leading zero omitted, Abs format (unit mm)*
G04 Created by KiCad (PCBNEW 8.0.4) date 2025-01-30 18:37:50*
%MOMM*%
%LPD*%
G01*
G04 APERTURE LIST*
G04 Aperture macros list*
%AMRoundRect*
0 Rectangle with rounded corners*
0 $1 Rounding radius*
0 $2 $3 $4 $5 $6 $7 $8 $9 X,Y pos of 4 corners*
0 Add a 4 corners polygon primitive as box body*
4,1,4,$2,$3,$4,$5,$6,$7,$8,$9,$2,$3,0*
0 Add four circle primitives for the rounded corners*
1,1,$1+$1,$2,$3*
1,1,$1+$1,$4,$5*
1,1,$1+$1,$6,$7*
1,1,$1+$1,$8,$9*
0 Add four rect primitives between the rounded corners*
20,1,$1+$1,$2,$3,$4,$5,0*
20,1,$1+$1,$4,$5,$6,$7,0*
20,1,$1+$1,$6,$7,$8,$9,0*
20,1,$1+$1,$8,$9,$2,$3,0*%
G04 Aperture macros list end*
%TA.AperFunction,ComponentPad*%
%ADD10C,1.600000*%
%TD*%
%TA.AperFunction,ComponentPad*%
%ADD11O,1.600000X1.600000*%
%TD*%
%TA.AperFunction,ComponentPad*%
%ADD12R,1.905000X2.000000*%
%TD*%
%TA.AperFunction,ComponentPad*%
%ADD13O,1.905000X2.000000*%
%TD*%
%TA.AperFunction,ComponentPad*%
%ADD14R,1.800000X1.800000*%
%TD*%
%TA.AperFunction,ComponentPad*%
%ADD15C,1.800000*%
%TD*%
%TA.AperFunction,ComponentPad*%
%ADD16R,3.500000X3.500000*%
%TD*%
%TA.AperFunction,ComponentPad*%
%ADD17RoundRect,0.750000X-0.750000X-1.000000X0.750000X-1.000000X0.750000X1.000000X-0.750000X1.000000X0*%
%TD*%
%TA.AperFunction,ComponentPad*%
%ADD18RoundRect,0.875000X-0.875000X-0.875000X0.875000X-0.875000X0.875000X0.875000X-0.875000X0.875000X0*%
%TD*%
%TA.AperFunction,ComponentPad*%
%ADD19R,1.700000X1.700000*%
%TD*%
%TA.AperFunction,ComponentPad*%
%ADD20O,1.700000X1.700000*%
%TD*%
%TA.AperFunction,ComponentPad*%
%ADD21R,3.000000X3.000000*%
%TD*%
%TA.AperFunction,ComponentPad*%
%ADD22C,3.000000*%
%TD*%
%TA.AperFunction,ComponentPad*%
%ADD23R,1.900000X1.900000*%
%TD*%
%TA.AperFunction,ComponentPad*%
%ADD24C,1.900000*%
%TD*%
G04 APERTURE END LIST*
D10*
%TO.P,C1,1*%
%TO.N,/12V*%
X84308000Y-56642000D03*
%TO.P,C1,2*%
%TO.N,GND*%
X81808000Y-56642000D03*
%TD*%
%TO.P,R1,1*%
%TO.N,Net-(U2-ADJ)*%
X72940000Y-83560000D03*
D11*
%TO.P,R1,2*%
%TO.N,/3P3V*%
X72940000Y-91180000D03*
%TD*%
D10*
%TO.P,R2,1*%
%TO.N,Net-(D1-A)*%
X95250000Y-66548000D03*
D11*
%TO.P,R2,2*%
%TO.N,/12V*%
X95250000Y-58928000D03*
%TD*%
D12*
%TO.P,U1,1,VI*%
%TO.N,/12V*%
X84074000Y-60706000D03*
D13*
%TO.P,U1,2,GND*%
%TO.N,GND*%
X81534000Y-60706000D03*
%TO.P,U1,3,VO*%
%TO.N,/5V*%
X78994000Y-60706000D03*
%TD*%
D10*
%TO.P,C2,1*%
%TO.N,/5V*%
X79590000Y-56660000D03*
%TO.P,C2,2*%
%TO.N,GND*%
X77090000Y-56660000D03*
%TD*%
%TO.P,R3,1*%
%TO.N,GND*%
X76570000Y-91180000D03*
D11*
%TO.P,R3,2*%
%TO.N,Net-(U2-ADJ)*%
X76570000Y-83560000D03*
%TD*%
D14*
%TO.P,D1,1,K*%
%TO.N,GND*%
X91440000Y-73406000D03*
D15*
%TO.P,D1,2,A*%
%TO.N,Net-(D1-A)*%
X93980000Y-73406000D03*
%TD*%
D16*
%TO.P,J7,1*%
%TO.N,/PWR_input*%
X85756000Y-71882000D03*
D17*
%TO.P,J7,2*%
%TO.N,GND*%
X79756000Y-71882000D03*
D18*
%TO.P,J7,3*%
X82756000Y-76582000D03*
%TD*%
D19*
%TO.P,J2,1,Pin_1*%
%TO.N,GND*%
X102250000Y-94420000D03*
D20*
%TO.P,J2,2,Pin_2*%
%TO.N,/PWR_OUT_BOT*%
X102250000Y-96960000D03*
%TD*%
D21*
%TO.P,J6,1,Pin_1*%
%TO.N,GND*%
X87490000Y-94810000D03*
D22*
%TO.P,J6,2,Pin_2*%
%TO.N,/PWR_OUT_BOT*%
X92570000Y-94810000D03*
%TD*%
D10*
%TO.P,C3,1*%
%TO.N,/3P3V*%
X80770000Y-86380000D03*
%TO.P,C3,2*%
%TO.N,GND*%
X80770000Y-88880000D03*
%TD*%
D21*
%TO.P,J5,1,Pin_1*%
%TO.N,GND*%
X87490000Y-50670000D03*
D22*
%TO.P,J5,2,Pin_2*%
%TO.N,/PWR_OUT_TOP*%
X92570000Y-50670000D03*
%TD*%
D23*
%TO.P,S1,1*%
%TO.N,/12V*%
X90424000Y-60198000D03*
D24*
%TO.P,S1,2*%
%TO.N,/PWR_input*%
X90424000Y-62698000D03*
%TO.P,S1,3*%
%TO.N,unconnected-(S1-Pad3)*%
X90424000Y-65198000D03*
%TD*%
D19*
%TO.P,J3,1,Pin_1*%
%TO.N,/3P3V*%
X77584000Y-48470000D03*
D20*
%TO.P,J3,2,Pin_2*%
%TO.N,/PWR_OUT_TOP*%
X80124000Y-48470000D03*
%TO.P,J3,3,Pin_3*%
%TO.N,/5V*%
X82664000Y-48470000D03*
%TD*%
D19*
%TO.P,J1,1,Pin_1*%
%TO.N,GND*%
X102250000Y-48430000D03*
D20*
%TO.P,J1,2,Pin_2*%
%TO.N,/PWR_OUT_TOP*%
X102250000Y-50970000D03*
%TD*%
D12*
%TO.P,U2,1,ADJ*%
%TO.N,Net-(U2-ADJ)*%
X83060000Y-82530000D03*
D13*
%TO.P,U2,2,VO*%
%TO.N,/3P3V*%
X85600000Y-82530000D03*
%TO.P,U2,3,VI*%
%TO.N,/12V*%
X88140000Y-82530000D03*
%TD*%
D19*
%TO.P,J4,1,Pin_1*%
%TO.N,/3P3V*%
X77584000Y-97010000D03*
D20*
%TO.P,J4,2,Pin_2*%
%TO.N,/PWR_OUT_BOT*%
X80124000Y-97010000D03*
%TO.P,J4,3,Pin_3*%
%TO.N,/5V*%
X82664000Y-97010000D03*
%TD*%
%TA.AperFunction,Conductor*%
%TO.N,GND*%
G36*
X103967532Y-46792725D02*
G01*
X104013291Y-46845525D01*
X104024500Y-46897045D01*
X104024500Y-52453693D01*
X104004815Y-52520732D01*
X103952011Y-52566487D01*
X103900638Y-52577693D01*
X97780099Y-52584500D01*
X97714102Y-52584500D01*
X97713743Y-52584547D01*
X97713568Y-52584569D01*
X97677148Y-52594371D01*
X97650439Y-52601559D01*
X97650398Y-52601569D01*
X97650310Y-52601593D01*
X97586803Y-52618610D01*
X97586788Y-52618617D01*
X97586333Y-52618806D01*
X97586309Y-52618815D01*
X97529726Y-52651567D01*
X97529609Y-52651635D01*
X97472675Y-52684506D01*
X97472624Y-52684546D01*
X97472300Y-52684795D01*
X97472251Y-52684832D01*
X97472241Y-52684841D01*
X97472241Y-52684842D01*
X97426147Y-52731038D01*
X97379495Y-52777690D01*
X97379383Y-52777837D01*
X97379164Y-52778121D01*
X97346566Y-52834727D01*
X97346499Y-52834843D01*
X97313606Y-52891817D01*
X97313555Y-52891941D01*
X97313477Y-52892128D01*
X97313394Y-52892326D01*
X97303533Y-52929295D01*
X97296810Y-52954499D01*
X97296479Y-52955738D01*
X97296444Y-52955870D01*
X97279497Y-53019114D01*
X97279490Y-53019177D01*
X97279427Y-53019655D01*
X97279427Y-53019664D01*
X97279427Y-53019665D01*
X97279500Y-53085108D01*
X97279500Y-92290892D01*
X97284772Y-92310567D01*
X97313608Y-92418187D01*
X97341002Y-92465633D01*
X97379500Y-92532314D01*
X97472686Y-92625500D01*
X97586814Y-92691392D01*
X97714108Y-92725500D01*
X97845892Y-92725500D01*
X103925500Y-92725500D01*
X103992539Y-92745185D01*
X104038294Y-92797989D01*
X104049500Y-92849500D01*
X104049500Y-98695500D01*
X104029815Y-98762539D01*
X103977011Y-98808294D01*
X103925500Y-98819500D01*
X71785862Y-98819500D01*
X71718823Y-98799815D01*
X71698181Y-98783181D01*
X71306274Y-98391274D01*
X71272789Y-98329951D01*
X71269955Y-98303705D01*
X71269537Y-97821500D01*
X73998500Y-97821500D01*
X75235501Y-97821500D01*
X75235500Y-97021045D01*
X73998500Y-97021045D01*
X73998500Y-97821500D01*
X71269537Y-97821500D01*
X71268057Y-96112135D01*
X76233500Y-96112135D01*
X76233500Y-97907870D01*
X76233501Y-97907876D01*
X76239908Y-97967483D01*
X76290202Y-98102328D01*
X76290206Y-98102335D01*
X76376452Y-98217544D01*
X76376455Y-98217547D01*
X76491664Y-98303793D01*
X76491671Y-98303797D01*
X76626517Y-98354091D01*
X76626516Y-98354091D01*
X76633444Y-98354835D01*
X76686127Y-98360500D01*
X78481872Y-98360499D01*
X78541483Y-98354091D01*
X78676331Y-98303796D01*
X78791546Y-98217546D01*
X78877796Y-98102331D01*
X78926810Y-97970916D01*
X78968681Y-97914984D01*
X79034145Y-97890566D01*
X79102418Y-97905417D01*
X79130673Y-97926569D01*
X79252599Y-98048495D01*
X79349384Y-98116265D01*
X79446165Y-98184032D01*
X79446167Y-98184033D01*
X79446170Y-98184035D01*
X79660337Y-98283903D01*
X79888592Y-98345063D01*
X80065034Y-98360500D01*
X80123999Y-98365659D01*
X80124000Y-98365659D01*
X80124001Y-98365659D01*
X80182966Y-98360500D01*
X80359408Y-98345063D01*
X80587663Y-98283903D01*
X80801830Y-98184035D01*
X80995401Y-98048495D01*
X81162495Y-97881401D01*
X81292425Y-97695842D01*
X81347002Y-97652217D01*
X81416500Y-97645023D01*
X81478855Y-97676546D01*
X81495575Y-97695842D01*
X81625500Y-97881395D01*
X81625505Y-97881401D01*
X81792599Y-98048495D01*
X81889384Y-98116265D01*
X81986165Y-98184032D01*
X81986167Y-98184033D01*
X81986170Y-98184035D01*
X82200337Y-98283903D01*
X82428592Y-98345063D01*
X82605034Y-98360500D01*
X82663999Y-98365659D01*
X82664000Y-98365659D01*
X82664001Y-98365659D01*
X82722966Y-98360500D01*
X82899408Y-98345063D01*
X83127663Y-98283903D01*
X83341830Y-98184035D01*
X83535401Y-98048495D01*
X83702495Y-97881401D01*
X83753891Y-97808000D01*
X88998500Y-97808000D01*
X88998500Y-97821500D01*
X90500500Y-97821500D01*
X90500500Y-97446377D01*
X93998500Y-97446377D01*
X93998500Y-97821500D01*
X95500500Y-97821500D01*
X96498500Y-97821500D01*
X98000500Y-97821500D01*
X98998500Y-97821500D01*
X100060550Y-97821500D01*
X100060223Y-97820756D01*
X100047705Y-97790535D01*
X100045747Y-97785500D01*
X100030846Y-97744568D01*
X100029105Y-97739440D01*
X100019256Y-97708205D01*
X100017741Y-97703008D01*
X99945305Y-97432666D01*
X99944019Y-97427412D01*
X99936934Y-97395454D01*
X99935879Y-97390146D01*
X99928316Y-97347251D01*
X99927493Y-97341904D01*
X99923222Y-97309461D01*
X99922633Y-97304084D01*
X99898241Y-97025287D01*
X99897963Y-97021045D01*
X98998500Y-97021045D01*
X98998500Y-97821500D01*
X98000500Y-97821500D01*
X98000500Y-97021045D01*
X96498500Y-97021045D01*
X96498500Y-97821500D01*
X95500500Y-97821500D01*
X95500500Y-97021045D01*
X94599474Y-97021045D01*
X94576484Y-97044035D01*
X94573299Y-97047108D01*
X94553692Y-97065363D01*
X94550395Y-97068325D01*
X94523463Y-97091660D01*
X94520066Y-97094499D01*
X94499224Y-97111293D01*
X94495732Y-97114005D01*
X94238137Y-97306838D01*
X94234550Y-97309425D01*
X94212570Y-97324687D01*
X94208893Y-97327144D01*
X94178917Y-97346411D01*
X94175147Y-97348740D01*
X94152102Y-97362414D01*
X94148253Y-97364606D01*
X93998500Y-97446377D01*
X90500500Y-97446377D01*
X90500500Y-97021045D01*
X90314374Y-97021045D01*
X90292185Y-97061681D01*
X90287667Y-97069295D01*
X90258703Y-97114362D01*
X90253655Y-97121632D01*
X90124757Y-97293816D01*
X90119204Y-97300707D01*
X90084124Y-97341192D01*
X90078092Y-97347671D01*
X90027671Y-97398092D01*
X90021192Y-97404124D01*
X89980707Y-97439204D01*
X89973816Y-97444757D01*
X89801632Y-97573655D01*
X89794362Y-97578703D01*
X89749295Y-97607667D01*
X89741681Y-97612185D01*
X89679091Y-97646362D01*
X89671177Y-97650323D01*
X89622441Y-97672581D01*
X89614261Y-97675970D01*
X89416904Y-97749579D01*
X89409564Y-97752058D01*
X89364695Y-97765668D01*
X89357212Y-97767685D01*
X89296501Y-97782028D01*
X89288916Y-97783572D01*
X89242738Y-97791478D01*
X89235069Y-97792545D01*
X89131217Y-97803711D01*
X89127905Y-97804023D01*
X89107856Y-97805636D01*
X89104542Y-97805858D01*
X89077855Y-97807287D01*
X89074539Y-97807420D01*
X89054491Y-97807956D01*
X89051177Y-97808000D01*
X88998500Y-97808000D01*
X83753891Y-97808000D01*
X83838035Y-97687830D01*
X83937903Y-97473663D01*
X83999063Y-97245408D01*
X84019659Y-97010000D01*
X84015284Y-96959999D01*
X100894341Y-96959999D01*
X100894341Y-96960000D01*
X100914936Y-97195403D01*
X100914938Y-97195413D01*
X100976094Y-97423655D01*
X100976096Y-97423659D01*
X100976097Y-97423663D01*
X100999413Y-97473664D01*
X101075965Y-97637830D01*
X101075967Y-97637834D01*
X101176934Y-97782028D01*
X101211505Y-97831401D01*
X101378599Y-97998495D01*
X101450011Y-98048498D01*
X101572165Y-98134032D01*
X101572167Y-98134033D01*
X101572170Y-98134035D01*
X101786337Y-98233903D01*
X102014592Y-98295063D01*
X102202918Y-98311539D01*
X102249999Y-98315659D01*
X102250000Y-98315659D01*
X102250001Y-98315659D01*
X102289234Y-98312226D01*
X102485408Y-98295063D01*
X102713663Y-98233903D01*
X102927830Y-98134035D01*
X103121401Y-97998495D01*
X103288495Y-97831401D01*
X103424035Y-97637830D01*
X103523903Y-97423663D01*
X103585063Y-97195408D01*
X103605659Y-96960000D01*
X103585063Y-96724592D01*
X103523903Y-96496337D01*
X103424035Y-96282171D01*
X103323505Y-96138599D01*
X103288496Y-96088600D01*
X103248977Y-96049081D01*
X103166179Y-95966283D01*
X103132696Y-95904963D01*
X103137680Y-95835271D01*
X103179551Y-95779337D01*
X103210529Y-95762422D01*
X103342086Y-95713354D01*
X103342093Y-95713350D01*
X103457187Y-95627190D01*
X103457190Y-95627187D01*
X103543350Y-95512093D01*
X103543354Y-95512086D01*
X103593596Y-95377379D01*
X103593598Y-95377372D01*
X103599999Y-95317844D01*
X103600000Y-95317827D01*
X103600000Y-94670000D01*
X102683012Y-94670000D01*
X102715925Y-94612993D01*
X102750000Y-94485826D01*
X102750000Y-94354174D01*
X102715925Y-94227007D01*
X102683012Y-94170000D01*
X103600000Y-94170000D01*
X103600000Y-93522172D01*
X103599999Y-93522155D01*
X103593598Y-93462627D01*
X103593596Y-93462620D01*
X103543354Y-93327913D01*
X103543350Y-93327906D01*
X103457190Y-93212812D01*
X103457187Y-93212809D01*
X103342093Y-93126649D01*
X103342086Y-93126645D01*
X103207379Y-93076403D01*
X103207372Y-93076401D01*
X103147844Y-93070000D01*
X102500000Y-93070000D01*
X102500000Y-93986988D01*
X102442993Y-93954075D01*
X102315826Y-93920000D01*
X102184174Y-93920000D01*
X102057007Y-93954075D01*
X102000000Y-93986988D01*
X102000000Y-93070000D01*
X101352155Y-93070000D01*
X101292627Y-93076401D01*
X101292620Y-93076403D01*
X101157913Y-93126645D01*
X101157906Y-93126649D01*
X101042812Y-93212809D01*
X101042809Y-93212812D01*
X100956649Y-93327906D01*
X100956645Y-93327913D01*
X100906403Y-93462620D01*
X100906401Y-93462627D01*
X100900000Y-93522155D01*
X100900000Y-94170000D01*
X101816988Y-94170000D01*
X101784075Y-94227007D01*
X101750000Y-94354174D01*
X101750000Y-94485826D01*
X101784075Y-94612993D01*
X101816988Y-94670000D01*
X100900000Y-94670000D01*
X100900000Y-95317844D01*
X100906401Y-95377372D01*
X100906403Y-95377379D01*
X100956645Y-95512086D01*
X100956649Y-95512093D01*
X101042809Y-95627187D01*
X101042812Y-95627190D01*
X101157906Y-95713350D01*
X101157913Y-95713354D01*
X101289470Y-95762421D01*
X101345403Y-95804292D01*
X101369821Y-95869756D01*
X101354970Y-95938029D01*
X101333819Y-95966284D01*
X101211503Y-96088600D01*
X101075965Y-96282169D01*
X101075964Y-96282171D01*
X100976098Y-96496335D01*
X100976094Y-96496344D01*
X100914938Y-96724586D01*
X100914936Y-96724596D01*
X100894341Y-96959999D01*
X84015284Y-96959999D01*
X83999063Y-96774592D01*
X83939445Y-96552093D01*
X83937905Y-96546344D01*
X83937904Y-96546343D01*
X83937903Y-96546337D01*
X83838035Y-96332171D01*
X83833536Y-96325745D01*
X83702494Y-96138597D01*
X83535402Y-95971506D01*
X83535395Y-95971501D01*
X83527947Y-95966286D01*
X83458518Y-95917671D01*
X83341834Y-95835967D01*
X83341830Y-95835965D01*
X83273907Y-95804292D01*
X83127663Y-95736097D01*
X83127659Y-95736096D01*
X83127655Y-95736094D01*
X82899413Y-95674938D01*
X82899403Y-95674936D01*
X82664001Y-95654341D01*
X82663999Y-95654341D01*
X82428596Y-95674936D01*
X82428586Y-95674938D01*
X82200344Y-95736094D01*
X82200335Y-95736098D01*
X81986171Y-95835964D01*
X81986169Y-95835965D01*
X81792597Y-95971505D01*
X81625505Y-96138597D01*
X81495575Y-96324158D01*
X81440998Y-96367783D01*
X81371500Y-96374977D01*
X81309145Y-96343454D01*
X81292425Y-96324158D01*
X81162494Y-96138597D01*
X80995402Y-95971506D01*
X80995395Y-95971501D01*
X80987947Y-95966286D01*
X80918518Y-95917671D01*
X80801834Y-95835967D01*
X80801830Y-95835965D01*
X80733907Y-95804292D01*
X80587663Y-95736097D01*
X80587659Y-95736096D01*
X80587655Y-95736094D01*
X80359413Y-95674938D01*
X80359403Y-95674936D01*
X80124001Y-95654341D01*
X80123999Y-95654341D01*
X79888596Y-95674936D01*
X79888586Y-95674938D01*
X79660344Y-95736094D01*
X79660335Y-95736098D01*
X79446171Y-95835964D01*
X79446169Y-95835965D01*
X79252600Y-95971503D01*
X79130673Y-96093430D01*
X79069350Y-96126914D01*
X78999658Y-96121930D01*
X78943725Y-96080058D01*
X78926810Y-96049081D01*
X78877797Y-95917671D01*
X78877793Y-95917664D01*
X78791547Y-95802455D01*
X78791544Y-95802452D01*
X78676335Y-95716206D01*
X78676328Y-95716202D01*
X78541482Y-95665908D01*
X78541483Y-95665908D01*
X78481883Y-95659501D01*
X78481881Y-95659500D01*
X78481873Y-95659500D01*
X78481864Y-95659500D01*
X76686129Y-95659500D01*
X76686123Y-95659501D01*
X76626516Y-95665908D01*
X76491671Y-95716202D01*
X76491664Y-95716206D01*
X76376455Y-95802452D01*
X76376452Y-95802455D01*
X76290206Y-95917664D01*
X76290202Y-95917671D01*
X76239908Y-96052517D01*
X76233501Y-96112116D01*
X76233500Y-96112135D01*
X71268057Y-96112135D01*
X71266679Y-94521045D01*
X72390680Y-94521045D01*
X72391981Y-96023045D01*
X73000500Y-96023045D01*
X73998500Y-96023045D01*
X75239398Y-96023045D01*
X75239481Y-96022018D01*
X75239792Y-96018715D01*
X75250962Y-95914825D01*
X75252029Y-95907157D01*
X75259936Y-95860971D01*
X75261481Y-95853381D01*
X75275826Y-95792670D01*
X75277842Y-95785191D01*
X75291450Y-95740328D01*
X75293929Y-95732988D01*
X75367587Y-95535498D01*
X75370975Y-95527318D01*
X75393233Y-95478581D01*
X75397195Y-95470667D01*
X75431372Y-95408077D01*
X75435890Y-95400463D01*
X75464854Y-95355396D01*
X75469901Y-95348126D01*
X75500500Y-95307251D01*
X75500500Y-94521045D01*
X73998500Y-94521045D01*
X73998500Y-96023045D01*
X73000500Y-96023045D01*
X73000500Y-94521045D01*
X72390680Y-94521045D01*
X71266679Y-94521045D01*
X71265554Y-93222526D01*
X73998500Y-93222526D01*
X73998500Y-93523045D01*
X75500500Y-93523045D01*
X78998500Y-93523045D01*
X80500500Y-93523045D01*
X81498500Y-93523045D01*
X83000500Y-93523045D01*
X83998500Y-93523045D01*
X84492000Y-93523045D01*
X84492000Y-93262155D01*
X85490000Y-93262155D01*
X85490000Y-94560000D01*
X86770936Y-94560000D01*
X86759207Y-94588316D01*
X86730000Y-94735147D01*
X86730000Y-94884853D01*
X86759207Y-95031684D01*
X86770936Y-95060000D01*
X85490000Y-95060000D01*
X85490000Y-96357844D01*
X85496401Y-96417372D01*
X85496403Y-96417379D01*
X85546645Y-96552086D01*
X85546649Y-96552093D01*
X85632809Y-96667187D01*
X85632812Y-96667190D01*
X85747906Y-96753350D01*
X85747913Y-96753354D01*
X85882620Y-96803596D01*
X85882627Y-96803598D01*
X85942155Y-96809999D01*
X85942172Y-96810000D01*
X87240000Y-96810000D01*
X87240000Y-95529064D01*
X87268316Y-95540793D01*
X87415147Y-95570000D01*
X87564853Y-95570000D01*
X87711684Y-95540793D01*
X87740000Y-95529064D01*
X87740000Y-96810000D01*
X89037828Y-96810000D01*
X89037844Y-96809999D01*
X89097372Y-96803598D01*
X89097379Y-96803596D01*
X89232086Y-96753354D01*
X89232093Y-96753350D01*
X89347187Y-96667190D01*
X89347190Y-96667187D01*
X89433350Y-96552093D01*
X89433354Y-96552086D01*
X89483596Y-96417379D01*
X89483598Y-96417372D01*
X89489999Y-96357844D01*
X89490000Y-96357827D01*
X89490000Y-95060000D01*
X88209064Y-95060000D01*
X88220793Y-95031684D01*
X88250000Y-94884853D01*
X88250000Y-94809998D01*
X90564390Y-94809998D01*
X90564390Y-94810001D01*
X90584804Y-95095433D01*
X90645628Y-95375037D01*
X90645630Y-95375043D01*
X90645631Y-95375046D01*
X90702426Y-95527318D01*
X90745635Y-95643166D01*
X90882770Y-95894309D01*
X90882775Y-95894317D01*
X91054254Y-96123387D01*
X91054270Y-96123405D01*
X91256594Y-96325729D01*
X91256612Y-96325745D01*
X91485682Y-96497224D01*
X91485690Y-96497229D01*
X91736833Y-96634364D01*
X91736832Y-96634364D01*
X91736836Y-96634365D01*
X91736839Y-96634367D01*
X92004954Y-96734369D01*
X92004960Y-96734370D01*
X92004962Y-96734371D01*
X92284566Y-96795195D01*
X92284568Y-96795195D01*
X92284572Y-96795196D01*
X92538220Y-96813337D01*
X92569999Y-96815610D01*
X92570000Y-96815610D01*
X92570001Y-96815610D01*
X92598595Y-96813564D01*
X92855428Y-96795196D01*
X92950144Y-96774592D01*
X93135037Y-96734371D01*
X93135037Y-96734370D01*
X93135046Y-96734369D01*
X93403161Y-96634367D01*
X93654315Y-96497226D01*
X93883395Y-96325739D01*
X94085739Y-96123395D01*
X94160860Y-96023045D01*
X96498500Y-96023045D01*
X98000500Y-96023045D01*
X98998500Y-96023045D01*
X100095625Y-96023045D01*
X100096976Y-96020146D01*
X100063638Y-95959091D01*
X100059677Y-95951177D01*
X100037419Y-95902441D01*
X100034030Y-95894261D01*
X99960421Y-95696904D01*
X99957942Y-95689564D01*
X99944332Y-95644695D01*
X99942315Y-95637212D01*
X99927972Y-95576501D01*
X99926428Y-95568916D01*
X99918522Y-95522738D01*
X99917455Y-95515069D01*
X99906289Y-95411217D01*
X99905977Y-95407905D01*
X99904364Y-95387856D01*
X99904142Y-95384542D01*
X99902713Y-95357855D01*
X99902580Y-95354539D01*
X99902044Y-95334491D01*
X99902000Y-95331177D01*
X99902000Y-94521045D01*
X98998500Y-94521045D01*
X98998500Y-96023045D01*
X98000500Y-96023045D01*
X98000500Y-94521045D01*
X96498500Y-94521045D01*
X96498500Y-96023045D01*
X94160860Y-96023045D01*
X94257226Y-95894315D01*
X94394367Y-95643161D01*
X94494369Y-95375046D01*
X94503912Y-95331177D01*
X94555195Y-95095433D01*
X94555195Y-95095432D01*
X94555196Y-95095428D01*
X94575610Y-94810000D01*
X94555196Y-94524572D01*
X94546767Y-94485826D01*
X94494371Y-94244962D01*
X94494370Y-94244960D01*
X94494369Y-94244954D01*
X94394367Y-93976839D01*
X94363330Y-93920000D01*
X94257229Y-93725690D01*
X94257224Y-93725682D01*
X94085745Y-93496612D01*
X94085729Y-93496594D01*
X93883405Y-93294270D01*
X93883387Y-93294254D01*
X93654317Y-93122775D01*
X93654309Y-93122770D01*
X93403166Y-92985635D01*
X93403167Y-92985635D01*
X93196156Y-92908424D01*
X93135046Y-92885631D01*
X93135043Y-92885630D01*
X93135037Y-92885628D01*
X92855433Y-92824804D01*
X92570001Y-92804390D01*
X92569999Y-92804390D01*
X92284566Y-92824804D01*
X92004962Y-92885628D01*
X91736833Y-92985635D01*
X91485690Y-93122770D01*
X91485682Y-93122775D01*
X91256612Y-93294254D01*
X91256594Y-93294270D01*
X91054270Y-93496594D01*
X91054254Y-93496612D01*
X90882775Y-93725682D01*
X90882770Y-93725690D01*
X90745635Y-93976833D01*
X90645628Y-94244962D01*
X90584804Y-94524566D01*
X90564390Y-94809998D01*
X88250000Y-94809998D01*
X88250000Y-94735147D01*
X88220793Y-94588316D01*
X88209064Y-94560000D01*
X89490000Y-94560000D01*
X89490000Y-93262172D01*
X89489999Y-93262155D01*
X89483598Y-93202627D01*
X89483596Y-93202620D01*
X89433354Y-93067913D01*
X89433350Y-93067906D01*
X89347190Y-92952812D01*
X89347187Y-92952809D01*
X89232093Y-92866649D01*
X89232086Y-92866645D01*
X89097379Y-92816403D01*
X89097372Y-92816401D01*
X89037844Y-92810000D01*
X87740000Y-92810000D01*
X87740000Y-94090935D01*
X87711684Y-94079207D01*
X87564853Y-94050000D01*
X87415147Y-94050000D01*
X87268316Y-94079207D01*
X87240000Y-94090935D01*
X87240000Y-92810000D01*
X85942155Y-92810000D01*
X85882627Y-92816401D01*
X85882620Y-92816403D01*
X85747913Y-92866645D01*
X85747906Y-92866649D01*
X85632812Y-92952809D01*
X85632809Y-92952812D01*
X85546649Y-93067906D01*
X85546645Y-93067913D01*
X85496403Y-93202620D01*
X85496401Y-93202627D01*
X85490000Y-93262155D01*
X84492000Y-93262155D01*
X84492000Y-93248823D01*
X84492044Y-93245509D01*
X84492580Y-93225461D01*
X84492713Y-93222145D01*
X84494142Y-93195458D01*
X84494364Y-93192144D01*
X84495977Y-93172095D01*
X84496289Y-93168783D01*
X84507455Y-93064931D01*
X84508522Y-93057262D01*
X84516428Y-93011084D01*
X84517972Y-93003499D01*
X84532315Y-92942788D01*
X84534332Y-92935305D01*
X84547942Y-92890436D01*
X84550421Y-92883096D01*
X84624030Y-92685739D01*
X84627419Y-92677559D01*
X84649677Y-92628823D01*
X84653638Y-92620909D01*
X84687815Y-92558319D01*
X84692333Y-92550705D01*
X84721297Y-92505638D01*
X84726345Y-92498368D01*
X84855243Y-92326184D01*
X84860796Y-92319293D01*
X84895876Y-92278808D01*
X84901908Y-92272329D01*
X84952329Y-92221908D01*
X84958808Y-92215876D01*
X84999293Y-92180796D01*
X85006184Y-92175243D01*
X85008351Y-92173621D01*
X93998500Y-92173621D01*
X94148253Y-92255394D01*
X94152102Y-92257586D01*
X94175147Y-92271260D01*
X94178917Y-92273589D01*
X94208893Y-92292856D01*
X94212570Y-92295313D01*
X94234550Y-92310575D01*
X94238137Y-92313162D01*
X94495732Y-92505995D01*
X94499224Y-92508707D01*
X94520066Y-92525501D01*
X94523463Y-92528340D01*
X94550395Y-92551675D01*
X94553692Y-92554637D01*
X94573299Y-92572892D01*
X94576484Y-92575965D01*
X94804035Y-92803516D01*
X94807108Y-92806701D01*
X94825363Y-92826308D01*
X94828325Y-92829605D01*
X94851660Y-92856537D01*
X94854499Y-92859934D01*
X94871293Y-92880776D01*
X94874005Y-92884268D01*
X95066838Y-93141863D01*
X95069425Y-93145450D01*
X95084687Y-93167430D01*
X95087144Y-93171107D01*
X95106411Y-93201083D01*
X95108740Y-93204853D01*
X95122414Y-93227898D01*
X95124606Y-93231747D01*
X95278834Y-93514194D01*
X95280887Y-93518118D01*
X95283353Y-93523045D01*
X95500500Y-93523045D01*
X95500500Y-92021045D01*
X93998500Y-92021045D01*
X93998500Y-92173621D01*
X85008351Y-92173621D01*
X85178368Y-92046345D01*
X85185638Y-92041297D01*
X85217149Y-92021045D01*
X83998500Y-92021045D01*
X83998500Y-93523045D01*
X83000500Y-93523045D01*
X83000500Y-92021045D01*
X81498500Y-92021045D01*
X81498500Y-93523045D01*
X80500500Y-93523045D01*
X80500500Y-92021045D01*
X78998500Y-92021045D01*
X78998500Y-93523045D01*
X75500500Y-93523045D01*
X75500500Y-93216846D01*
X75476004Y-93205424D01*
X75471152Y-93203032D01*
X75442114Y-93187916D01*
X75437369Y-93185312D01*
X75399646Y-93163532D01*
X75395019Y-93160724D01*
X75367418Y-93143139D01*
X75362922Y-93140135D01*
X75088527Y-92947999D01*
X75052264Y-92908424D01*
X74975147Y-92774852D01*
X74841572Y-92697733D01*
X74801998Y-92661470D01*
X74755306Y-92594788D01*
X74745075Y-92609400D01*
X74741877Y-92613761D01*
X74721957Y-92639723D01*
X74718570Y-92643944D01*
X74690571Y-92677313D01*
X74687003Y-92681381D01*
X74664885Y-92705519D01*
X74661143Y-92709428D01*
X74469428Y-92901143D01*
X74465519Y-92904885D01*
X74441381Y-92927003D01*
X74437313Y-92930571D01*
X74403944Y-92958570D01*
X74399723Y-92961957D01*
X74373761Y-92981877D01*
X74369401Y-92985074D01*
X74147321Y-93140574D01*
X74142825Y-93143578D01*
X74115228Y-93161160D01*
X74110601Y-93163968D01*
X74072880Y-93185746D01*
X74068139Y-93188347D01*
X74039103Y-93203463D01*
X74034248Y-93205857D01*
X73998500Y-93222526D01*
X71265554Y-93222526D01*
X71263785Y-91179998D01*
X71634532Y-91179998D01*
X71634532Y-91180001D01*
X71654364Y-91406686D01*
X71654366Y-91406697D01*
X71713258Y-91626488D01*
X71713261Y-91626497D01*
X71809431Y-91832732D01*
X71809432Y-91832734D01*
X71939954Y-92019141D01*
X72100858Y-92180045D01*
X72100861Y-92180047D01*
X72287266Y-92310568D01*
X72493504Y-92406739D01*
X72713308Y-92465635D01*
X72875230Y-92479801D01*
X72939998Y-92485468D01*
X72940000Y-92485468D01*
X72940002Y-92485468D01*
X72996673Y-92480509D01*
X73166692Y-92465635D01*
X73386496Y-92406739D01*
X73592734Y-92310568D01*
X73779139Y-92180047D01*
X73940047Y-92019139D01*
X74070568Y-91832734D01*
X74166739Y-91626496D01*
X74225635Y-91406692D01*
X74245468Y-91180000D01*
X74245468Y-91179997D01*
X75265034Y-91179997D01*
X75265034Y-91180002D01*
X75284858Y-91406599D01*
X75284860Y-91406610D01*
X75343730Y-91626317D01*
X75343735Y-91626331D01*
X75439863Y-91832478D01*
X75490974Y-91905472D01*
X76170000Y-91226446D01*
X76170000Y-91232661D01*
X76197259Y-91334394D01*
X76249920Y-91425606D01*
X76324394Y-91500080D01*
X76415606Y-91552741D01*
X76517339Y-91580000D01*
X76523553Y-91580000D01*
X75844526Y-92259025D01*
X75917513Y-92310132D01*
X75917521Y-92310136D01*
X76123668Y-92406264D01*
X76123682Y-92406269D01*
X76343389Y-92465139D01*
X76343400Y-92465141D01*
X76569998Y-92484966D01*
X76570002Y-92484966D01*
X76796599Y-92465141D01*
X76796610Y-92465139D01*
X77016317Y-92406269D01*
X77016331Y-92406264D01*
X77222478Y-92310136D01*
X77295471Y-92259024D01*
X76616447Y-91580000D01*
X76622661Y-91580000D01*
X76724394Y-91552741D01*
X76815606Y-91500080D01*
X76890080Y-91425606D01*
X76942741Y-91334394D01*
X76970000Y-91232661D01*
X76970000Y-91226447D01*
X77649024Y-91905471D01*
X77700136Y-91832478D01*
X77796264Y-91626331D01*
X77796269Y-91626317D01*
X77855139Y-91406610D01*
X77855141Y-91406599D01*
X77874966Y-91180002D01*
X77874966Y-91179997D01*
X77861234Y-91023045D01*
X81611233Y-91023045D01*
X83000500Y-91023045D01*
X83998500Y-91023045D01*
X85500500Y-91023045D01*
X86498500Y-91023045D01*
X88000500Y-91023045D01*
X88998500Y-91023045D01*
X90500500Y-91023045D01*
X91498500Y-91023045D01*
X93000500Y-91023045D01*
X93998500Y-91023045D01*
X95500500Y-91023045D01*
X95500500Y-89521045D01*
X93998500Y-89521045D01*
X93998500Y-91023045D01*
X93000500Y-91023045D01*
X93000500Y-89521045D01*
X91498500Y-89521045D01*
X91498500Y-91023045D01*
X90500500Y-91023045D01*
X90500500Y-89521045D01*
X88998500Y-89521045D01*
X88998500Y-91023045D01*
X88000500Y-91023045D01*
X88000500Y-89521045D01*
X86498500Y-89521045D01*
X86498500Y-91023045D01*
X85500500Y-91023045D01*
X85500500Y-89521045D01*
X83998500Y-89521045D01*
X83998500Y-91023045D01*
X83000500Y-91023045D01*
X83000500Y-89521045D01*
X82977298Y-89521045D01*
X82954622Y-89605672D01*
X82953107Y-89610870D01*
X82943258Y-89642104D01*
X82941518Y-89647228D01*
X82926619Y-89688158D01*
X82924658Y-89693200D01*
X82912139Y-89723420D01*
X82909962Y-89728367D01*
X82795421Y-89974002D01*
X82793027Y-89978857D01*
X82777905Y-90007905D01*
X82775301Y-90012651D01*
X82753518Y-90050376D01*
X82750712Y-90055000D01*
X82733132Y-90082593D01*
X82730128Y-90087089D01*
X82537995Y-90361476D01*
X82498419Y-90397739D01*
X82364851Y-90474851D01*
X82287739Y-90608419D01*
X82251476Y-90647995D01*
X81977089Y-90840128D01*
X81972593Y-90843132D01*
X81945000Y-90860712D01*
X81940376Y-90863518D01*
X81902651Y-90885301D01*
X81897905Y-90887905D01*
X81868857Y-90903027D01*
X81864002Y-90905421D01*
X81618367Y-91019962D01*
X81613420Y-91022139D01*
X81611233Y-91023045D01*
X77861234Y-91023045D01*
X77855141Y-90953400D01*
X77855139Y-90953389D01*
X77796269Y-90733682D01*
X77796264Y-90733668D01*
X77700136Y-90527521D01*
X77700132Y-90527513D01*
X77649025Y-90454526D01*
X76970000Y-91133551D01*
X76970000Y-91127339D01*
X76942741Y-91025606D01*
X76890080Y-90934394D01*
X76815606Y-90859920D01*
X76724394Y-90807259D01*
X76622661Y-90780000D01*
X76616448Y-90780000D01*
X77295472Y-90100974D01*
X77222478Y-90049863D01*
X77016331Y-89953735D01*
X77016317Y-89953730D01*
X76796610Y-89894860D01*
X76796599Y-89894858D01*
X76570002Y-89875034D01*
X76569998Y-89875034D01*
X76343400Y-89894858D01*
X76343389Y-89894860D01*
X76123682Y-89953730D01*
X76123673Y-89953734D01*
X75917516Y-90049866D01*
X75917512Y-90049868D01*
X75844526Y-90100973D01*
X75844526Y-90100974D01*
X76523553Y-90780000D01*
X76517339Y-90780000D01*
X76415606Y-90807259D01*
X76324394Y-90859920D01*
X76249920Y-90934394D01*
X76197259Y-91025606D01*
X76170000Y-91127339D01*
X76170000Y-91133552D01*
X75490974Y-90454526D01*
X75490973Y-90454526D01*
X75439868Y-90527512D01*
X75439866Y-90527516D01*
X75343734Y-90733673D01*
X75343730Y-90733682D01*
X75284860Y-90953389D01*
X75284858Y-90953400D01*
X75265034Y-91179997D01*
X74245468Y-91179997D01*
X74225635Y-90953308D01*
X74166739Y-90733504D01*
X74070568Y-90527266D01*
X73940047Y-90340861D01*
X73940045Y-90340858D01*
X73779141Y-90179954D01*
X73592734Y-90049432D01*
X73592732Y-90049431D01*
X73386497Y-89953261D01*
X73386488Y-89953258D01*
X73166697Y-89894366D01*
X73166693Y-89894365D01*
X73166692Y-89894365D01*
X73166691Y-89894364D01*
X73166686Y-89894364D01*
X72940002Y-89874532D01*
X72939998Y-89874532D01*
X72713313Y-89894364D01*
X72713302Y-89894366D01*
X72493511Y-89953258D01*
X72493502Y-89953261D01*
X72287267Y-90049431D01*
X72287265Y-90049432D01*
X72100858Y-90179954D01*
X71939954Y-90340858D01*
X71809432Y-90527265D01*
X71809431Y-90527267D01*
X71713261Y-90733502D01*
X71713258Y-90733511D01*
X71654366Y-90953302D01*
X71654364Y-90953313D01*
X71634532Y-91179998D01*
X71263785Y-91179998D01*
X71260183Y-87021045D01*
X72384184Y-87021045D01*
X72385485Y-88523045D01*
X73000500Y-88523045D01*
X73998500Y-88523045D01*
X75500500Y-88523045D01*
X76498500Y-88523045D01*
X78000500Y-88523045D01*
X78000500Y-87021045D01*
X76498500Y-87021045D01*
X76498500Y-88523045D01*
X75500500Y-88523045D01*
X75500500Y-87021045D01*
X73998500Y-87021045D01*
X73998500Y-88523045D01*
X73000500Y-88523045D01*
X73000500Y-87021045D01*
X72384184Y-87021045D01*
X71260183Y-87021045D01*
X71259628Y-86379998D01*
X79464532Y-86379998D01*
X79464532Y-86380001D01*
X79484364Y-86606686D01*
X79484366Y-86606697D01*
X79543258Y-86826488D01*
X79543261Y-86826497D01*
X79639431Y-87032732D01*
X79639432Y-87032734D01*
X79769954Y-87219141D01*
X79930858Y-87380045D01*
X79930861Y-87380047D01*
X80117266Y-87510568D01*
X80132975Y-87517893D01*
X80185414Y-87564064D01*
X80204567Y-87631257D01*
X80184352Y-87698138D01*
X80132979Y-87742656D01*
X80117514Y-87749867D01*
X80117512Y-87749868D01*
X80044526Y-87800973D01*
X80044526Y-87800974D01*
X80723553Y-88480000D01*
X80717339Y-88480000D01*
X80615606Y-88507259D01*
X80524394Y-88559920D01*
X80449920Y-88634394D01*
X80397259Y-88725606D01*
X80370000Y-88827339D01*
X80370000Y-88833552D01*
X79690974Y-88154526D01*
X79690973Y-88154526D01*
X79639868Y-88227512D01*
X79639866Y-88227516D01*
X79543734Y-88433673D01*
X79543730Y-88433682D01*
X79484860Y-88653389D01*
X79484858Y-88653400D01*
X79465034Y-88879997D01*
X79465034Y-88880002D01*
X79484858Y-89106599D01*
X79484860Y-89106610D01*
X79543730Y-89326317D01*
X79543735Y-89326331D01*
X79639863Y-89532478D01*
X79690974Y-89605472D01*
X80370000Y-88926446D01*
X80370000Y-88932661D01*
X80397259Y-89034394D01*
X80449920Y-89125606D01*
X80524394Y-89200080D01*
X80615606Y-89252741D01*
X80717339Y-89280000D01*
X80723553Y-89280000D01*
X80044526Y-89959025D01*
X80117513Y-90010132D01*
X80117521Y-90010136D01*
X80323668Y-90106264D01*
X80323682Y-90106269D01*
X80543389Y-90165139D01*
X80543400Y-90165141D01*
X80769998Y-90184966D01*
X80770002Y-90184966D01*
X80996599Y-90165141D01*
X80996610Y-90165139D01*
X81216317Y-90106269D01*
X81216331Y-90106264D01*
X81422478Y-90010136D01*
X81495471Y-89959024D01*
X80816447Y-89280000D01*
X80822661Y-89280000D01*
X80924394Y-89252741D01*
X81015606Y-89200080D01*
X81090080Y-89125606D01*
X81142741Y-89034394D01*
X81170000Y-88932661D01*
X81170000Y-88926447D01*
X81849024Y-89605471D01*
X81900136Y-89532478D01*
X81996264Y-89326331D01*
X81996269Y-89326317D01*
X82055139Y-89106610D01*
X82055141Y-89106599D01*
X82074966Y-88880002D01*
X82074966Y-88879997D01*
X82055141Y-88653400D01*
X82055139Y-88653389D01*
X82020214Y-88523045D01*
X83998500Y-88523045D01*
X85500500Y-88523045D01*
X86498500Y-88523045D01*
X88000500Y-88523045D01*
X88998500Y-88523045D01*
X90500500Y-88523045D01*
X91498500Y-88523045D01*
X93000500Y-88523045D01*
X93998500Y-88523045D01*
X95500500Y-88523045D01*
X95500500Y-87021045D01*
X93998500Y-87021045D01*
X93998500Y-88523045D01*
X93000500Y-88523045D01*
X93000500Y-87021045D01*
X91498500Y-87021045D01*
X91498500Y-88523045D01*
X90500500Y-88523045D01*
X90500500Y-87021045D01*
X88998500Y-87021045D01*
X88998500Y-88523045D01*
X88000500Y-88523045D01*
X88000500Y-87021045D01*
X86498500Y-87021045D01*
X86498500Y-88523045D01*
X85500500Y-88523045D01*
X85500500Y-87021045D01*
X83998500Y-87021045D01*
X83998500Y-88523045D01*
X82020214Y-88523045D01*
X81996269Y-88433682D01*
X81996264Y-88433668D01*
X81900136Y-88227521D01*
X81900132Y-88227513D01*
X81849025Y-88154526D01*
X81170000Y-88833551D01*
X81170000Y-88827339D01*
X81142741Y-88725606D01*
X81090080Y-88634394D01*
X81015606Y-88559920D01*
X80924394Y-88507259D01*
X80822661Y-88480000D01*
X80816448Y-88480000D01*
X81495472Y-87800974D01*
X81422480Y-87749864D01*
X81407024Y-87742657D01*
X81354585Y-87696484D01*
X81335433Y-87629290D01*
X81355649Y-87562409D01*
X81407023Y-87517893D01*
X81422734Y-87510568D01*
X81609139Y-87380047D01*
X81770047Y-87219139D01*
X81900568Y-87032734D01*
X81996739Y-86826496D01*
X82055635Y-86606692D01*
X82075468Y-86380000D01*
X82055635Y-86153308D01*
X81996739Y-85933504D01*
X81900568Y-85727266D01*
X81770047Y-85540861D01*
X81770045Y-85540858D01*
X81609141Y-85379954D01*
X81422734Y-85249432D01*
X81422732Y-85249431D01*
X81216497Y-85153261D01*
X81216488Y-85153258D01*
X80996697Y-85094366D01*
X80996693Y-85094365D01*
X80996692Y-85094365D01*
X80996691Y-85094364D01*
X80996686Y-85094364D01*
X80770002Y-85074532D01*
X80769998Y-85074532D01*
X80543313Y-85094364D01*
X80543302Y-85094366D01*
X80323511Y-85153258D01*
X80323502Y-85153261D01*
X80117267Y-85249431D01*
X80117265Y-85249432D01*
X79930858Y-85379954D01*
X79769954Y-85540858D01*
X79639432Y-85727265D01*
X79639431Y-85727267D01*
X79543261Y-85933502D01*
X79543258Y-85933511D01*
X79484366Y-86153302D01*
X79484364Y-86153313D01*
X79464532Y-86379998D01*
X71259628Y-86379998D01*
X71258954Y-85602526D01*
X73998500Y-85602526D01*
X73998500Y-86023045D01*
X75500500Y-86023045D01*
X75500500Y-85861024D01*
X76498500Y-85861024D01*
X76498500Y-86023045D01*
X78000500Y-86023045D01*
X78000500Y-85364268D01*
X77999401Y-85365074D01*
X77777321Y-85520574D01*
X77772825Y-85523578D01*
X77745228Y-85541160D01*
X77740601Y-85543968D01*
X77702880Y-85565746D01*
X77698139Y-85568347D01*
X77669103Y-85583463D01*
X77664249Y-85585857D01*
X77418541Y-85700433D01*
X77413592Y-85702611D01*
X77383371Y-85715130D01*
X77378333Y-85717089D01*
X77337401Y-85731990D01*
X77332273Y-85733731D01*
X77301038Y-85743580D01*
X77295841Y-85745095D01*
X77033951Y-85815267D01*
X77028696Y-85816553D01*
X76996737Y-85823638D01*
X76991430Y-85824693D01*
X76948535Y-85832256D01*
X76943188Y-85833079D01*
X76910744Y-85837350D01*
X76905367Y-85837939D01*
X76635286Y-85861568D01*
X76629889Y-85861922D01*
X76597189Y-85863350D01*
X76591779Y-85863468D01*
X76548221Y-85863468D01*
X76542811Y-85863350D01*
X76510111Y-85861922D01*
X76504713Y-85861568D01*
X76498500Y-85861024D01*
X75500500Y-85861024D01*
X75500500Y-85597397D01*
X75475751Y-85585857D01*
X75470897Y-85583463D01*
X75441861Y-85568347D01*
X75437120Y-85565746D01*
X75399399Y-85543968D01*
X75394772Y-85541160D01*
X75367175Y-85523578D01*
X75362679Y-85520574D01*
X75140599Y-85365074D01*
X75136239Y-85361877D01*
X75110277Y-85341957D01*
X75106056Y-85338570D01*
X75072687Y-85310571D01*
X75068619Y-85307003D01*
X75044481Y-85284885D01*
X75040572Y-85281143D01*
X74848857Y-85089428D01*
X74845115Y-85085519D01*
X74822997Y-85061381D01*
X74819429Y-85057313D01*
X74795252Y-85028499D01*
X83998500Y-85028499D01*
X83998500Y-86023045D01*
X85500500Y-86023045D01*
X85500500Y-85028500D01*
X85466036Y-85028500D01*
X85461164Y-85028404D01*
X85431712Y-85027246D01*
X85426847Y-85026959D01*
X85387768Y-85023881D01*
X85382931Y-85023405D01*
X85353697Y-85019945D01*
X85348873Y-85019277D01*
X85084288Y-84977370D01*
X85079500Y-84976515D01*
X85050637Y-84970775D01*
X85045886Y-84969733D01*
X85007768Y-84960585D01*
X85003051Y-84959355D01*
X84974674Y-84951353D01*
X84970010Y-84949938D01*
X84715198Y-84867145D01*
X84710595Y-84865549D01*
X84706738Y-84864126D01*
X84701835Y-84866804D01*
X84693919Y-84870767D01*
X84645182Y-84893025D01*
X84637002Y-84896413D01*
X84439518Y-84970069D01*
X84432179Y-84972548D01*
X84387328Y-84986153D01*
X84379852Y-84988168D01*
X84319137Y-85002516D01*
X84311545Y-85004061D01*
X84265340Y-85011972D01*
X84257667Y-85013041D01*
X84153744Y-85024212D01*
X84150439Y-85024522D01*
X84130399Y-85026135D01*
X84127078Y-85026358D01*
X84100395Y-85027786D01*
X84097082Y-85027919D01*
X84077034Y-85028455D01*
X84073720Y-85028499D01*
X83998500Y-85028499D01*
X74795252Y-85028499D01*
X74791430Y-85023944D01*
X74788043Y-85019723D01*
X74768123Y-84993761D01*
X74764926Y-84989401D01*
X74755000Y-84975224D01*
X74745074Y-84989401D01*
X74741877Y-84993761D01*
X74721957Y-85019723D01*
X74718570Y-85023944D01*
X74690571Y-85057313D01*
X74687003Y-85061381D01*
X74664885Y-85085519D01*
X74661143Y-85089428D01*
X74469428Y-85281143D01*
X74465519Y-85284885D01*
X74441381Y-85307003D01*
X74437313Y-85310571D01*
X74403944Y-85338570D01*
X74399723Y-85341957D01*
X74373761Y-85361877D01*
X74369401Y-85365074D01*
X74147321Y-85520574D01*
X74142825Y-85523578D01*
X74115228Y-85541160D01*
X74110601Y-85543968D01*
X74072880Y-85565746D01*
X74068139Y-85568347D01*
X74039103Y-85583463D01*
X74034248Y-85585857D01*
X73998500Y-85602526D01*
X71258954Y-85602526D01*
X71257185Y-83559998D01*
X71634532Y-83559998D01*
X71634532Y-83560001D01*
X71654364Y-83786686D01*
X71654366Y-83786697D01*
X71713258Y-84006488D01*
X71713261Y-84006497D01*
X71809431Y-84212732D01*
X71809432Y-84212734D01*
X71939954Y-84399141D01*
X72100858Y-84560045D01*
X72100861Y-84560047D01*
X72287266Y-84690568D01*
X72493504Y-84786739D01*
X72713308Y-84845635D01*
X72875230Y-84859801D01*
X72939998Y-84865468D01*
X72940000Y-84865468D01*
X72940002Y-84865468D01*
X72996673Y-84860509D01*
X73166692Y-84845635D01*
X73386496Y-84786739D01*
X73592734Y-84690568D01*
X73779139Y-84560047D01*
X73940047Y-84399139D01*
X74070568Y-84212734D01*
X74166739Y-84006496D01*
X74225635Y-83786692D01*
X74245468Y-83560000D01*
X74245468Y-83559998D01*
X75264532Y-83559998D01*
X75264532Y-83560001D01*
X75284364Y-83786686D01*
X75284366Y-83786697D01*
X75343258Y-84006488D01*
X75343261Y-84006497D01*
X75439431Y-84212732D01*
X75439432Y-84212734D01*
X75569954Y-84399141D01*
X75730858Y-84560045D01*
X75730861Y-84560047D01*
X75917266Y-84690568D01*
X76123504Y-84786739D01*
X76343308Y-84845635D01*
X76505230Y-84859801D01*
X76569998Y-84865468D01*
X76570000Y-84865468D01*
X76570002Y-84865468D01*
X76607428Y-84862193D01*
X86498500Y-84862193D01*
X86498500Y-86023045D01*
X88000500Y-86023045D01*
X88000500Y-85028377D01*
X87971712Y-85027246D01*
X87966847Y-85026959D01*
X87927768Y-85023881D01*
X87922931Y-85023405D01*
X87893697Y-85019945D01*
X87888873Y-85019277D01*
X87624288Y-84977370D01*
X87619500Y-84976515D01*
X87590637Y-84970775D01*
X87585886Y-84969733D01*
X87547768Y-84960585D01*
X87543051Y-84959355D01*
X87514674Y-84951353D01*
X87510010Y-84949938D01*
X87281497Y-84875690D01*
X88998500Y-84875690D01*
X88998500Y-86023045D01*
X90500500Y-86023045D01*
X91498500Y-86023045D01*
X93000500Y-86023045D01*
X93998500Y-86023045D01*
X95500500Y-86023045D01*
X95500500Y-84521045D01*
X93998500Y-84521045D01*
X93998500Y-86023045D01*
X93000500Y-86023045D01*
X93000500Y-84521045D01*
X91498500Y-84521045D01*
X91498500Y-86023045D01*
X90500500Y-86023045D01*
X90500500Y-84521045D01*
X89634830Y-84521045D01*
X89472290Y-84639137D01*
X89468295Y-84641922D01*
X89443798Y-84658290D01*
X89439697Y-84660915D01*
X89406273Y-84681397D01*
X89402072Y-84683859D01*
X89376376Y-84698249D01*
X89372083Y-84700544D01*
X89133381Y-84822169D01*
X89129002Y-84824293D01*
X89102260Y-84836622D01*
X89097799Y-84838573D01*
X89061583Y-84853575D01*
X89057049Y-84855350D01*
X89029405Y-84865549D01*
X89024801Y-84867145D01*
X88998500Y-84875690D01*
X87281497Y-84875690D01*
X87255198Y-84867145D01*
X87250595Y-84865549D01*
X87222951Y-84855350D01*
X87218417Y-84853575D01*
X87182201Y-84838573D01*
X87177740Y-84836622D01*
X87150998Y-84824293D01*
X87146619Y-84822169D01*
X86907917Y-84700544D01*
X86903624Y-84698249D01*
X86877928Y-84683859D01*
X86873727Y-84681397D01*
X86870000Y-84679113D01*
X86866273Y-84681397D01*
X86862072Y-84683859D01*
X86836376Y-84698249D01*
X86832083Y-84700544D01*
X86593381Y-84822169D01*
X86589002Y-84824293D01*
X86562260Y-84836622D01*
X86557799Y-84838573D01*
X86521583Y-84853575D01*
X86517049Y-84855350D01*
X86498500Y-84862193D01*
X76607428Y-84862193D01*
X76626673Y-84860509D01*
X76796692Y-84845635D01*
X77016496Y-84786739D01*
X77222734Y-84690568D01*
X77409139Y-84560047D01*
X77570047Y-84399139D01*
X77700568Y-84212734D01*
X77796739Y-84006496D01*
X77855635Y-83786692D01*
X77875468Y-83560000D01*
X77874186Y-83545351D01*
X77872234Y-83523045D01*
X78998500Y-83523045D01*
X80500500Y-83523045D01*
X80500500Y-82021045D01*
X78998500Y-82021045D01*
X78998500Y-83523045D01*
X77872234Y-83523045D01*
X77855635Y-83333313D01*
X77855635Y-83333308D01*
X77796739Y-83113504D01*
X77700568Y-82907266D01*
X77570047Y-82720861D01*
X77570045Y-82720858D01*
X77409141Y-82559954D01*
X77222734Y-82429432D01*
X77222732Y-82429431D01*
X77016497Y-82333261D01*
X77016488Y-82333258D01*
X76796697Y-82274366D01*
X76796693Y-82274365D01*
X76796692Y-82274365D01*
X76796691Y-82274364D01*
X76796686Y-82274364D01*
X76570002Y-82254532D01*
X76569998Y-82254532D01*
X76343313Y-82274364D01*
X76343302Y-82274366D01*
X76123511Y-82333258D01*
X76123502Y-82333261D01*
X75917267Y-82429431D01*
X75917265Y-82429432D01*
X75730858Y-82559954D01*
X75569954Y-82720858D01*
X75439432Y-82907265D01*
X75439431Y-82907267D01*
X75343261Y-83113502D01*
X75343258Y-83113511D01*
X75284366Y-83333302D01*
X75284364Y-83333313D01*
X75264532Y-83559998D01*
X74245468Y-83559998D01*
X74244186Y-83545351D01*
X74225635Y-83333313D01*
X74225635Y-83333308D01*
X74166739Y-83113504D01*
X74070568Y-82907266D01*
X73940047Y-82720861D01*
X73940045Y-82720858D01*
X73779141Y-82559954D01*
X73592734Y-82429432D01*
X73592732Y-82429431D01*
X73386497Y-82333261D01*
X73386488Y-82333258D01*
X73166697Y-82274366D01*
X73166693Y-82274365D01*
X73166692Y-82274365D01*
X73166691Y-82274364D01*
X73166686Y-82274364D01*
X72940002Y-82254532D01*
X72939998Y-82254532D01*
X72713313Y-82274364D01*
X72713302Y-82274366D01*
X72493511Y-82333258D01*
X72493502Y-82333261D01*
X72287267Y-82429431D01*
X72287265Y-82429432D01*
X72100858Y-82559954D01*
X71939954Y-82720858D01*
X71809432Y-82907265D01*
X71809431Y-82907267D01*
X71713261Y-83113502D01*
X71713258Y-83113511D01*
X71654366Y-83333302D01*
X71654364Y-83333313D01*
X71634532Y-83559998D01*
X71257185Y-83559998D01*
X71255385Y-81482135D01*
X81607000Y-81482135D01*
X81607000Y-83577870D01*
X81607001Y-83577876D01*
X81613408Y-83637483D01*
X81663702Y-83772328D01*
X81663706Y-83772335D01*
X81749952Y-83887544D01*
X81749955Y-83887547D01*
X81865164Y-83973793D01*
X81865171Y-83973797D01*
X82000017Y-84024091D01*
X82000016Y-84024091D01*
X82006944Y-84024835D01*
X82059627Y-84030500D01*
X84060372Y-84030499D01*
X84119983Y-84024091D01*
X84254831Y-83973796D01*
X84370046Y-83887546D01*
X84456296Y-83772331D01*
X84466690Y-83744460D01*
X84508560Y-83688527D01*
X84574023Y-83664108D01*
X84642297Y-83678958D01*
X84655746Y-83687465D01*
X84838462Y-83820217D01*
X84970599Y-83887544D01*
X85042244Y-83924049D01*
X85259751Y-83994721D01*
X85259752Y-83994721D01*
X85259755Y-83994722D01*
X85485646Y-84030500D01*
X85485647Y-84030500D01*
X85714353Y-84030500D01*
X85714354Y-84030500D01*
X85940245Y-83994722D01*
X85940248Y-83994721D01*
X85940249Y-83994721D01*
X86157755Y-83924049D01*
X86157755Y-83924048D01*
X86157758Y-83924048D01*
X86361538Y-83820217D01*
X86546566Y-83685786D01*
X86708286Y-83524066D01*
X86769683Y-83439559D01*
X86825012Y-83396896D01*
X86894625Y-83390917D01*
X86956420Y-83423523D01*
X86970314Y-83439556D01*
X87031714Y-83524066D01*
X87193434Y-83685786D01*
X87378462Y-83820217D01*
X87510599Y-83887544D01*
X87582244Y-83924049D01*
X87799751Y-83994721D01*
X87799752Y-83994721D01*
X87799755Y-83994722D01*
X88025646Y-84030500D01*
X88025647Y-84030500D01*
X88254353Y-84030500D01*
X88254354Y-84030500D01*
X88480245Y-83994722D01*
X88480248Y-83994721D01*
X88480249Y-83994721D01*
X88697755Y-83924049D01*
X88697755Y-83924048D01*
X88697758Y-83924048D01*
X88901538Y-83820217D01*
X89086566Y-83685786D01*
X89248286Y-83524066D01*
X89249028Y-83523045D01*
X91498500Y-83523045D01*
X93000500Y-83523045D01*
X93998500Y-83523045D01*
X95500500Y-83523045D01*
X95500500Y-82021045D01*
X93998500Y-82021045D01*
X93998500Y-83523045D01*
X93000500Y-83523045D01*
X93000500Y-82021045D01*
X91498500Y-82021045D01*
X91498500Y-83523045D01*
X89249028Y-83523045D01*
X89382717Y-83339038D01*
X89486548Y-83135258D01*
X89557222Y-82917745D01*
X89593000Y-82691854D01*
X89593000Y-82368146D01*
X89557222Y-82142255D01*
X89557221Y-82142251D01*
X89557221Y-82142250D01*
X89486549Y-81924744D01*
X89486548Y-81924742D01*
X89382717Y-81720962D01*
X89248286Y-81535934D01*
X89086566Y-81374214D01*
X88901538Y-81239783D01*
X88697755Y-81135950D01*
X88480248Y-81065278D01*
X88294812Y-81035908D01*
X88254354Y-81029500D01*
X88025646Y-81029500D01*
X87985188Y-81035908D01*
X87799753Y-81065278D01*
X87799750Y-81065278D01*
X87582244Y-81135950D01*
X87378461Y-81239783D01*
X87312550Y-81287671D01*
X87193434Y-81374214D01*
X87193432Y-81374216D01*
X87193431Y-81374216D01*
X87031715Y-81535932D01*
X86970318Y-81620438D01*
X86914987Y-81663103D01*
X86845374Y-81669082D01*
X86783579Y-81636476D01*
X86769682Y-81620438D01*
X86758773Y-81605423D01*
X86708286Y-81535934D01*
X86546566Y-81374214D01*
X86361538Y-81239783D01*
X86157755Y-81135950D01*
X85940248Y-81065278D01*
X85754812Y-81035908D01*
X85714354Y-81029500D01*
X85485646Y-81029500D01*
X85445188Y-81035908D01*
X85259753Y-81065278D01*
X85259750Y-81065278D01*
X85042244Y-81135950D01*
X84838461Y-81239783D01*
X84655759Y-81372525D01*
X84589952Y-81396005D01*
X84521898Y-81380180D01*
X84473203Y-81330074D01*
X84466690Y-81315538D01*
X84456296Y-81287669D01*
X84456293Y-81287664D01*
X84370047Y-81172455D01*
X84370044Y-81172452D01*
X84254835Y-81086206D01*
X84254828Y-81086202D01*
X84119982Y-81035908D01*
X84119983Y-81035908D01*
X84060383Y-81029501D01*
X84060381Y-81029500D01*
X84060373Y-81029500D01*
X84060364Y-81029500D01*
X82059629Y-81029500D01*
X82059623Y-81029501D01*
X82000016Y-81035908D01*
X81865171Y-81086202D01*
X81865164Y-81086206D01*
X81749955Y-81172452D01*
X81749952Y-81172455D01*
X81663706Y-81287664D01*
X81663702Y-81287671D01*
X81613408Y-81422517D01*
X81607001Y-81482116D01*
X81607000Y-81482135D01*
X71255385Y-81482135D01*
X71253687Y-79521045D01*
X72377688Y-79521045D01*
X72378989Y-81023045D01*
X73000500Y-81023045D01*
X73998500Y-81023045D01*
X75500500Y-81023045D01*
X76498500Y-81023045D01*
X78000500Y-81023045D01*
X78998500Y-81023045D01*
X80500500Y-81023045D01*
X80500500Y-80197806D01*
X86498500Y-80197806D01*
X86517049Y-80204650D01*
X86521583Y-80206425D01*
X86557799Y-80221427D01*
X86562260Y-80223378D01*
X86589002Y-80235707D01*
X86593381Y-80237831D01*
X86832083Y-80359456D01*
X86836376Y-80361751D01*
X86862072Y-80376141D01*
X86866273Y-80378603D01*
X86870000Y-80380886D01*
X86873727Y-80378603D01*
X86877928Y-80376141D01*
X86903624Y-80361751D01*
X86907917Y-80359456D01*
X87146619Y-80237831D01*
X87150998Y-80235707D01*
X87177740Y-80223378D01*
X87182201Y-80221427D01*
X87218417Y-80206425D01*
X87222951Y-80204650D01*
X87250595Y-80194451D01*
X87255198Y-80192855D01*
X87281503Y-80184308D01*
X88998500Y-80184308D01*
X89024802Y-80192855D01*
X89029405Y-80194451D01*
X89057049Y-80204650D01*
X89061583Y-80206425D01*
X89097799Y-80221427D01*
X89102260Y-80223378D01*
X89129002Y-80235707D01*
X89133381Y-80237831D01*
X89372083Y-80359456D01*
X89376376Y-80361751D01*
X89402072Y-80376141D01*
X89406273Y-80378603D01*
X89439697Y-80399085D01*
X89443798Y-80401710D01*
X89468295Y-80418078D01*
X89472291Y-80420863D01*
X89689036Y-80578338D01*
X89692919Y-80581278D01*
X89716053Y-80599516D01*
X89719816Y-80602604D01*
X89749623Y-80628062D01*
X89753263Y-80631297D01*
X89774891Y-80651290D01*
X89778400Y-80654664D01*
X89967836Y-80844100D01*
X89971210Y-80847609D01*
X89991203Y-80869237D01*
X89994438Y-80872877D01*
X90019896Y-80902684D01*
X90022984Y-80906447D01*
X90041222Y-80929581D01*
X90044162Y-80933465D01*
X90109246Y-81023045D01*
X90500500Y-81023045D01*
X91498500Y-81023045D01*
X93000500Y-81023045D01*
X93998500Y-81023045D01*
X95500500Y-81023045D01*
X95500500Y-79521045D01*
X93998500Y-79521045D01*
X93998500Y-81023045D01*
X93000500Y-81023045D01*
X93000500Y-79521045D01*
X91498500Y-79521045D01*
X91498500Y-81023045D01*
X90500500Y-81023045D01*
X90500500Y-79521045D01*
X88998500Y-79521045D01*
X88998500Y-80184308D01*
X87281503Y-80184308D01*
X87510010Y-80110062D01*
X87514674Y-80108647D01*
X87543051Y-80100645D01*
X87547768Y-80099415D01*
X87585886Y-80090267D01*
X87590637Y-80089225D01*
X87619500Y-80083485D01*
X87624288Y-80082630D01*
X87888873Y-80040723D01*
X87893697Y-80040055D01*
X87922931Y-80036595D01*
X87927768Y-80036119D01*
X87966847Y-80033041D01*
X87971712Y-80032754D01*
X88000500Y-80031622D01*
X88000500Y-79521045D01*
X86498500Y-79521045D01*
X86498500Y-80197806D01*
X80500500Y-80197806D01*
X80500500Y-79802897D01*
X83998500Y-79802897D01*
X83998500Y-80031500D01*
X84073748Y-80031500D01*
X84077072Y-80031545D01*
X84097174Y-80032084D01*
X84100494Y-80032217D01*
X84127180Y-80033649D01*
X84130489Y-80033871D01*
X84150482Y-80035481D01*
X84153785Y-80035792D01*
X84257675Y-80046962D01*
X84265343Y-80048029D01*
X84311529Y-80055936D01*
X84319119Y-80057481D01*
X84379830Y-80071826D01*
X84387309Y-80073842D01*
X84432172Y-80087450D01*
X84439512Y-80089929D01*
X84637002Y-80163587D01*
X84645182Y-80166975D01*
X84693919Y-80189233D01*
X84701833Y-80193195D01*
X84706738Y-80195873D01*
X84710595Y-80194451D01*
X84715198Y-80192855D01*
X84970010Y-80110062D01*
X84974674Y-80108647D01*
X85003051Y-80100645D01*
X85007768Y-80099415D01*
X85045886Y-80090267D01*
X85050637Y-80089225D01*
X85079500Y-80083485D01*
X85084288Y-80082630D01*
X85348873Y-80040723D01*
X85353697Y-80040055D01*
X85382931Y-80036595D01*
X85387768Y-80036119D01*
X85426847Y-80033041D01*
X85431712Y-80032754D01*
X85461164Y-80031596D01*
X85466036Y-80031500D01*
X85500500Y-80031500D01*
X85500500Y-79521045D01*
X84802337Y-79521045D01*
X84712802Y-79573586D01*
X84708208Y-79576152D01*
X84680086Y-79591088D01*
X84675386Y-79593458D01*
X84637147Y-79611731D01*
X84632348Y-79613901D01*
X84603055Y-79626400D01*
X84598172Y-79628362D01*
X84339531Y-79725969D01*
X84334566Y-79727723D01*
X84304312Y-79737695D01*
X84299278Y-79739236D01*
X84258502Y-79750782D01*
X84253407Y-79752109D01*
X84222436Y-79759474D01*
X84217294Y-79760582D01*
X83998500Y-79802897D01*
X80500500Y-79802897D01*
X80500500Y-79521045D01*
X78998500Y-79521045D01*
X78998500Y-81023045D01*
X78000500Y-81023045D01*
X78000500Y-79521045D01*
X76498500Y-79521045D01*
X76498500Y-81023045D01*
X75500500Y-81023045D01*
X75500500Y-79521045D01*
X73998500Y-79521045D01*
X73998500Y-81023045D01*
X73000500Y-81023045D01*
X73000500Y-79521045D01*
X72377688Y-79521045D01*
X71253687Y-79521045D01*
X71251522Y-77021045D01*
X72375523Y-77021045D01*
X72376824Y-78523045D01*
X73000500Y-78523045D01*
X73998500Y-78523045D01*
X75500500Y-78523045D01*
X76498500Y-78523045D01*
X78000500Y-78523045D01*
X78998500Y-78523045D01*
X79755919Y-78523045D01*
X79746912Y-78506086D01*
X79744542Y-78501386D01*
X79726269Y-78463147D01*
X79724099Y-78458348D01*
X79711600Y-78429055D01*
X79709638Y-78424172D01*
X79612031Y-78165531D01*
X79610277Y-78160566D01*
X79600305Y-78130312D01*
X79598764Y-78125278D01*
X79587218Y-78084502D01*
X79585891Y-78079407D01*
X79578526Y-78048436D01*
X79577418Y-78043294D01*
X79525681Y-77775786D01*
X79524941Y-77771573D01*
X79520906Y-77746009D01*
X79520312Y-77741771D01*
X79516120Y-77707591D01*
X79515673Y-77703337D01*
X79513411Y-77677562D01*
X79513110Y-77673296D01*
X79508788Y-77591901D01*
X79508657Y-77588605D01*
X79508044Y-77565431D01*
X79508001Y-77562152D01*
X79508001Y-77021045D01*
X78998500Y-77021045D01*
X78998500Y-78523045D01*
X78000500Y-78523045D01*
X78000500Y-77021045D01*
X76498500Y-77021045D01*
X76498500Y-78523045D01*
X75500500Y-78523045D01*
X75500500Y-77021045D01*
X73998500Y-77021045D01*
X73998500Y-78523045D01*
X73000500Y-78523045D01*
X73000500Y-77021045D01*
X72375523Y-77021045D01*
X71251522Y-77021045D01*
X71250500Y-75841166D01*
X71250500Y-74521045D01*
X72373357Y-74521045D01*
X72374658Y-76023045D01*
X73000500Y-76023045D01*
X73998500Y-76023045D01*
X75500500Y-76023045D01*
X76498500Y-76023045D01*
X78000500Y-76023045D01*
X78000500Y-75613421D01*
X80506000Y-75613421D01*
X80506000Y-76332000D01*
X81322988Y-76332000D01*
X81290075Y-76389007D01*
X81256000Y-76516174D01*
X81256000Y-76647826D01*
X81290075Y-76774993D01*
X81322988Y-76832000D01*
X80506001Y-76832000D01*
X80506001Y-77550588D01*
X80508794Y-77603191D01*
X80553237Y-77832987D01*
X80635879Y-78051975D01*
X80754339Y-78253841D01*
X80754344Y-78253848D01*
X80905211Y-78432786D01*
X80905213Y-78432788D01*
X81084151Y-78583655D01*
X81084158Y-78583660D01*
X81286024Y-78702120D01*
X81505012Y-78784762D01*
X81734809Y-78829205D01*
X81787382Y-78831998D01*
X81787421Y-78831999D01*
X82505999Y-78831999D01*
X82506000Y-78831998D01*
X82506000Y-77082000D01*
X83006000Y-77082000D01*
X83006000Y-78831999D01*
X83724576Y-78831999D01*
X83724588Y-78831998D01*
X83777191Y-78829205D01*
X84006987Y-78784762D01*
X84225975Y-78702120D01*
X84427841Y-78583660D01*
X84427848Y-78583655D01*
X84499735Y-78523045D01*
X86498500Y-78523045D01*
X88000500Y-78523045D01*
X88998500Y-78523045D01*
X90500500Y-78523045D01*
X91498500Y-78523045D01*
X93000500Y-78523045D01*
X93998500Y-78523045D01*
X95500500Y-78523045D01*
X95500500Y-77021045D01*
X93998500Y-77021045D01*
X93998500Y-78523045D01*
X93000500Y-78523045D01*
X93000500Y-77021045D01*
X91498500Y-77021045D01*
X91498500Y-78523045D01*
X90500500Y-78523045D01*
X90500500Y-77021045D01*
X88998500Y-77021045D01*
X88998500Y-78523045D01*
X88000500Y-78523045D01*
X88000500Y-77021045D01*
X86498500Y-77021045D01*
X86498500Y-78523045D01*
X84499735Y-78523045D01*
X84606786Y-78432788D01*
X84606788Y-78432786D01*
X84757655Y-78253848D01*
X84757660Y-78253841D01*
X84876120Y-78051975D01*
X84958762Y-77832987D01*
X85003205Y-77603191D01*
X85003205Y-77603190D01*
X85005998Y-77550617D01*
X85006000Y-77550578D01*
X85006000Y-76832000D01*
X84189012Y-76832000D01*
X84221925Y-76774993D01*
X84256000Y-76647826D01*
X84256000Y-76516174D01*
X84221925Y-76389007D01*
X84189012Y-76332000D01*
X85005999Y-76332000D01*
X85005999Y-75613423D01*
X85005998Y-75613411D01*
X85003205Y-75560808D01*
X84958762Y-75331012D01*
X84883092Y-75130499D01*
X86498500Y-75130499D01*
X86498500Y-76023045D01*
X88000500Y-76023045D01*
X88998500Y-76023045D01*
X90500500Y-76023045D01*
X90500500Y-75804500D01*
X93998500Y-75804500D01*
X93998500Y-76023045D01*
X95500500Y-76023045D01*
X95500500Y-75261930D01*
X95345326Y-75382707D01*
X95341217Y-75385772D01*
X95315978Y-75403792D01*
X95311744Y-75406685D01*
X95277199Y-75429253D01*
X95272853Y-75431965D01*
X95246221Y-75447834D01*
X95241766Y-75450366D01*
X95001352Y-75580472D01*
X94996795Y-75582817D01*
X94968933Y-75596438D01*
X94964279Y-75598595D01*
X94926491Y-75615169D01*
X94921761Y-75617128D01*
X94892880Y-75628398D01*
X94888066Y-75630163D01*
X94629515Y-75718924D01*
X94624633Y-75720488D01*
X94594909Y-75729337D01*
X94589965Y-75730698D01*
X94549962Y-75740827D01*
X94544972Y-75741982D01*
X94514631Y-75748344D01*
X94509594Y-75749292D01*
X94239963Y-75794285D01*
X94234890Y-75795024D01*
X94204121Y-75798859D01*
X94199025Y-75799387D01*
X94157902Y-75802795D01*
X94152784Y-75803113D01*
X94121804Y-75804394D01*
X94116681Y-75804500D01*
X93998500Y-75804500D01*
X90500500Y-75804500D01*
X90500500Y-75804000D01*
X90478823Y-75804000D01*
X90475509Y-75803956D01*
X90455461Y-75803420D01*
X90452145Y-75803287D01*
X90425458Y-75801858D01*
X90422144Y-75801636D01*
X90402095Y-75800023D01*
X90398783Y-75799711D01*
X90294931Y-75788545D01*
X90287262Y-75787478D01*
X90241084Y-75779572D01*
X90233499Y-75778028D01*
X90172788Y-75763685D01*
X90165305Y-75761668D01*
X90120436Y-75748058D01*
X90113096Y-75745579D01*
X89915739Y-75671970D01*
X89907559Y-75668581D01*
X89858823Y-75646323D01*
X89850909Y-75642362D01*
X89788319Y-75608185D01*
X89780705Y-75603667D01*
X89735638Y-75574703D01*
X89728368Y-75569655D01*
X89556184Y-75440757D01*
X89549293Y-75435204D01*
X89508808Y-75400124D01*
X89502329Y-75394092D01*
X89451908Y-75343671D01*
X89445876Y-75337192D01*
X89410796Y-75296707D01*
X89405243Y-75289816D01*
X89276345Y-75117632D01*
X89271297Y-75110362D01*
X89242333Y-75065295D01*
X89237815Y-75057681D01*
X89203638Y-74995091D01*
X89199677Y-74987177D01*
X89177419Y-74938441D01*
X89174030Y-74930261D01*
X89100421Y-74732904D01*
X89097942Y-74725564D01*
X89084332Y-74680695D01*
X89082315Y-74673212D01*
X89067972Y-74612501D01*
X89066428Y-74604916D01*
X89058522Y-74558738D01*
X89057455Y-74551069D01*
X89054227Y-74521045D01*
X88998500Y-74521045D01*
X88998500Y-76023045D01*
X88000500Y-76023045D01*
X88000500Y-75046900D01*
X87933018Y-75072069D01*
X87925679Y-75074548D01*
X87880828Y-75088153D01*
X87873352Y-75090168D01*
X87812637Y-75104516D01*
X87805045Y-75106061D01*
X87758840Y-75113972D01*
X87751167Y-75115041D01*
X87647244Y-75126212D01*
X87643939Y-75126522D01*
X87623899Y-75128135D01*
X87620578Y-75128358D01*
X87593895Y-75129786D01*
X87590582Y-75129919D01*
X87570534Y-75130455D01*
X87567220Y-75130499D01*
X86498500Y-75130499D01*
X84883092Y-75130499D01*
X84876120Y-75112024D01*
X84757660Y-74910158D01*
X84757655Y-74910151D01*
X84606788Y-74731213D01*
X84606786Y-74731211D01*
X84427848Y-74580344D01*
X84427841Y-74580339D01*
X84225975Y-74461879D01*
X84006984Y-74379236D01*
X84001840Y-74378241D01*
X83939760Y-74346180D01*
X83904869Y-74285646D01*
X83908244Y-74215858D01*
X83948814Y-74158973D01*
X84013697Y-74133052D01*
X84025374Y-74132499D01*
X87553872Y-74132499D01*
X87613483Y-74126091D01*
X87748331Y-74075796D01*
X87863546Y-73989546D01*
X87949796Y-73874331D01*
X88000091Y-73739483D01*
X88006500Y-73679873D01*
X88006500Y-72458155D01*
X90040000Y-72458155D01*
X90040000Y-73156000D01*
X91064722Y-73156000D01*
X91020667Y-73232306D01*
X90990000Y-73346756D01*
X90990000Y-73465244D01*
X91020667Y-73579694D01*
X91064722Y-73656000D01*
X90040000Y-73656000D01*
X90040000Y-74353844D01*
X90046401Y-74413372D01*
X90046403Y-74413379D01*
X90096645Y-74548086D01*
X90096649Y-74548093D01*
X90182809Y-74663187D01*
X90182812Y-74663190D01*
X90297906Y-74749350D01*
X90297913Y-74749354D01*
X90432620Y-74799596D01*
X90432627Y-74799598D01*
X90492155Y-74805999D01*
X90492172Y-74806000D01*
X91190000Y-74806000D01*
X91190000Y-73781277D01*
X91266306Y-73825333D01*
X91380756Y-73856000D01*
X91499244Y-73856000D01*
X91613694Y-73825333D01*
X91690000Y-73781277D01*
X91690000Y-74806000D01*
X92387828Y-74806000D01*
X92387844Y-74805999D01*
X92447372Y-74799598D01*
X92447379Y-74799596D01*
X92582086Y-74749354D01*
X92582093Y-74749350D01*
X92697187Y-74663190D01*
X92697190Y-74663187D01*
X92783350Y-74548093D01*
X92783355Y-74548084D01*
X92812075Y-74471081D01*
X92853945Y-74415147D01*
X92919409Y-74390729D01*
X92987682Y-74405580D01*
X93019484Y-74430428D01*
X93028216Y-74439913D01*
X93028219Y-74439915D01*
X93028222Y-74439918D01*
X93211365Y-74582464D01*
X93211371Y-74582468D01*
X93211374Y-74582470D01*
X93415497Y-74692936D01*
X93510539Y-74725564D01*
X93635015Y-74768297D01*
X93635017Y-74768297D01*
X93635019Y-74768298D01*
X93863951Y-74806500D01*
X93863952Y-74806500D01*
X94096048Y-74806500D01*
X94096049Y-74806500D01*
X94324981Y-74768298D01*
X94544503Y-74692936D01*
X94748626Y-74582470D01*
X94751358Y-74580344D01*
X94903562Y-74461879D01*
X94931784Y-74439913D01*
X95088979Y-74269153D01*
X95215924Y-74074849D01*
X95309157Y-73862300D01*
X95366134Y-73637305D01*
X95377397Y-73501380D01*
X95385300Y-73406006D01*
X95385300Y-73405993D01*
X95366135Y-73174702D01*
X95366133Y-73174691D01*
X95309157Y-72949699D01*
X95215924Y-72737151D01*
X95088983Y-72542852D01*
X95088980Y-72542849D01*
X95088979Y-72542847D01*
X94931784Y-72372087D01*
X94931779Y-72372083D01*
X94931777Y-72372081D01*
X94748634Y-72229535D01*
X94748628Y-72229531D01*
X94544504Y-72119064D01*
X94544495Y-72119061D01*
X94324984Y-72043702D01*
X94137404Y-72012401D01*
X94096049Y-72005500D01*
X93863951Y-72005500D01*
X93822596Y-72012401D01*
X93635015Y-72043702D01*
X93415504Y-72119061D01*
X93415495Y-72119064D01*
X93211371Y-72229531D01*
X93211365Y-72229535D01*
X93028222Y-72372081D01*
X93028215Y-72372087D01*
X93019484Y-72381572D01*
X92959595Y-72417561D01*
X92889757Y-72415458D01*
X92832143Y-72375932D01*
X92812075Y-72340918D01*
X92783355Y-72263915D01*
X92783350Y-72263906D01*
X92697190Y-72148812D01*
X92697187Y-72148809D01*
X92582093Y-72062649D01*
X92582086Y-72062645D01*
X92447379Y-72012403D01*
X92447372Y-72012401D01*
X92387844Y-72006000D01*
X91690000Y-72006000D01*
X91690000Y-73030722D01*
X91613694Y-72986667D01*
X91499244Y-72956000D01*
X91380756Y-72956000D01*
X91266306Y-72986667D01*
X91190000Y-73030722D01*
X91190000Y-72006000D01*
X90492155Y-72006000D01*
X90432627Y-72012401D01*
X90432620Y-72012403D01*
X90297913Y-72062645D01*
X90297906Y-72062649D01*
X90182812Y-72148809D01*
X90182809Y-72148812D01*
X90096649Y-72263906D01*
X90096645Y-72263913D01*
X90046403Y-72398620D01*
X90046401Y-72398627D01*
X90040000Y-72458155D01*
X88006500Y-72458155D01*
X88006499Y-70084128D01*
X88000091Y-70024517D01*
X87981558Y-69974829D01*
X88998500Y-69974829D01*
X89000212Y-69990756D01*
X89000522Y-69994061D01*
X89002135Y-70014101D01*
X89002358Y-70017422D01*
X89003786Y-70044105D01*
X89003919Y-70047418D01*
X89004455Y-70067466D01*
X89004499Y-70070780D01*
X89004499Y-71023045D01*
X90298744Y-71023045D01*
X90398783Y-71012289D01*
X90402095Y-71011977D01*
X90422144Y-71010364D01*
X90425458Y-71010142D01*
X90452145Y-71008713D01*
X90455461Y-71008580D01*
X90475509Y-71008044D01*
X90478823Y-71008000D01*
X90500500Y-71008000D01*
X91498500Y-71008000D01*
X92401177Y-71008000D01*
X92404491Y-71008044D01*
X92424539Y-71008580D01*
X92427855Y-71008713D01*
X92454542Y-71010142D01*
X92457856Y-71010364D01*
X92477905Y-71011977D01*
X92481217Y-71012289D01*
X92581256Y-71023045D01*
X93000500Y-71023045D01*
X93000500Y-71007500D01*
X93998500Y-71007500D01*
X94116681Y-71007500D01*
X94121804Y-71007606D01*
X94152784Y-71008887D01*
X94157902Y-71009205D01*
X94199025Y-71012613D01*
X94204121Y-71013141D01*
X94234890Y-71016976D01*
X94239963Y-71017715D01*
X94271904Y-71023045D01*
X95500500Y-71023045D01*
X95500500Y-69521045D01*
X93998500Y-69521045D01*
X93998500Y-71007500D01*
X93000500Y-71007500D01*
X93000500Y-69521045D01*
X91498500Y-69521045D01*
X91498500Y-71008000D01*
X90500500Y-71008000D01*
X90500500Y-69521045D01*
X88998500Y-69521045D01*
X88998500Y-69974829D01*
X87981558Y-69974829D01*
X87960571Y-69918559D01*
X87949797Y-69889671D01*
X87949793Y-69889664D01*
X87863547Y-69774455D01*
X87863544Y-69774452D01*
X87748335Y-69688206D01*
X87748328Y-69688202D01*
X87613482Y-69637908D01*
X87613483Y-69637908D01*
X87553883Y-69631501D01*
X87553881Y-69631500D01*
X87553873Y-69631500D01*
X87553864Y-69631500D01*
X83958129Y-69631500D01*
X83958123Y-69631501D01*
X83898516Y-69637908D01*
X83763671Y-69688202D01*
X83763664Y-69688206D01*
X83648455Y-69774452D01*
X83648452Y-69774455D01*
X83562206Y-69889664D01*
X83562202Y-69889671D01*
X83511908Y-70024517D01*
X83505916Y-70080258D01*
X83505501Y-70084123D01*
X83505500Y-70084135D01*
X83505500Y-73679870D01*
X83505501Y-73679876D01*
X83511908Y-73739483D01*
X83562202Y-73874328D01*
X83562206Y-73874335D01*
X83648452Y-73989544D01*
X83648455Y-73989547D01*
X83763664Y-74075793D01*
X83763673Y-74075798D01*
X83812506Y-74094011D01*
X83868440Y-74135881D01*
X83892858Y-74201345D01*
X83878007Y-74269618D01*
X83828603Y-74319024D01*
X83762598Y-74334018D01*
X83724625Y-74332001D01*
X83724579Y-74332000D01*
X83006000Y-74332000D01*
X83006000Y-76082000D01*
X82506000Y-76082000D01*
X82506000Y-74332000D01*
X81787423Y-74332000D01*
X81787411Y-74332001D01*
X81734808Y-74334794D01*
X81505012Y-74379237D01*
X81286024Y-74461879D01*
X81084158Y-74580339D01*
X81084151Y-74580344D01*
X80905213Y-74731211D01*
X80905211Y-74731213D01*
X80754344Y-74910151D01*
X80754339Y-74910158D01*
X80635879Y-75112024D01*
X80553237Y-75331012D01*
X80508794Y-75560808D01*
X80508794Y-75560809D01*
X80506001Y-75613382D01*
X80506000Y-75613421D01*
X78000500Y-75613421D01*
X78000500Y-74894312D01*
X77953494Y-74872962D01*
X77948478Y-74870547D01*
X77918483Y-74855263D01*
X77913587Y-74852628D01*
X77874621Y-74830519D01*
X77869842Y-74827664D01*
X77841337Y-74809753D01*
X77836693Y-74806687D01*
X77614901Y-74653030D01*
X77610397Y-74649758D01*
X77583595Y-74629350D01*
X77579241Y-74625877D01*
X77544850Y-74597162D01*
X77540661Y-74593503D01*
X77515827Y-74570802D01*
X77511809Y-74566959D01*
X77465895Y-74521045D01*
X76498500Y-74521045D01*
X76498500Y-76023045D01*
X75500500Y-76023045D01*
X75500500Y-74521045D01*
X73998500Y-74521045D01*
X73998500Y-76023045D01*
X73000500Y-76023045D01*
X73000500Y-74521045D01*
X72373357Y-74521045D01*
X71250500Y-74521045D01*
X71250500Y-72021045D01*
X72371192Y-72021045D01*
X72372493Y-73523045D01*
X73000500Y-73523045D01*
X73998500Y-73523045D01*
X75500500Y-73523045D01*
X76498500Y-73523045D01*
X76849262Y-73523045D01*
X76793517Y-73301816D01*
X76792349Y-73296731D01*
X76785931Y-73265826D01*
X76784978Y-73260697D01*
X76778175Y-73219250D01*
X76777438Y-73214082D01*
X76773642Y-73182754D01*
X76773124Y-73177567D01*
X76759729Y-73007366D01*
X76759442Y-73002500D01*
X76758096Y-72968202D01*
X76758001Y-72963339D01*
X76758001Y-72021045D01*
X76498500Y-72021045D01*
X76498500Y-73523045D01*
X75500500Y-73523045D01*
X75500500Y-72021045D01*
X73998500Y-72021045D01*
X73998500Y-73523045D01*
X73000500Y-73523045D01*
X73000500Y-72021045D01*
X72371192Y-72021045D01*
X71250500Y-72021045D01*
X71250500Y-69521045D01*
X72369027Y-69521045D01*
X72370328Y-71023045D01*
X73000500Y-71023045D01*
X73998500Y-71023045D01*
X75500500Y-71023045D01*
X76498500Y-71023045D01*
X76758000Y-71023045D01*
X76758000Y-70817803D01*
X77756000Y-70817803D01*
X77756000Y-71632000D01*
X79256000Y-71632000D01*
X79256000Y-72132000D01*
X77756001Y-72132000D01*
X77756001Y-72946197D01*
X77766400Y-73078332D01*
X77821377Y-73296519D01*
X77914428Y-73501374D01*
X77914431Y-73501380D01*
X78042559Y-73686323D01*
X78042569Y-73686335D01*
X78201664Y-73845430D01*
X78201676Y-73845440D01*
X78386619Y-73973568D01*
X78386625Y-73973571D01*
X78591480Y-74066622D01*
X78809667Y-74121599D01*
X78941810Y-74131999D01*
X79505999Y-74131999D01*
X79506000Y-74131998D01*
X79506000Y-73315012D01*
X79563007Y-73347925D01*
X79690174Y-73382000D01*
X79821826Y-73382000D01*
X79948993Y-73347925D01*
X80006000Y-73315012D01*
X80006000Y-74131999D01*
X80570182Y-74131999D01*
X80570197Y-74131998D01*
X80702332Y-74121599D01*
X80920519Y-74066622D01*
X81125374Y-73973571D01*
X81125380Y-73973568D01*
X81310323Y-73845440D01*
X81310335Y-73845430D01*
X81469430Y-73686335D01*
X81469440Y-73686323D01*
X81597568Y-73501380D01*
X81597571Y-73501374D01*
X81690622Y-73296519D01*
X81745599Y-73078332D01*
X81755999Y-72946196D01*
X81756000Y-72946184D01*
X81756000Y-72132000D01*
X80256000Y-72132000D01*
X80256000Y-71632000D01*
X81755999Y-71632000D01*
X81755999Y-70817817D01*
X81755998Y-70817802D01*
X81745599Y-70685667D01*
X81690622Y-70467480D01*
X81597571Y-70262625D01*
X81597568Y-70262619D01*
X81469440Y-70077676D01*
X81469430Y-70077664D01*
X81310335Y-69918569D01*
X81310323Y-69918559D01*
X81125380Y-69790431D01*
X81125374Y-69790428D01*
X80920519Y-69697377D01*
X80702332Y-69642400D01*
X80570196Y-69632000D01*
X80006000Y-69632000D01*
X80006000Y-70448988D01*
X79948993Y-70416075D01*
X79821826Y-70382000D01*
X79690174Y-70382000D01*
X79563007Y-70416075D01*
X79506000Y-70448988D01*
X79506000Y-69632000D01*
X78941817Y-69632000D01*
X78941802Y-69632001D01*
X78809667Y-69642400D01*
X78591480Y-69697377D01*
X78386625Y-69790428D01*
X78386619Y-69790431D01*
X78201676Y-69918559D01*
X78201664Y-69918569D01*
X78042569Y-70077664D01*
X78042559Y-70077676D01*
X77914431Y-70262619D01*
X77914428Y-70262625D01*
X77821377Y-70467480D01*
X77766400Y-70685667D01*
X77756000Y-70817803D01*
X76758000Y-70817803D01*
X76758000Y-70800663D01*
X76758095Y-70795801D01*
X76759441Y-70761499D01*
X76759728Y-70756632D01*
X76773124Y-70586429D01*
X76773643Y-70581237D01*
X76777440Y-70549912D01*
X76778176Y-70544751D01*
X76784978Y-70503305D01*
X76785931Y-70498174D01*
X76792349Y-70467269D01*
X76793517Y-70462184D01*
X76859101Y-70201906D01*
X76860582Y-70196541D01*
X76870268Y-70164286D01*
X76871988Y-70158992D01*
X76886787Y-70116702D01*
X76888742Y-70111494D01*
X76901272Y-70080258D01*
X76903459Y-70075142D01*
X77015038Y-69829494D01*
X77017453Y-69824478D01*
X77032737Y-69794483D01*
X77035372Y-69789587D01*
X77057481Y-69750621D01*
X77060336Y-69745842D01*
X77078247Y-69717337D01*
X77081313Y-69712693D01*
X77214086Y-69521045D01*
X76498500Y-69521045D01*
X76498500Y-71023045D01*
X75500500Y-71023045D01*
X75500500Y-69521045D01*
X73998500Y-69521045D01*
X73998500Y-71023045D01*
X73000500Y-71023045D01*
X73000500Y-69521045D01*
X72369027Y-69521045D01*
X71250500Y-69521045D01*
X71250500Y-67021045D01*
X72366861Y-67021045D01*
X72368162Y-68523045D01*
X73000500Y-68523045D01*
X73998500Y-68523045D01*
X75500500Y-68523045D01*
X76498500Y-68523045D01*
X78000500Y-68523045D01*
X78998500Y-68523045D01*
X80500500Y-68523045D01*
X81498500Y-68523045D01*
X83000500Y-68523045D01*
X83998500Y-68523045D01*
X85500500Y-68523045D01*
X86498500Y-68523045D01*
X88000500Y-68523045D01*
X88998500Y-68523045D01*
X90500500Y-68523045D01*
X90500500Y-67646500D01*
X90283176Y-67646500D01*
X90278053Y-67646394D01*
X90247073Y-67645113D01*
X90241955Y-67644795D01*
X90200832Y-67641387D01*
X90195736Y-67640859D01*
X90164967Y-67637024D01*
X90159894Y-67636285D01*
X89882090Y-67589928D01*
X89877053Y-67588980D01*
X89846711Y-67582618D01*
X89841720Y-67581463D01*
X89801718Y-67571334D01*
X89796775Y-67569973D01*
X89767051Y-67561124D01*
X89762169Y-67559560D01*
X89495789Y-67468111D01*
X89490982Y-67466349D01*
X89462114Y-67455086D01*
X89457379Y-67453125D01*
X89419589Y-67436551D01*
X89414936Y-67434395D01*
X89387062Y-67420769D01*
X89382502Y-67418422D01*
X89349500Y-67400562D01*
X91498500Y-67400562D01*
X91498500Y-68523045D01*
X93000500Y-68523045D01*
X93000500Y-67033473D01*
X92997170Y-67021045D01*
X92065960Y-67021045D01*
X92043015Y-67040479D01*
X92039036Y-67043710D01*
X91816769Y-67216708D01*
X91812659Y-67219772D01*
X91787419Y-67237793D01*
X91783185Y-67240687D01*
X91748640Y-67263255D01*
X91744295Y-67265966D01*
X91717662Y-67281836D01*
X91713206Y-67284369D01*
X91498500Y-67400562D01*
X89349500Y-67400562D01*
X89134794Y-67284369D01*
X89130338Y-67281836D01*
X89103705Y-67265966D01*
X89099360Y-67263255D01*
X89064815Y-67240687D01*
X89060581Y-67237793D01*
X89035341Y-67219772D01*
X89031231Y-67216708D01*
X88998500Y-67191232D01*
X88998500Y-68523045D01*
X88000500Y-68523045D01*
X88000500Y-67021045D01*
X86498500Y-67021045D01*
X86498500Y-68523045D01*
X85500500Y-68523045D01*
X85500500Y-67021045D01*
X83998500Y-67021045D01*
X83998500Y-68523045D01*
X83000500Y-68523045D01*
X83000500Y-67021045D01*
X81498500Y-67021045D01*
X81498500Y-68523045D01*
X80500500Y-68523045D01*
X80500500Y-67021045D01*
X78998500Y-67021045D01*
X78998500Y-68523045D01*
X78000500Y-68523045D01*
X78000500Y-67021045D01*
X76498500Y-67021045D01*
X76498500Y-68523045D01*
X75500500Y-68523045D01*
X75500500Y-67021045D01*
X73998500Y-67021045D01*
X73998500Y-68523045D01*
X73000500Y-68523045D01*
X73000500Y-67021045D01*
X72366861Y-67021045D01*
X71250500Y-67021045D01*
X71250500Y-64521045D01*
X72364696Y-64521045D01*
X72365997Y-66023045D01*
X73000500Y-66023045D01*
X73998500Y-66023045D01*
X75500500Y-66023045D01*
X76498500Y-66023045D01*
X78000500Y-66023045D01*
X78998500Y-66023045D01*
X80500500Y-66023045D01*
X81498500Y-66023045D01*
X83000500Y-66023045D01*
X83998500Y-66023045D01*
X85500500Y-66023045D01*
X86498500Y-66023045D01*
X88000500Y-66023045D01*
X88000500Y-65580817D01*
X87999855Y-65576392D01*
X87996021Y-65545631D01*
X87995493Y-65540535D01*
X87972234Y-65259853D01*
X87971916Y-65254736D01*
X87970635Y-65223756D01*
X87970529Y-65218633D01*
X87970529Y-65177367D01*
X87970635Y-65172244D01*
X87971916Y-65141264D01*
X87972234Y-65136147D01*
X87995493Y-64855465D01*
X87996021Y-64850369D01*
X87999855Y-64819608D01*
X88000500Y-64815178D01*
X88000500Y-64521045D01*
X86498500Y-64521045D01*
X86498500Y-66023045D01*
X85500500Y-66023045D01*
X85500500Y-64521045D01*
X83998500Y-64521045D01*
X83998500Y-66023045D01*
X83000500Y-66023045D01*
X83000500Y-64521045D01*
X81498500Y-64521045D01*
X81498500Y-66023045D01*
X80500500Y-66023045D01*
X80500500Y-64521045D01*
X78998500Y-64521045D01*
X78998500Y-66023045D01*
X78000500Y-66023045D01*
X78000500Y-64521045D01*
X76498500Y-64521045D01*
X76498500Y-66023045D01*
X75500500Y-66023045D01*
X75500500Y-64521045D01*
X73998500Y-64521045D01*
X73998500Y-66023045D01*
X73000500Y-66023045D01*
X73000500Y-64521045D01*
X72364696Y-64521045D01*
X71250500Y-64521045D01*
X71250500Y-62021045D01*
X72362531Y-62021045D01*
X72363832Y-63523045D01*
X73000500Y-63523045D01*
X73998500Y-63523045D01*
X75500500Y-63523045D01*
X76498500Y-63523045D01*
X78000500Y-63523045D01*
X78000500Y-63204500D01*
X78998500Y-63204500D01*
X78998500Y-63523045D01*
X80500500Y-63523045D01*
X80500500Y-63173976D01*
X81498500Y-63173976D01*
X81498500Y-63523045D01*
X83000500Y-63523045D01*
X83000500Y-63204499D01*
X83998500Y-63204499D01*
X83998500Y-63523045D01*
X85500500Y-63523045D01*
X86498500Y-63523045D01*
X88000500Y-63523045D01*
X88000500Y-63080817D01*
X87999855Y-63076392D01*
X87996021Y-63045631D01*
X87995493Y-63040535D01*
X87972234Y-62759853D01*
X87971916Y-62754736D01*
X87970635Y-62723756D01*
X87970529Y-62718633D01*
X87970529Y-62697994D01*
X88968529Y-62697994D01*
X88968529Y-62698005D01*
X88988379Y-62937559D01*
X89047389Y-63170589D01*
X89143951Y-63390729D01*
X89230398Y-63523045D01*
X89275429Y-63591969D01*
X89438236Y-63768825D01*
X89542718Y-63850147D01*
X89583531Y-63906857D01*
X89587206Y-63976630D01*
X89552575Y-64037313D01*
X89542724Y-64045848D01*
X89468294Y-64103779D01*
X89438237Y-64127174D01*
X89275430Y-64304029D01*
X89275427Y-64304033D01*
X89143951Y-64505270D01*
X89047389Y-64725410D01*
X88988379Y-64958440D01*
X88968529Y-65197994D01*
X88968529Y-65198005D01*
X88988379Y-65437559D01*
X89047389Y-65670589D01*
X89143951Y-65890729D01*
X89146916Y-65895267D01*
X89275429Y-66091969D01*
X89438236Y-66268825D01*
X89438239Y-66268827D01*
X89438242Y-66268830D01*
X89627924Y-66416466D01*
X89627930Y-66416470D01*
X89627933Y-66416472D01*
X89839344Y-66530882D01*
X89839347Y-66530883D01*
X90066699Y-66608933D01*
X90066701Y-66608933D01*
X90066703Y-66608934D01*
X90303808Y-66648500D01*
X90303809Y-66648500D01*
X90544191Y-66648500D01*
X90544192Y-66648500D01*
X90781297Y-66608934D01*
X90958799Y-66547998D01*
X93944532Y-66547998D01*
X93944532Y-66548001D01*
X93964364Y-66774686D01*
X93964366Y-66774697D01*
X94023258Y-66994488D01*
X94023261Y-66994497D01*
X94119431Y-67200732D01*
X94119432Y-67200734D01*
X94249954Y-67387141D01*
X94410858Y-67548045D01*
X94410861Y-67548047D01*
X94597266Y-67678568D01*
X94803504Y-67774739D01*
X95023308Y-67833635D01*
X95185230Y-67847801D01*
X95249998Y-67853468D01*
X95250000Y-67853468D01*
X95250002Y-67853468D01*
X95306673Y-67848509D01*
X95476692Y-67833635D01*
X95696496Y-67774739D01*
X95902734Y-67678568D01*
X96089139Y-67548047D01*
X96250047Y-67387139D01*
X96380568Y-67200734D01*
X96476739Y-66994496D01*
X96535635Y-66774692D01*
X96555468Y-66548000D01*
X96553970Y-66530883D01*
X96543961Y-66416472D01*
X96535635Y-66321308D01*
X96476739Y-66101504D01*
X96380568Y-65895266D01*
X96250047Y-65708861D01*
X96250045Y-65708858D01*
X96089141Y-65547954D01*
X95902734Y-65417432D01*
X95902732Y-65417431D01*
X95696497Y-65321261D01*
X95696488Y-65321258D01*
X95476697Y-65262366D01*
X95476693Y-65262365D01*
X95476692Y-65262365D01*
X95476691Y-65262364D01*
X95476686Y-65262364D01*
X95250002Y-65242532D01*
X95249998Y-65242532D01*
X95023313Y-65262364D01*
X95023302Y-65262366D01*
X94803511Y-65321258D01*
X94803502Y-65321261D01*
X94597267Y-65417431D01*
X94597265Y-65417432D01*
X94410858Y-65547954D01*
X94249954Y-65708858D01*
X94119432Y-65895265D01*
X94119431Y-65895267D01*
X94023261Y-66101502D01*
X94023258Y-66101511D01*
X93964366Y-66321302D01*
X93964364Y-66321313D01*
X93944532Y-66547998D01*
X90958799Y-66547998D01*
X91008656Y-66530882D01*
X91220067Y-66416472D01*
X91409764Y-66268825D01*
X91572571Y-66091969D01*
X91704049Y-65890728D01*
X91800610Y-65670591D01*
X91859620Y-65437563D01*
X91869257Y-65321258D01*
X91879471Y-65198005D01*
X91879471Y-65197994D01*
X91859620Y-64958440D01*
X91859620Y-64958437D01*
X91800610Y-64725409D01*
X91704049Y-64505272D01*
X91572571Y-64304031D01*
X91409764Y-64127175D01*
X91305281Y-64045852D01*
X91264469Y-63989143D01*
X91260794Y-63919370D01*
X91295425Y-63858687D01*
X91305275Y-63850151D01*
X91409764Y-63768825D01*
X91572571Y-63591969D01*
X91617602Y-63523045D01*
X93998500Y-63523045D01*
X95500500Y-63523045D01*
X95500500Y-62021045D01*
X93998500Y-62021045D01*
X93998500Y-63523045D01*
X91617602Y-63523045D01*
X91704049Y-63390728D01*
X91800610Y-63170591D01*
X91859620Y-62937563D01*
X91877337Y-62723756D01*
X91879471Y-62698005D01*
X91879471Y-62697994D01*
X91859620Y-62458440D01*
X91859620Y-62458437D01*
X91800610Y-62225409D01*
X91704049Y-62005272D01*
X91698132Y-61996216D01*
X91610302Y-61861783D01*
X91572571Y-61804031D01*
X91563240Y-61793895D01*
X91532320Y-61731241D01*
X91540181Y-61661815D01*
X91584328Y-61607660D01*
X91611140Y-61593732D01*
X91616331Y-61591796D01*
X91731546Y-61505546D01*
X91817796Y-61390331D01*
X91868091Y-61255483D01*
X91874500Y-61195873D01*
X91874499Y-59200128D01*
X91868091Y-59140517D01*
X91817796Y-59005669D01*
X91817795Y-59005668D01*
X91817793Y-59005664D01*
X91759652Y-58927998D01*
X93944532Y-58927998D01*
X93944532Y-58928001D01*
X93964364Y-59154686D01*
X93964366Y-59154697D01*
X94023258Y-59374488D01*
X94023261Y-59374497D01*
X94119431Y-59580732D01*
X94119432Y-59580734D01*
X94249954Y-59767141D01*
X94410858Y-59928045D01*
X94410861Y-59928047D01*
X94597266Y-60058568D01*
X94803504Y-60154739D01*
X95023308Y-60213635D01*
X95185230Y-60227801D01*
X95249998Y-60233468D01*
X95250000Y-60233468D01*
X95250002Y-60233468D01*
X95306673Y-60228509D01*
X95476692Y-60213635D01*
X95696496Y-60154739D01*
X95902734Y-60058568D01*
X96089139Y-59928047D01*
X96250047Y-59767139D01*
X96380568Y-59580734D01*
X96476739Y-59374496D01*
X96535635Y-59154692D01*
X96555468Y-58928000D01*
X96535635Y-58701308D01*
X96476739Y-58481504D01*
X96380568Y-58275266D01*
X96250047Y-58088861D01*
X96250045Y-58088858D01*
X96089141Y-57927954D01*
X95902734Y-57797432D01*
X95902732Y-57797431D01*
X95696497Y-57701261D01*
X95696488Y-57701258D01*
X95476697Y-57642366D01*
X95476693Y-57642365D01*
X95476692Y-57642365D01*
X95476691Y-57642364D01*
X95476686Y-57642364D01*
X95250002Y-57622532D01*
X95249998Y-57622532D01*
X95023313Y-57642364D01*
X95023302Y-57642366D01*
X94803511Y-57701258D01*
X94803502Y-57701261D01*
X94597267Y-57797431D01*
X94597265Y-57797432D01*
X94410858Y-57927954D01*
X94249954Y-58088858D01*
X94119432Y-58275265D01*
X94119431Y-58275267D01*
X94023261Y-58481502D01*
X94023258Y-58481511D01*
X93964366Y-58701302D01*
X93964364Y-58701313D01*
X93944532Y-58927998D01*
X91759652Y-58927998D01*
X91731547Y-58890455D01*
X91731544Y-58890452D01*
X91616335Y-58804206D01*
X91616328Y-58804202D01*
X91481482Y-58753908D01*
X91481483Y-58753908D01*
X91421883Y-58747501D01*
X91421881Y-58747500D01*
X91421873Y-58747500D01*
X91421864Y-58747500D01*
X89426129Y-58747500D01*
X89426123Y-58747501D01*
X89366516Y-58753908D01*
X89231671Y-58804202D01*
X89231664Y-58804206D01*
X89116455Y-58890452D01*
X89116452Y-58890455D01*
X89030206Y-59005664D01*
X89030202Y-59005671D01*
X88979908Y-59140517D01*
X88978384Y-59154697D01*
X88973501Y-59200123D01*
X88973500Y-59200135D01*
X88973500Y-61195870D01*
X88973501Y-61195876D01*
X88979908Y-61255483D01*
X89030202Y-61390328D01*
X89030206Y-61390335D01*
X89116452Y-61505544D01*
X89116455Y-61505547D01*
X89231664Y-61591793D01*
X89231666Y-61591794D01*
X89231669Y-61591796D01*
X89236856Y-61593730D01*
X89292790Y-61635597D01*
X89317211Y-61701060D01*
X89302364Y-61769334D01*
X89284762Y-61793893D01*
X89275426Y-61804034D01*
X89143951Y-62005270D01*
X89047389Y-62225410D01*
X88988379Y-62458440D01*
X88968529Y-62697994D01*
X87970529Y-62697994D01*
X87970529Y-62677367D01*
X87970635Y-62672244D01*
X87971916Y-62641264D01*
X87972234Y-62636147D01*
X87995493Y-62355465D01*
X87996021Y-62350369D01*
X87999855Y-62319608D01*
X88000500Y-62315178D01*
X88000500Y-62021045D01*
X86498500Y-62021045D01*
X86498500Y-63523045D01*
X85500500Y-63523045D01*
X85500500Y-63128546D01*
X85453518Y-63146069D01*
X85446179Y-63148548D01*
X85401328Y-63162153D01*
X85393852Y-63164168D01*
X85333137Y-63178516D01*
X85325545Y-63180061D01*
X85279340Y-63187972D01*
X85271667Y-63189041D01*
X85167744Y-63200212D01*
X85164439Y-63200522D01*
X85144399Y-63202135D01*
X85141078Y-63202358D01*
X85114395Y-63203786D01*
X85111082Y-63203919D01*
X85091034Y-63204455D01*
X85087720Y-63204499D01*
X83998500Y-63204499D01*
X83000500Y-63204499D01*
X83000500Y-63201886D01*
X82983518Y-63200519D01*
X82980215Y-63200208D01*
X82876325Y-63189038D01*
X82868657Y-63187971D01*
X82822471Y-63180064D01*
X82814881Y-63178519D01*
X82754170Y-63164174D01*
X82746691Y-63162158D01*
X82701828Y-63148550D01*
X82694488Y-63146071D01*
X82496998Y-63072413D01*
X82488818Y-63069025D01*
X82440081Y-63046767D01*
X82432167Y-63042805D01*
X82426674Y-63039805D01*
X82423191Y-63041091D01*
X82418597Y-63042684D01*
X82163877Y-63125449D01*
X82159214Y-63126863D01*
X82130835Y-63134866D01*
X82126116Y-63136097D01*
X82087997Y-63145245D01*
X82083247Y-63146287D01*
X82054385Y-63152027D01*
X82049597Y-63152882D01*
X81721135Y-63204907D01*
X81668077Y-63201778D01*
X81533999Y-63163963D01*
X81498500Y-63173976D01*
X80500500Y-63173976D01*
X80500500Y-62977165D01*
X80302180Y-62876117D01*
X80297886Y-62873822D01*
X80272189Y-62859431D01*
X80267991Y-62856970D01*
X80264480Y-62854818D01*
X80260273Y-62857397D01*
X80256072Y-62859859D01*
X80230376Y-62874249D01*
X80226083Y-62876544D01*
X79987381Y-62998169D01*
X79983002Y-63000293D01*
X79956260Y-63012622D01*
X79951799Y-63014573D01*
X79915583Y-63029575D01*
X79911049Y-63031350D01*
X79883405Y-63041549D01*
X79878802Y-63043145D01*
X79623990Y-63125938D01*
X79619326Y-63127353D01*
X79590949Y-63135355D01*
X79586232Y-63136585D01*
X79548114Y-63145733D01*
X79543363Y-63146775D01*
X79514500Y-63152515D01*
X79509712Y-63153370D01*
X79245127Y-63195277D01*
X79240303Y-63195945D01*
X79211069Y-63199405D01*
X79206232Y-63199881D01*
X79167153Y-63202959D01*
X79162288Y-63203246D01*
X79132836Y-63204404D01*
X79127964Y-63204500D01*
X78998500Y-63204500D01*
X78000500Y-63204500D01*
X78000500Y-62998108D01*
X77761917Y-62876544D01*
X77757624Y-62874249D01*
X77731928Y-62859859D01*
X77727727Y-62857397D01*
X77694303Y-62836915D01*
X77690202Y-62834290D01*
X77665705Y-62817922D01*
X77661709Y-62815137D01*
X77444964Y-62657662D01*
X77441081Y-62654722D01*
X77417947Y-62636484D01*
X77414184Y-62633396D01*
X77384377Y-62607938D01*
X77380737Y-62604703D01*
X77359109Y-62584710D01*
X77355600Y-62581336D01*
X77166164Y-62391900D01*
X77162790Y-62388391D01*
X77142797Y-62366763D01*
X77139562Y-62363123D01*
X77114104Y-62333316D01*
X77111016Y-62329553D01*
X77092778Y-62306419D01*
X77089838Y-62302536D01*
X76932363Y-62085791D01*
X76929578Y-62081795D01*
X76913210Y-62057298D01*
X76910585Y-62053197D01*
X76890882Y-62021045D01*
X76498500Y-62021045D01*
X76498500Y-63523045D01*
X75500500Y-63523045D01*
X75500500Y-62021045D01*
X73998500Y-62021045D01*
X73998500Y-63523045D01*
X73000500Y-63523045D01*
X73000500Y-62021045D01*
X72362531Y-62021045D01*
X71250500Y-62021045D01*
X71250500Y-59521045D01*
X72360366Y-59521045D01*
X72361667Y-61023045D01*
X73000500Y-61023045D01*
X73998500Y-61023045D01*
X75500500Y-61023045D01*
X75500500Y-60544146D01*
X77541000Y-60544146D01*
X77541000Y-60867853D01*
X77576778Y-61093746D01*
X77576778Y-61093749D01*
X77647450Y-61311255D01*
X77746446Y-61505544D01*
X77751283Y-61515038D01*
X77885714Y-61700066D01*
X78047434Y-61861786D01*
X78232462Y-61996217D01*
X78408261Y-62085791D01*
X78436244Y-62100049D01*
X78653751Y-62170721D01*
X78653752Y-62170721D01*
X78653755Y-62170722D01*
X78879646Y-62206500D01*
X78879647Y-62206500D01*
X79108353Y-62206500D01*
X79108354Y-62206500D01*
X79334245Y-62170722D01*
X79334248Y-62170721D01*
X79334249Y-62170721D01*
X79551755Y-62100049D01*
X79551755Y-62100048D01*
X79551758Y-62100048D01*
X79755538Y-61996217D01*
X79940566Y-61861786D01*
X80102286Y-61700066D01*
X80163992Y-61615134D01*
X80219319Y-61572470D01*
X80288932Y-61566491D01*
X80350727Y-61599096D01*
X80364626Y-61615135D01*
X80426097Y-61699741D01*
X80426097Y-61699742D01*
X80587757Y-61861402D01*
X80772723Y-61995788D01*
X80976429Y-62099582D01*
X81193871Y-62170234D01*
X81284000Y-62184509D01*
X81284000Y-61196747D01*
X81321708Y-61218518D01*
X81461591Y-61256000D01*
X81606409Y-61256000D01*
X81746292Y-61218518D01*
X81784000Y-61196747D01*
X81784000Y-62184508D01*
X81874128Y-62170234D01*
X82091570Y-62099582D01*
X82295276Y-61995788D01*
X82478059Y-61862988D01*
X82543865Y-61839508D01*
X82611919Y-61855333D01*
X82660614Y-61905439D01*
X82667127Y-61919974D01*
X82677701Y-61948326D01*
X82677706Y-61948335D01*
X82763952Y-62063544D01*
X82763955Y-62063547D01*
X82879164Y-62149793D01*
X82879171Y-62149797D01*
X83014017Y-62200091D01*
X83014016Y-62200091D01*
X83020944Y-62200835D01*
X83073627Y-62206500D01*
X85074372Y-62206499D01*
X85133983Y-62200091D01*
X85268831Y-62149796D01*
X85384046Y-62063546D01*
X85470296Y-61948331D01*
X85520591Y-61813483D01*
X85527000Y-61753873D01*
X85526999Y-59658128D01*
X85520591Y-59598517D01*
X85513958Y-59580734D01*
X85491696Y-59521045D01*
X86516013Y-59521045D01*
X86520712Y-59564756D01*
X86521022Y-59568061D01*
X86522635Y-59588101D01*
X86522858Y-59591422D01*
X86524286Y-59618105D01*
X86524419Y-59621418D01*
X86524955Y-59641466D01*
X86524999Y-59644780D01*
X86525000Y-61023045D01*
X87975501Y-61023045D01*
X87975500Y-59521045D01*
X86516013Y-59521045D01*
X85491696Y-59521045D01*
X85470297Y-59463671D01*
X85470293Y-59463664D01*
X85384047Y-59348455D01*
X85384044Y-59348452D01*
X85268835Y-59262206D01*
X85268828Y-59262202D01*
X85133982Y-59211908D01*
X85133983Y-59211908D01*
X85074383Y-59205501D01*
X85074381Y-59205500D01*
X85074373Y-59205500D01*
X85074364Y-59205500D01*
X83073629Y-59205500D01*
X83073623Y-59205501D01*
X83014016Y-59211908D01*
X82879171Y-59262202D01*
X82879164Y-59262206D01*
X82763955Y-59348452D01*
X82763952Y-59348455D01*
X82677706Y-59463664D01*
X82677702Y-59463671D01*
X82667127Y-59492026D01*
X82625256Y-59547960D01*
X82559791Y-59572377D01*
X82491518Y-59557525D01*
X82478060Y-59549011D01*
X82295279Y-59416213D01*
X82091568Y-59312417D01*
X81874124Y-59241765D01*
X81784000Y-59227490D01*
X81784000Y-60215252D01*
X81746292Y-60193482D01*
X81606409Y-60156000D01*
X81461591Y-60156000D01*
X81321708Y-60193482D01*
X81284000Y-60215252D01*
X81284000Y-59227490D01*
X81283999Y-59227490D01*
X81193875Y-59241765D01*
X80976431Y-59312417D01*
X80772723Y-59416211D01*
X80587757Y-59550597D01*
X80426097Y-59712257D01*
X80364627Y-59796864D01*
X80309297Y-59839529D01*
X80239684Y-59845508D01*
X80177889Y-59812902D01*
X80163991Y-59796864D01*
X80142396Y-59767141D01*
X80102286Y-59711934D01*
X79940566Y-59550214D01*
X79755538Y-59415783D01*
X79674492Y-59374488D01*
X79551755Y-59311950D01*
X79334248Y-59241278D01*
X79148812Y-59211908D01*
X79108354Y-59205500D01*
X78879646Y-59205500D01*
X78839188Y-59211908D01*
X78653753Y-59241278D01*
X78653750Y-59241278D01*
X78436244Y-59311950D01*
X78232461Y-59415783D01*
X78166550Y-59463671D01*
X78047434Y-59550214D01*
X78047432Y-59550216D01*
X78047431Y-59550216D01*
X77885716Y-59711931D01*
X77885716Y-59711932D01*
X77885714Y-59711934D01*
X77845605Y-59767139D01*
X77751283Y-59896961D01*
X77647450Y-60100744D01*
X77576778Y-60318250D01*
X77576778Y-60318253D01*
X77541000Y-60544146D01*
X75500500Y-60544146D01*
X75500500Y-59521045D01*
X73998500Y-59521045D01*
X73998500Y-61023045D01*
X73000500Y-61023045D01*
X73000500Y-59521045D01*
X72360366Y-59521045D01*
X71250500Y-59521045D01*
X71250500Y-57021045D01*
X72358200Y-57021045D01*
X72359501Y-58523045D01*
X73000500Y-58523045D01*
X73998500Y-58523045D01*
X75500500Y-58523045D01*
X75500500Y-58264124D01*
X75495146Y-58254852D01*
X75361572Y-58177733D01*
X75321997Y-58141470D01*
X75129863Y-57867077D01*
X75126858Y-57862579D01*
X75109274Y-57834978D01*
X75106468Y-57830355D01*
X75084688Y-57792633D01*
X75082084Y-57787886D01*
X75066968Y-57758848D01*
X75064576Y-57753996D01*
X74950038Y-57508367D01*
X74947861Y-57503420D01*
X74935342Y-57473200D01*
X74933381Y-57468158D01*
X74918482Y-57427228D01*
X74916742Y-57422104D01*
X74906893Y-57390870D01*
X74905378Y-57385673D01*
X74835227Y-57123866D01*
X74833941Y-57118610D01*
X74826856Y-57086651D01*
X74825800Y-57081343D01*
X74818237Y-57038447D01*
X74817415Y-57033101D01*
X74815828Y-57021045D01*
X73998500Y-57021045D01*
X73998500Y-58523045D01*
X73000500Y-58523045D01*
X73000500Y-57021045D01*
X72358200Y-57021045D01*
X71250500Y-57021045D01*
X71250500Y-56659997D01*
X75785034Y-56659997D01*
X75785034Y-56660002D01*
X75804858Y-56886599D01*
X75804860Y-56886610D01*
X75863730Y-57106317D01*
X75863735Y-57106331D01*
X75959863Y-57312478D01*
X76010974Y-57385472D01*
X76690000Y-56706446D01*
X76690000Y-56712661D01*
X76717259Y-56814394D01*
X76769920Y-56905606D01*
X76844394Y-56980080D01*
X76935606Y-57032741D01*
X77037339Y-57060000D01*
X77043553Y-57060000D01*
X76364526Y-57739025D01*
X76437513Y-57790132D01*
X76437521Y-57790136D01*
X76643668Y-57886264D01*
X76643682Y-57886269D01*
X76863389Y-57945139D01*
X76863400Y-57945141D01*
X77089998Y-57964966D01*
X77090002Y-57964966D01*
X77316599Y-57945141D01*
X77316610Y-57945139D01*
X77536317Y-57886269D01*
X77536331Y-57886264D01*
X77742478Y-57790136D01*
X77815471Y-57739024D01*
X77136447Y-57060000D01*
X77142661Y-57060000D01*
X77244394Y-57032741D01*
X77335606Y-56980080D01*
X77410080Y-56905606D01*
X77462741Y-56814394D01*
X77490000Y-56712661D01*
X77490000Y-56706447D01*
X78169024Y-57385471D01*
X78220134Y-57312481D01*
X78227340Y-57297028D01*
X78273511Y-57244587D01*
X78340704Y-57225433D01*
X78407585Y-57245646D01*
X78452105Y-57297022D01*
X78459430Y-57312730D01*
X78459432Y-57312734D01*
X78589954Y-57499141D01*
X78750858Y-57660045D01*
X78750861Y-57660047D01*
X78937266Y-57790568D01*
X79143504Y-57886739D01*
X79363308Y-57945635D01*
X79525230Y-57959801D01*
X79589998Y-57965468D01*
X79590000Y-57965468D01*
X79590002Y-57965468D01*
X79646673Y-57960509D01*
X79816692Y-57945635D01*
X80036496Y-57886739D01*
X80242734Y-57790568D01*
X80429139Y-57660047D01*
X80590047Y-57499139D01*
X80643875Y-57422262D01*
X80698449Y-57378639D01*
X80721274Y-57375171D01*
X81408000Y-56688446D01*
X81408000Y-56694661D01*
X81435259Y-56796394D01*
X81487920Y-56887606D01*
X81562394Y-56962080D01*
X81653606Y-57014741D01*
X81755339Y-57042000D01*
X81761553Y-57042000D01*
X81082526Y-57721025D01*
X81155513Y-57772132D01*
X81155521Y-57772136D01*
X81361668Y-57868264D01*
X81361682Y-57868269D01*
X81581389Y-57927139D01*
X81581400Y-57927141D01*
X81807998Y-57946966D01*
X81808002Y-57946966D01*
X82034599Y-57927141D01*
X82034610Y-57927139D01*
X82254317Y-57868269D01*
X82254331Y-57868264D01*
X82460478Y-57772136D01*
X82533471Y-57721024D01*
X81854447Y-57042000D01*
X81860661Y-57042000D01*
X81962394Y-57014741D01*
X82053606Y-56962080D01*
X82128080Y-56887606D01*
X82180741Y-56796394D01*
X82208000Y-56694661D01*
X82208000Y-56688447D01*
X82887024Y-57367471D01*
X82938134Y-57294481D01*
X82945340Y-57279028D01*
X82991511Y-57226587D01*
X83058704Y-57207433D01*
X83125585Y-57227646D01*
X83170105Y-57279022D01*
X83177430Y-57294730D01*
X83177432Y-57294734D01*
X83307954Y-57481141D01*
X83468858Y-57642045D01*
X83494565Y-57660045D01*
X83655266Y-57772568D01*
X83861504Y-57868739D01*
X84081308Y-57927635D01*
X84243230Y-57941801D01*
X84307998Y-57947468D01*
X84308000Y-57947468D01*
X84308002Y-57947468D01*
X84364673Y-57942509D01*
X84534692Y-57927635D01*
X84754496Y-57868739D01*
X84960734Y-57772568D01*
X85147139Y-57642047D01*
X85308047Y-57481139D01*
X85401504Y-57347668D01*
X86498500Y-57347668D01*
X86498500Y-58523045D01*
X88000500Y-58523045D01*
X88000500Y-57826013D01*
X88998500Y-57826013D01*
X89046982Y-57807931D01*
X89054321Y-57805452D01*
X89099172Y-57791847D01*
X89106648Y-57789832D01*
X89167363Y-57775484D01*
X89174955Y-57773939D01*
X89221160Y-57766028D01*
X89228833Y-57764959D01*
X89332756Y-57753788D01*
X89336061Y-57753478D01*
X89349516Y-57752395D01*
X91498500Y-57752395D01*
X91511982Y-57753481D01*
X91515285Y-57753792D01*
X91619175Y-57764962D01*
X91626843Y-57766029D01*
X91673029Y-57773936D01*
X91680619Y-57775481D01*
X91741330Y-57789826D01*
X91748809Y-57791842D01*
X91793672Y-57805450D01*
X91801012Y-57807929D01*
X91998502Y-57881587D01*
X92006682Y-57884975D01*
X92055419Y-57907233D01*
X92063333Y-57911195D01*
X92125923Y-57945372D01*
X92133537Y-57949890D01*
X92178604Y-57978854D01*
X92185874Y-57983902D01*
X92358173Y-58112886D01*
X92365064Y-58118439D01*
X92405549Y-58153519D01*
X92412028Y-58159551D01*
X92462449Y-58209972D01*
X92468481Y-58216451D01*
X92503561Y-58256936D01*
X92509114Y-58263827D01*
X92638098Y-58436126D01*
X92643146Y-58443396D01*
X92672110Y-58488463D01*
X92676628Y-58496077D01*
X92691354Y-58523045D01*
X92982402Y-58523045D01*
X92985307Y-58506570D01*
X92986362Y-58501263D01*
X92993447Y-58469304D01*
X92994733Y-58464050D01*
X93000500Y-58442526D01*
X93000500Y-57021045D01*
X91498500Y-57021045D01*
X91498500Y-57752395D01*
X89349516Y-57752395D01*
X89356101Y-57751865D01*
X89359422Y-57751642D01*
X89386105Y-57750214D01*
X89389418Y-57750081D01*
X89409466Y-57749545D01*
X89412780Y-57749501D01*
X90500500Y-57749500D01*
X90500500Y-57021045D01*
X88998500Y-57021045D01*
X88998500Y-57826013D01*
X88000500Y-57826013D01*
X88000500Y-57021045D01*
X86580166Y-57021045D01*
X86572693Y-57063430D01*
X86571638Y-57068737D01*
X86564553Y-57100696D01*
X86563267Y-57105951D01*
X86498500Y-57347668D01*
X85401504Y-57347668D01*
X85438568Y-57294734D01*
X85534739Y-57088496D01*
X85593635Y-56868692D01*
X85611893Y-56659999D01*
X85613468Y-56642001D01*
X85613468Y-56641998D01*
X85599960Y-56487606D01*
X85593635Y-56415308D01*
X85534739Y-56195504D01*
X85438568Y-55989266D01*
X85401502Y-55936330D01*
X86498500Y-55936330D01*
X86521735Y-56023045D01*
X88000500Y-56023045D01*
X88998500Y-56023045D01*
X90500500Y-56023045D01*
X91498500Y-56023045D01*
X93000500Y-56023045D01*
X93998500Y-56023045D01*
X95500500Y-56023045D01*
X95500500Y-54521045D01*
X93998500Y-54521045D01*
X93998500Y-56023045D01*
X93000500Y-56023045D01*
X93000500Y-54521045D01*
X91498500Y-54521045D01*
X91498500Y-56023045D01*
X90500500Y-56023045D01*
X90500500Y-54521045D01*
X88998500Y-54521045D01*
X88998500Y-56023045D01*
X88000500Y-56023045D01*
X88000500Y-54521045D01*
X86498500Y-54521045D01*
X86498500Y-55936330D01*
X85401502Y-55936330D01*
X85320648Y-55820857D01*
X85308045Y-55802858D01*
X85147141Y-55641954D01*
X84960734Y-55511432D01*
X84960732Y-55511431D01*
X84754497Y-55415261D01*
X84754488Y-55415258D01*
X84534697Y-55356366D01*
X84534693Y-55356365D01*
X84534692Y-55356365D01*
X84534691Y-55356364D01*
X84534686Y-55356364D01*
X84308002Y-55336532D01*
X84307998Y-55336532D01*
X84081313Y-55356364D01*
X84081302Y-55356366D01*
X83861511Y-55415258D01*
X83861502Y-55415261D01*
X83655267Y-55511431D01*
X83655265Y-55511432D01*
X83468858Y-55641954D01*
X83307954Y-55802858D01*
X83177432Y-55989265D01*
X83177429Y-55989270D01*
X83170104Y-56004979D01*
X83123929Y-56057417D01*
X83056735Y-56076566D01*
X82989855Y-56056347D01*
X82945341Y-56004973D01*
X82938133Y-55989515D01*
X82938132Y-55989513D01*
X82887025Y-55916526D01*
X82208000Y-56595551D01*
X82208000Y-56589339D01*
X82180741Y-56487606D01*
X82128080Y-56396394D01*
X82053606Y-56321920D01*
X81962394Y-56269259D01*
X81860661Y-56242000D01*
X81854448Y-56242000D01*
X82533472Y-55562974D01*
X82460478Y-55511863D01*
X82254331Y-55415735D01*
X82254317Y-55415730D01*
X82034610Y-55356860D01*
X82034599Y-55356858D01*
X81808002Y-55337034D01*
X81807998Y-55337034D01*
X81581400Y-55356858D01*
X81581389Y-55356860D01*
X81361682Y-55415730D01*
X81361673Y-55415734D01*
X81155516Y-55511866D01*
X81155512Y-55511868D01*
X81082526Y-55562973D01*
X81082526Y-55562974D01*
X81761553Y-56242000D01*
X81755339Y-56242000D01*
X81653606Y-56269259D01*
X81562394Y-56321920D01*
X81487920Y-56396394D01*
X81435259Y-56487606D01*
X81408000Y-56589339D01*
X81408000Y-56595553D01*
X80727699Y-55915252D01*
X80664003Y-55902451D01*
X80620121Y-55863812D01*
X80611738Y-55851840D01*
X80590047Y-55820861D01*
X80590046Y-55820860D01*
X80590044Y-55820857D01*
X80429141Y-55659954D01*
X80242734Y-55529432D01*
X80242732Y-55529431D01*
X80036497Y-55433261D01*
X80036488Y-55433258D01*
X79816697Y-55374366D01*
X79816693Y-55374365D01*
X79816692Y-55374365D01*
X79816691Y-55374364D01*
X79816686Y-55374364D01*
X79590002Y-55354532D01*
X79589998Y-55354532D01*
X79363313Y-55374364D01*
X79363302Y-55374366D01*
X79143511Y-55433258D01*
X79143502Y-55433261D01*
X78937267Y-55529431D01*
X78937265Y-55529432D01*
X78750858Y-55659954D01*
X78589954Y-55820858D01*
X78459432Y-56007265D01*
X78459429Y-56007270D01*
X78452104Y-56022979D01*
X78405929Y-56075417D01*
X78338735Y-56094566D01*
X78271855Y-56074347D01*
X78227341Y-56022973D01*
X78220133Y-56007515D01*
X78220132Y-56007513D01*
X78169025Y-55934526D01*
X77490000Y-56613551D01*
X77490000Y-56607339D01*
X77462741Y-56505606D01*
X77410080Y-56414394D01*
X77335606Y-56339920D01*
X77244394Y-56287259D01*
X77142661Y-56260000D01*
X77136448Y-56260000D01*
X77815472Y-55580974D01*
X77742478Y-55529863D01*
X77536331Y-55433735D01*
X77536317Y-55433730D01*
X77316610Y-55374860D01*
X77316599Y-55374858D01*
X77090002Y-55355034D01*
X77089998Y-55355034D01*
X76863400Y-55374858D01*
X76863389Y-55374860D01*
X76643682Y-55433730D01*
X76643673Y-55433734D01*
X76437516Y-55529866D01*
X76437512Y-55529868D01*
X76364526Y-55580973D01*
X76364526Y-55580974D01*
X77043553Y-56260000D01*
X77037339Y-56260000D01*
X76935606Y-56287259D01*
X76844394Y-56339920D01*
X76769920Y-56414394D01*
X76717259Y-56505606D01*
X76690000Y-56607339D01*
X76690000Y-56613552D01*
X76010974Y-55934526D01*
X76010973Y-55934526D01*
X75959868Y-56007512D01*
X75959866Y-56007516D01*
X75863734Y-56213673D01*
X75863730Y-56213682D01*
X75804860Y-56433389D01*
X75804858Y-56433400D01*
X75785034Y-56659997D01*
X71250500Y-56659997D01*
X71250500Y-54521045D01*
X72356035Y-54521045D01*
X72357336Y-56023045D01*
X73000500Y-56023045D01*
X73998500Y-56023045D01*
X74881606Y-56023045D01*
X74905378Y-55934327D01*
X74906893Y-55929130D01*
X74916742Y-55897896D01*
X74918482Y-55892771D01*
X74933382Y-55851840D01*
X74935342Y-55846802D01*
X74947860Y-55816582D01*
X74950038Y-55811631D01*
X75064573Y-55566011D01*
X75066964Y-55561162D01*
X75082071Y-55532140D01*
X75084673Y-55527397D01*
X75106451Y-55489674D01*
X75109257Y-55485050D01*
X75126847Y-55457437D01*
X75129855Y-55452935D01*
X75321992Y-55178533D01*
X75361566Y-55142269D01*
X75495146Y-55065145D01*
X75500500Y-55055872D01*
X75500500Y-54521045D01*
X73998500Y-54521045D01*
X73998500Y-56023045D01*
X73000500Y-56023045D01*
X73000500Y-54521045D01*
X72356035Y-54521045D01*
X71250500Y-54521045D01*
X71250500Y-52021045D01*
X72353870Y-52021045D01*
X72355171Y-53523045D01*
X73000500Y-53523045D01*
X73998500Y-53523045D01*
X75500500Y-53523045D01*
X76498500Y-53523045D01*
X78000500Y-53523045D01*
X78998500Y-53523045D01*
X80500500Y-53523045D01*
X81498500Y-53523045D01*
X83000500Y-53523045D01*
X83998500Y-53523045D01*
X85336679Y-53523045D01*
X85308823Y-53510323D01*
X85300909Y-53506362D01*
X85238319Y-53472185D01*
X85230705Y-53467667D01*
X85185638Y-53438703D01*
X85178368Y-53433655D01*
X85008348Y-53306377D01*
X93998500Y-53306377D01*
X93998500Y-53523045D01*
X95500500Y-53523045D01*
X95500500Y-52021045D01*
X95248671Y-52021045D01*
X95124606Y-52248253D01*
X95122414Y-52252102D01*
X95108740Y-52275147D01*
X95106411Y-52278917D01*
X95087144Y-52308893D01*
X95084687Y-52312570D01*
X95069425Y-52334550D01*
X95066838Y-52338137D01*
X94874005Y-52595732D01*
X94871293Y-52599224D01*
X94854499Y-52620066D01*
X94851660Y-52623463D01*
X94828325Y-52650395D01*
X94825363Y-52653692D01*
X94807108Y-52673299D01*
X94804035Y-52676484D01*
X94576484Y-52904035D01*
X94573299Y-52907108D01*
X94553692Y-52925363D01*
X94550395Y-52928325D01*
X94523463Y-52951660D01*
X94520066Y-52954499D01*
X94499224Y-52971293D01*
X94495732Y-52974005D01*
X94238137Y-53166838D01*
X94234550Y-53169425D01*
X94212570Y-53184687D01*
X94208893Y-53187144D01*
X94178917Y-53206411D01*
X94175147Y-53208740D01*
X94152102Y-53222414D01*
X94148253Y-53224606D01*
X93998500Y-53306377D01*
X85008348Y-53306377D01*
X85006184Y-53304757D01*
X84999293Y-53299204D01*
X84958808Y-53264124D01*
X84952329Y-53258092D01*
X84901908Y-53207671D01*
X84895876Y-53201192D01*
X84860796Y-53160707D01*
X84855243Y-53153816D01*
X84726345Y-52981632D01*
X84721297Y-52974362D01*
X84692333Y-52929295D01*
X84687815Y-52921681D01*
X84653638Y-52859091D01*
X84649677Y-52851177D01*
X84627419Y-52802441D01*
X84624030Y-52794261D01*
X84550421Y-52596904D01*
X84547942Y-52589564D01*
X84534332Y-52544695D01*
X84532315Y-52537212D01*
X84517972Y-52476501D01*
X84516428Y-52468916D01*
X84508522Y-52422738D01*
X84507455Y-52415069D01*
X84496289Y-52311217D01*
X84495977Y-52307905D01*
X84494364Y-52287856D01*
X84494142Y-52284542D01*
X84492713Y-52257855D01*
X84492580Y-52254539D01*
X84492044Y-52234491D01*
X84492000Y-52231177D01*
X84492000Y-52021045D01*
X83998500Y-52021045D01*
X83998500Y-53523045D01*
X83000500Y-53523045D01*
X83000500Y-52021045D01*
X81498500Y-52021045D01*
X81498500Y-53523045D01*
X80500500Y-53523045D01*
X80500500Y-52021045D01*
X78998500Y-52021045D01*
X78998500Y-53523045D01*
X78000500Y-53523045D01*
X78000500Y-52021045D01*
X76498500Y-52021045D01*
X76498500Y-53523045D01*
X75500500Y-53523045D01*
X75500500Y-52021045D01*
X73998500Y-52021045D01*
X73998500Y-53523045D01*
X73000500Y-53523045D01*
X73000500Y-52021045D01*
X72353870Y-52021045D01*
X71250500Y-52021045D01*
X71250500Y-49521045D01*
X72351704Y-49521045D01*
X72353005Y-51023045D01*
X73000500Y-51023045D01*
X73998500Y-51023045D01*
X75500500Y-51023045D01*
X81498500Y-51023045D01*
X83000500Y-51023045D01*
X83000500Y-50798030D01*
X82729287Y-50821759D01*
X82723890Y-50822113D01*
X82691190Y-50823541D01*
X82685780Y-50823659D01*
X82642220Y-50823659D01*
X82636810Y-50823541D01*
X82604110Y-50822113D01*
X82598713Y-50821759D01*
X82319916Y-50797367D01*
X82314539Y-50796778D01*
X82282096Y-50792507D01*
X82276749Y-50791684D01*
X82233854Y-50784121D01*
X82228546Y-50783066D01*
X82196588Y-50775981D01*
X82191334Y-50774695D01*
X81920992Y-50702259D01*
X81915795Y-50700744D01*
X81884560Y-50690895D01*
X81879432Y-50689154D01*
X81838500Y-50674253D01*
X81833465Y-50672295D01*
X81803244Y-50659777D01*
X81798292Y-50657598D01*
X81544663Y-50539328D01*
X81539812Y-50536936D01*
X81510791Y-50521829D01*
X81506051Y-50519229D01*
X81498500Y-50514869D01*
X81498500Y-51023045D01*
X75500500Y-51023045D01*
X75500500Y-50172748D01*
X75469902Y-50131875D01*
X75464854Y-50124604D01*
X75435890Y-50079537D01*
X75431372Y-50071923D01*
X75397195Y-50009333D01*
X75393233Y-50001419D01*
X75370975Y-49952682D01*
X75367587Y-49944502D01*
X75293931Y-49747018D01*
X75291452Y-49739679D01*
X75277847Y-49694828D01*
X75275832Y-49687352D01*
X75261484Y-49626637D01*
X75259939Y-49619045D01*
X75252028Y-49572840D01*
X75250959Y-49565167D01*
X75246216Y-49521045D01*
X73998500Y-49521045D01*
X73998500Y-51023045D01*
X73000500Y-51023045D01*
X73000500Y-49521045D01*
X72351704Y-49521045D01*
X71250500Y-49521045D01*
X71250500Y-47773257D01*
X73998500Y-47773257D01*
X73998500Y-48523045D01*
X75235501Y-48523045D01*
X75235500Y-47773166D01*
X73998500Y-47773257D01*
X71250500Y-47773257D01*
X71250500Y-47572135D01*
X76233500Y-47572135D01*
X76233500Y-49367870D01*
X76233501Y-49367876D01*
X76239908Y-49427483D01*
X76290202Y-49562328D01*
X76290206Y-49562335D01*
X76376452Y-49677544D01*
X76376455Y-49677547D01*
X76491664Y-49763793D01*
X76491671Y-49763797D01*
X76626517Y-49814091D01*
X76626516Y-49814091D01*
X76628386Y-49814292D01*
X76686127Y-49820500D01*
X78481872Y-49820499D01*
X78541483Y-49814091D01*
X78676331Y-49763796D01*
X78791546Y-49677546D01*
X78877796Y-49562331D01*
X78926810Y-49430916D01*
X78968681Y-49374984D01*
X79034145Y-49350566D01*
X79102418Y-49365417D01*
X79130673Y-49386569D01*
X79252599Y-49508495D01*
X79333535Y-49565167D01*
X79446165Y-49644032D01*
X79446167Y-49644033D01*
X79446170Y-49644035D01*
X79660337Y-49743903D01*
X79888592Y-49805063D01*
X80065034Y-49820500D01*
X80123999Y-49825659D01*
X80124000Y-49825659D01*
X80124001Y-49825659D01*
X80182966Y-49820500D01*
X80359408Y-49805063D01*
X80587663Y-49743903D01*
X80801830Y-49644035D01*
X80995401Y-49508495D01*
X81162495Y-49341401D01*
X81292425Y-49155842D01*
X81347002Y-49112217D01*
X81416500Y-49105023D01*
X81478855Y-49136546D01*
X81495575Y-49155842D01*
X81625500Y-49341395D01*
X81625505Y-49341401D01*
X81792599Y-49508495D01*
X81873535Y-49565167D01*
X81986165Y-49644032D01*
X81986167Y-49644033D01*
X81986170Y-49644035D01*
X82200337Y-49743903D01*
X82428592Y-49805063D01*
X82605034Y-49820500D01*
X82663999Y-49825659D01*
X82664000Y-49825659D01*
X82664001Y-49825659D01*
X82722966Y-49820500D01*
X82899408Y-49805063D01*
X83127663Y-49743903D01*
X83341830Y-49644035D01*
X83535401Y-49508495D01*
X83702495Y-49341401D01*
X83838035Y-49147830D01*
X83850007Y-49122155D01*
X85490000Y-49122155D01*
X85490000Y-50420000D01*
X86770936Y-50420000D01*
X86759207Y-50448316D01*
X86730000Y-50595147D01*
X86730000Y-50744853D01*
X86759207Y-50891684D01*
X86770936Y-50920000D01*
X85490000Y-50920000D01*
X85490000Y-52217844D01*
X85496401Y-52277372D01*
X85496403Y-52277379D01*
X85546645Y-52412086D01*
X85546649Y-52412093D01*
X85632809Y-52527187D01*
X85632812Y-52527190D01*
X85747906Y-52613350D01*
X85747913Y-52613354D01*
X85882620Y-52663596D01*
X85882627Y-52663598D01*
X85942155Y-52669999D01*
X85942172Y-52670000D01*
X87240000Y-52670000D01*
X87240000Y-51389064D01*
X87268316Y-51400793D01*
X87415147Y-51430000D01*
X87564853Y-51430000D01*
X87711684Y-51400793D01*
X87740000Y-51389064D01*
X87740000Y-52670000D01*
X89037828Y-52670000D01*
X89037844Y-52669999D01*
X89097372Y-52663598D01*
X89097379Y-52663596D01*
X89232086Y-52613354D01*
X89232093Y-52613350D01*
X89347187Y-52527190D01*
X89347190Y-52527187D01*
X89433350Y-52412093D01*
X89433354Y-52412086D01*
X89483596Y-52277379D01*
X89483598Y-52277372D01*
X89489999Y-52217844D01*
X89490000Y-52217827D01*
X89490000Y-50920000D01*
X88209064Y-50920000D01*
X88220793Y-50891684D01*
X88250000Y-50744853D01*
X88250000Y-50669998D01*
X90564390Y-50669998D01*
X90564390Y-50670001D01*
X90584804Y-50955433D01*
X90645628Y-51235037D01*
X90645630Y-51235043D01*
X90645631Y-51235046D01*
X90707452Y-51400793D01*
X90745635Y-51503166D01*
X90882770Y-51754309D01*
X90882775Y-51754317D01*
X91054254Y-51983387D01*
X91054270Y-51983405D01*
X91256594Y-52185729D01*
X91256612Y-52185745D01*
X91485682Y-52357224D01*
X91485690Y-52357229D01*
X91736833Y-52494364D01*
X91736832Y-52494364D01*
X91736836Y-52494365D01*
X91736839Y-52494367D01*
X92004954Y-52594369D01*
X92004960Y-52594370D01*
X92004962Y-52594371D01*
X92284566Y-52655195D01*
X92284568Y-52655195D01*
X92284572Y-52655196D01*
X92537688Y-52673299D01*
X92569999Y-52675610D01*
X92570000Y-52675610D01*
X92570001Y-52675610D01*
X92602312Y-52673299D01*
X92855428Y-52655196D01*
X92872111Y-52651567D01*
X93135037Y-52594371D01*
X93135037Y-52594370D01*
X93135046Y-52594369D01*
X93403161Y-52494367D01*
X93654315Y-52357226D01*
X93883395Y-52185739D01*
X94085739Y-51983395D01*
X94257226Y-51754315D01*
X94394367Y-51503161D01*
X94494369Y-51235046D01*
X94540487Y-51023045D01*
X96498500Y-51023045D01*
X98000500Y-51023045D01*
X98998500Y-51023045D01*
X99897588Y-51023045D01*
X99896459Y-50997190D01*
X99896341Y-50991780D01*
X99896341Y-50969999D01*
X100894341Y-50969999D01*
X100894341Y-50970000D01*
X100914936Y-51205403D01*
X100914938Y-51205413D01*
X100976094Y-51433655D01*
X100976096Y-51433659D01*
X100976097Y-51433663D01*
X101008505Y-51503161D01*
X101075965Y-51647830D01*
X101075967Y-51647834D01*
X101150528Y-51754317D01*
X101211505Y-51841401D01*
X101378599Y-52008495D01*
X101475384Y-52076265D01*
X101572165Y-52144032D01*
X101572167Y-52144033D01*
X101572170Y-52144035D01*
X101786337Y-52243903D01*
X101786343Y-52243904D01*
X101786344Y-52243905D01*
X101838407Y-52257855D01*
X102014592Y-52305063D01*
X102202918Y-52321539D01*
X102249999Y-52325659D01*
X102250000Y-52325659D01*
X102250001Y-52325659D01*
X102289234Y-52322226D01*
X102485408Y-52305063D01*
X102713663Y-52243903D01*
X102927830Y-52144035D01*
X103121401Y-52008495D01*
X103288495Y-51841401D01*
X103424035Y-51647830D01*
X103523903Y-51433663D01*
X103585063Y-51205408D01*
X103605659Y-50970000D01*
X103603753Y-50948220D01*
X103598807Y-50891684D01*
X103585063Y-50734592D01*
X103532102Y-50536936D01*
X103523905Y-50506344D01*
X103523904Y-50506343D01*
X103523903Y-50506337D01*
X103424035Y-50292171D01*
X103378396Y-50226992D01*
X103288496Y-50098600D01*
X103261819Y-50071923D01*
X103166179Y-49976283D01*
X103132696Y-49914963D01*
X103137680Y-49845271D01*
X103179551Y-49789337D01*
X103210529Y-49772422D01*
X103342086Y-49723354D01*
X103342093Y-49723350D01*
X103457187Y-49637190D01*
X103457190Y-49637187D01*
X103543350Y-49522093D01*
X103543354Y-49522086D01*
X103593596Y-49387379D01*
X103593598Y-49387372D01*
X103599999Y-49327844D01*
X103600000Y-49327827D01*
X103600000Y-48680000D01*
X102683012Y-48680000D01*
X102715925Y-48622993D01*
X102750000Y-48495826D01*
X102750000Y-48364174D01*
X102715925Y-48237007D01*
X102683012Y-48180000D01*
X103600000Y-48180000D01*
X103600000Y-47532172D01*
X103599999Y-47532155D01*
X103593598Y-47472627D01*
X103593596Y-47472620D01*
X103543354Y-47337913D01*
X103543350Y-47337906D01*
X103457190Y-47222812D01*
X103457187Y-47222809D01*
X103342093Y-47136649D01*
X103342086Y-47136645D01*
X103207379Y-47086403D01*
X103207372Y-47086401D01*
X103147844Y-47080000D01*
X102500000Y-47080000D01*
X102500000Y-47996988D01*
X102442993Y-47964075D01*
X102315826Y-47930000D01*
X102184174Y-47930000D01*
X102057007Y-47964075D01*
X102000000Y-47996988D01*
X102000000Y-47080000D01*
X101352155Y-47080000D01*
X101292627Y-47086401D01*
X101292620Y-47086403D01*
X101157913Y-47136645D01*
X101157906Y-47136649D01*
X101042812Y-47222809D01*
X101042809Y-47222812D01*
X100956649Y-47337906D01*
X100956645Y-47337913D01*
X100906403Y-47472620D01*
X100906401Y-47472627D01*
X100900000Y-47532155D01*
X100900000Y-48180000D01*
X101816988Y-48180000D01*
X101784075Y-48237007D01*
X101750000Y-48364174D01*
X101750000Y-48495826D01*
X101784075Y-48622993D01*
X101816988Y-48680000D01*
X100900000Y-48680000D01*
X100900000Y-49327844D01*
X100906401Y-49387372D01*
X100906403Y-49387379D01*
X100956645Y-49522086D01*
X100956649Y-49522093D01*
X101042809Y-49637187D01*
X101042812Y-49637190D01*
X101157906Y-49723350D01*
X101157913Y-49723354D01*
X101289470Y-49772421D01*
X101345403Y-49814292D01*
X101369821Y-49879756D01*
X101354970Y-49948029D01*
X101333819Y-49976284D01*
X101211503Y-50098600D01*
X101075965Y-50292169D01*
X101075964Y-50292171D01*
X100976098Y-50506335D01*
X100976094Y-50506344D01*
X100914938Y-50734586D01*
X100914936Y-50734596D01*
X100894341Y-50969999D01*
X99896341Y-50969999D01*
X99896341Y-50948220D01*
X99896459Y-50942810D01*
X99897887Y-50910110D01*
X99898241Y-50904713D01*
X99922633Y-50625916D01*
X99923222Y-50620539D01*
X99927493Y-50588096D01*
X99928316Y-50582749D01*
X99935879Y-50539854D01*
X99936934Y-50534546D01*
X99944019Y-50502588D01*
X99945305Y-50497334D01*
X100017741Y-50226992D01*
X100019256Y-50221795D01*
X100029105Y-50190560D01*
X100030846Y-50185432D01*
X100045747Y-50144500D01*
X100047705Y-50139465D01*
X100060223Y-50109244D01*
X100062402Y-50104293D01*
X100096976Y-50030146D01*
X100063638Y-49969091D01*
X100059677Y-49961177D01*
X100037419Y-49912441D01*
X100034030Y-49904261D01*
X99960421Y-49706904D01*
X99957942Y-49699564D01*
X99944332Y-49654695D01*
X99942315Y-49647212D01*
X99927972Y-49586501D01*
X99926428Y-49578916D01*
X99918522Y-49532738D01*
X99917455Y-49525069D01*
X99917022Y-49521045D01*
X98998500Y-49521045D01*
X98998500Y-51023045D01*
X98000500Y-51023045D01*
X98000500Y-49521045D01*
X96498500Y-49521045D01*
X96498500Y-51023045D01*
X94540487Y-51023045D01*
X94555196Y-50955428D01*
X94575610Y-50670000D01*
X94555196Y-50384572D01*
X94535095Y-50292171D01*
X94494371Y-50104962D01*
X94494370Y-50104960D01*
X94494369Y-50104954D01*
X94394367Y-49836839D01*
X94388262Y-49825659D01*
X94257229Y-49585690D01*
X94257224Y-49585682D01*
X94085745Y-49356612D01*
X94085729Y-49356594D01*
X93883405Y-49154270D01*
X93883387Y-49154254D01*
X93654317Y-48982775D01*
X93654309Y-48982770D01*
X93403166Y-48845635D01*
X93403167Y-48845635D01*
X93295915Y-48805632D01*
X93135046Y-48745631D01*
X93135043Y-48745630D01*
X93135037Y-48745628D01*
X92855433Y-48684804D01*
X92570001Y-48664390D01*
X92569999Y-48664390D01*
X92284566Y-48684804D01*
X92004962Y-48745628D01*
X91736833Y-48845635D01*
X91485690Y-48982770D01*
X91485682Y-48982775D01*
X91256612Y-49154254D01*
X91256594Y-49154270D01*
X91054270Y-49356594D01*
X91054254Y-49356612D01*
X90882775Y-49585682D01*
X90882770Y-49585690D01*
X90745635Y-49836833D01*
X90645628Y-50104962D01*
X90584804Y-50384566D01*
X90564390Y-50669998D01*
X88250000Y-50669998D01*
X88250000Y-50595147D01*
X88220793Y-50448316D01*
X88209064Y-50420000D01*
X89490000Y-50420000D01*
X89490000Y-49122172D01*
X89489999Y-49122155D01*
X89483598Y-49062627D01*
X89483596Y-49062620D01*
X89433354Y-48927913D01*
X89433350Y-48927906D01*
X89347190Y-48812812D01*
X89347187Y-48812809D01*
X89232093Y-48726649D01*
X89232086Y-48726645D01*
X89097379Y-48676403D01*
X89097372Y-48676401D01*
X89037844Y-48670000D01*
X87740000Y-48670000D01*
X87740000Y-49950935D01*
X87711684Y-49939207D01*
X87564853Y-49910000D01*
X87415147Y-49910000D01*
X87268316Y-49939207D01*
X87240000Y-49950935D01*
X87240000Y-48670000D01*
X85942155Y-48670000D01*
X85882627Y-48676401D01*
X85882620Y-48676403D01*
X85747913Y-48726645D01*
X85747906Y-48726649D01*
X85632812Y-48812809D01*
X85632809Y-48812812D01*
X85546649Y-48927906D01*
X85546645Y-48927913D01*
X85496403Y-49062620D01*
X85496401Y-49062627D01*
X85490000Y-49122155D01*
X83850007Y-49122155D01*
X83937903Y-48933663D01*
X83999063Y-48705408D01*
X84019659Y-48470000D01*
X83999063Y-48234592D01*
X83937903Y-48006337D01*
X83838035Y-47792171D01*
X83832425Y-47784158D01*
X83823755Y-47771776D01*
X93998500Y-47771776D01*
X93998500Y-48033621D01*
X94148253Y-48115394D01*
X94152102Y-48117586D01*
X94175147Y-48131260D01*
X94178917Y-48133589D01*
X94208893Y-48152856D01*
X94212570Y-48155313D01*
X94234550Y-48170575D01*
X94238137Y-48173162D01*
X94495732Y-48365995D01*
X94499224Y-48368707D01*
X94520066Y-48385501D01*
X94523463Y-48388340D01*
X94550395Y-48411675D01*
X94553692Y-48414637D01*
X94573299Y-48432892D01*
X94576484Y-48435965D01*
X94663564Y-48523045D01*
X95500500Y-48523045D01*
X95500500Y-47771665D01*
X93998500Y-47771776D01*
X83823755Y-47771776D01*
X83823625Y-47771591D01*
X96498500Y-47771591D01*
X96498500Y-48523045D01*
X98000500Y-48523045D01*
X98000500Y-47771480D01*
X96498500Y-47771591D01*
X83823625Y-47771591D01*
X83823495Y-47771406D01*
X98998500Y-47771406D01*
X98998500Y-48523045D01*
X99902000Y-48523045D01*
X99902000Y-48479454D01*
X99911439Y-48432002D01*
X99912268Y-48430000D01*
X99911439Y-48427998D01*
X99902000Y-48380546D01*
X99902000Y-47771340D01*
X98998500Y-47771406D01*
X83823495Y-47771406D01*
X83702494Y-47598597D01*
X83535402Y-47431506D01*
X83535395Y-47431501D01*
X83341834Y-47295967D01*
X83341830Y-47295965D01*
X83341828Y-47295964D01*
X83127663Y-47196097D01*
X83127659Y-47196096D01*
X83127655Y-47196094D01*
X82899413Y-47134938D01*
X82899403Y-47134936D01*
X82664001Y-47114341D01*
X82663999Y-47114341D01*
X82428596Y-47134936D01*
X82428586Y-47134938D01*
X82200344Y-47196094D01*
X82200335Y-47196098D01*
X81986171Y-47295964D01*
X81986169Y-47295965D01*
X81792597Y-47431505D01*
X81625505Y-47598597D01*
X81495575Y-47784158D01*
X81440998Y-47827783D01*
X81371500Y-47834977D01*
X81309145Y-47803454D01*
X81292425Y-47784158D01*
X81162494Y-47598597D01*
X80995402Y-47431506D01*
X80995395Y-47431501D01*
X80801834Y-47295967D01*
X80801830Y-47295965D01*
X80801828Y-47295964D01*
X80587663Y-47196097D01*
X80587659Y-47196096D01*
X80587655Y-47196094D01*
X80359413Y-47134938D01*
X80359403Y-47134936D01*
X80124001Y-47114341D01*
X80123999Y-47114341D01*
X79888596Y-47134936D01*
X79888586Y-47134938D01*
X79660344Y-47196094D01*
X79660335Y-47196098D01*
X79446171Y-47295964D01*
X79446169Y-47295965D01*
X79252600Y-47431503D01*
X79130673Y-47553430D01*
X79069350Y-47586914D01*
X78999658Y-47581930D01*
X78943725Y-47540058D01*
X78926810Y-47509081D01*
X78877797Y-47377671D01*
X78877793Y-47377664D01*
X78791547Y-47262455D01*
X78791544Y-47262452D01*
X78676335Y-47176206D01*
X78676328Y-47176202D01*
X78541482Y-47125908D01*
X78541483Y-47125908D01*
X78481883Y-47119501D01*
X78481881Y-47119500D01*
X78481873Y-47119500D01*
X78481864Y-47119500D01*
X76686129Y-47119500D01*
X76686123Y-47119501D01*
X76626516Y-47125908D01*
X76491671Y-47176202D01*
X76491664Y-47176206D01*
X76376455Y-47262452D01*
X76376452Y-47262455D01*
X76290206Y-47377664D01*
X76290202Y-47377671D01*
X76239908Y-47512517D01*
X76233501Y-47572116D01*
X76233500Y-47572135D01*
X71250500Y-47572135D01*
X71250500Y-46899453D01*
X71270185Y-46832414D01*
X71322989Y-46786659D01*
X71374487Y-46775453D01*
X103900491Y-46773045D01*
X103967532Y-46792725D01*
G37*
%TD.AperFunction*%
%TD*%
M02*
