%TF.GenerationSoftware,KiCad,Pcbnew,8.0.4*%
%TF.CreationDate,2025-01-30T18:37:50+05:30*%
%TF.ProjectId,Bread_board_power_supply,42726561-645f-4626-9f61-72645f706f77,1*%
%TF.SameCoordinates,Original*%
%TF.FileFunction,Copper,L1,Top*%
%TF.FilePolarity,Positive*%
%FSLAX46Y46*%
G04 Gerber Fmt 4.6, Leading zero omitted, Abs format (unit mm)*
G04 Created by KiCad (PCBNEW 8.0.4) date 2025-01-30 18:37:50*
%MOMM*%
%LPD*%
G01*
G04 APERTURE LIST*
G04 Aperture macros list*
%AMRoundRect*
0 Rectangle with rounded corners*
0 $1 Rounding radius*
0 $2 $3 $4 $5 $6 $7 $8 $9 X,Y pos of 4 corners*
0 Add a 4 corners polygon primitive as box body*
4,1,4,$2,$3,$4,$5,$6,$7,$8,$9,$2,$3,0*
0 Add four circle primitives for the rounded corners*
1,1,$1+$1,$2,$3*
1,1,$1+$1,$4,$5*
1,1,$1+$1,$6,$7*
1,1,$1+$1,$8,$9*
0 Add four rect primitives between the rounded corners*
20,1,$1+$1,$2,$3,$4,$5,0*
20,1,$1+$1,$4,$5,$6,$7,0*
20,1,$1+$1,$6,$7,$8,$9,0*
20,1,$1+$1,$8,$9,$2,$3,0*%
G04 Aperture macros list end*
%TA.AperFunction,ComponentPad*%
%ADD10C,1.600000*%
%TD*%
%TA.AperFunction,ComponentPad*%
%ADD11O,1.600000X1.600000*%
%TD*%
%TA.AperFunction,ComponentPad*%
%ADD12R,1.905000X2.000000*%
%TD*%
%TA.AperFunction,ComponentPad*%
%ADD13O,1.905000X2.000000*%
%TD*%
%TA.AperFunction,ComponentPad*%
%ADD14R,1.800000X1.800000*%
%TD*%
%TA.AperFunction,ComponentPad*%
%ADD15C,1.800000*%
%TD*%
%TA.AperFunction,ComponentPad*%
%ADD16R,3.500000X3.500000*%
%TD*%
%TA.AperFunction,ComponentPad*%
%ADD17RoundRect,0.750000X-0.750000X-1.000000X0.750000X-1.000000X0.750000X1.000000X-0.750000X1.000000X0*%
%TD*%
%TA.AperFunction,ComponentPad*%
%ADD18RoundRect,0.875000X-0.875000X-0.875000X0.875000X-0.875000X0.875000X0.875000X-0.875000X0.875000X0*%
%TD*%
%TA.AperFunction,ComponentPad*%
%ADD19R,1.700000X1.700000*%
%TD*%
%TA.AperFunction,ComponentPad*%
%ADD20O,1.700000X1.700000*%
%TD*%
%TA.AperFunction,ComponentPad*%
%ADD21R,3.000000X3.000000*%
%TD*%
%TA.AperFunction,ComponentPad*%
%ADD22C,3.000000*%
%TD*%
%TA.AperFunction,ComponentPad*%
%ADD23R,1.900000X1.900000*%
%TD*%
%TA.AperFunction,ComponentPad*%
%ADD24C,1.900000*%
%TD*%
%TA.AperFunction,Conductor*%
%ADD25C,0.350000*%
%TD*%
%TA.AperFunction,Conductor*%
%ADD26C,0.200000*%
%TD*%
G04 APERTURE END LIST*
D10*
%TO.P,C1,1*%
%TO.N,/12V*%
X84308000Y-56642000D03*
%TO.P,C1,2*%
%TO.N,GND*%
X81808000Y-56642000D03*
%TD*%
%TO.P,R1,1*%
%TO.N,Net-(U2-ADJ)*%
X72940000Y-83560000D03*
D11*
%TO.P,R1,2*%
%TO.N,/3P3V*%
X72940000Y-91180000D03*
%TD*%
D10*
%TO.P,R2,1*%
%TO.N,Net-(D1-A)*%
X95250000Y-66548000D03*
D11*
%TO.P,R2,2*%
%TO.N,/12V*%
X95250000Y-58928000D03*
%TD*%
D12*
%TO.P,U1,1,VI*%
%TO.N,/12V*%
X84074000Y-60706000D03*
D13*
%TO.P,U1,2,GND*%
%TO.N,GND*%
X81534000Y-60706000D03*
%TO.P,U1,3,VO*%
%TO.N,/5V*%
X78994000Y-60706000D03*
%TD*%
D10*
%TO.P,C2,1*%
%TO.N,/5V*%
X79590000Y-56660000D03*
%TO.P,C2,2*%
%TO.N,GND*%
X77090000Y-56660000D03*
%TD*%
%TO.P,R3,1*%
%TO.N,GND*%
X76570000Y-91180000D03*
D11*
%TO.P,R3,2*%
%TO.N,Net-(U2-ADJ)*%
X76570000Y-83560000D03*
%TD*%
D14*
%TO.P,D1,1,K*%
%TO.N,GND*%
X91440000Y-73406000D03*
D15*
%TO.P,D1,2,A*%
%TO.N,Net-(D1-A)*%
X93980000Y-73406000D03*
%TD*%
D16*
%TO.P,J7,1*%
%TO.N,/PWR_input*%
X85756000Y-71882000D03*
D17*
%TO.P,J7,2*%
%TO.N,GND*%
X79756000Y-71882000D03*
D18*
%TO.P,J7,3*%
X82756000Y-76582000D03*
%TD*%
D19*
%TO.P,J2,1,Pin_1*%
%TO.N,GND*%
X102250000Y-94420000D03*
D20*
%TO.P,J2,2,Pin_2*%
%TO.N,/PWR_OUT_BOT*%
X102250000Y-96960000D03*
%TD*%
D21*
%TO.P,J6,1,Pin_1*%
%TO.N,GND*%
X87490000Y-94810000D03*
D22*
%TO.P,J6,2,Pin_2*%
%TO.N,/PWR_OUT_BOT*%
X92570000Y-94810000D03*
%TD*%
D10*
%TO.P,C3,1*%
%TO.N,/3P3V*%
X80770000Y-86380000D03*
%TO.P,C3,2*%
%TO.N,GND*%
X80770000Y-88880000D03*
%TD*%
D21*
%TO.P,J5,1,Pin_1*%
%TO.N,GND*%
X87490000Y-50670000D03*
D22*
%TO.P,J5,2,Pin_2*%
%TO.N,/PWR_OUT_TOP*%
X92570000Y-50670000D03*
%TD*%
D23*
%TO.P,S1,1*%
%TO.N,/12V*%
X90424000Y-60198000D03*
D24*
%TO.P,S1,2*%
%TO.N,/PWR_input*%
X90424000Y-62698000D03*
%TO.P,S1,3*%
%TO.N,unconnected-(S1-Pad3)*%
X90424000Y-65198000D03*
%TD*%
D19*
%TO.P,J3,1,Pin_1*%
%TO.N,/3P3V*%
X77584000Y-48470000D03*
D20*
%TO.P,J3,2,Pin_2*%
%TO.N,/PWR_OUT_TOP*%
X80124000Y-48470000D03*
%TO.P,J3,3,Pin_3*%
%TO.N,/5V*%
X82664000Y-48470000D03*
%TD*%
D19*
%TO.P,J1,1,Pin_1*%
%TO.N,GND*%
X102250000Y-48430000D03*
D20*
%TO.P,J1,2,Pin_2*%
%TO.N,/PWR_OUT_TOP*%
X102250000Y-50970000D03*
%TD*%
D12*
%TO.P,U2,1,ADJ*%
%TO.N,Net-(U2-ADJ)*%
X83060000Y-82530000D03*
D13*
%TO.P,U2,2,VO*%
%TO.N,/3P3V*%
X85600000Y-82530000D03*
%TO.P,U2,3,VI*%
%TO.N,/12V*%
X88140000Y-82530000D03*
%TD*%
D19*
%TO.P,J4,1,Pin_1*%
%TO.N,/3P3V*%
X77584000Y-97010000D03*
D20*
%TO.P,J4,2,Pin_2*%
%TO.N,/PWR_OUT_BOT*%
X80124000Y-97010000D03*
%TO.P,J4,3,Pin_3*%
%TO.N,/5V*%
X82664000Y-97010000D03*
%TD*%
D25*
%TO.N,/PWR_OUT_BOT*%
X89095000Y-98285000D02*
X92570000Y-94810000D01*
X81399000Y-98285000D02*
X89095000Y-98285000D01*
X80124000Y-97010000D02*
X81399000Y-98285000D01*
D26*
%TO.N,Net-(U2-ADJ)*%
X82030000Y-83560000D02*
X83060000Y-82530000D01*
X76570000Y-83560000D02*
X82030000Y-83560000D01*
X72940000Y-83560000D02*
X76570000Y-83560000D01*
D25*
%TO.N,/3P3V*%
X74450000Y-51604000D02*
X77584000Y-48470000D01*
X74450000Y-77800000D02*
X74450000Y-51604000D01*
X82782500Y-79450000D02*
X76100000Y-79450000D01*
X85600000Y-82530000D02*
X85600000Y-82267500D01*
X85600000Y-82267500D02*
X82782500Y-79450000D01*
X76100000Y-79450000D02*
X74450000Y-77800000D01*
%TO.N,/5V*%
X82650000Y-48470000D02*
X82664000Y-48470000D01*
X79590000Y-51530000D02*
X82650000Y-48470000D01*
X79590000Y-56660000D02*
X79590000Y-51530000D01*
X97105000Y-57695000D02*
X94690000Y-55280000D01*
X97105000Y-77875000D02*
X97105000Y-57695000D01*
X80970000Y-55280000D02*
X79590000Y-56660000D01*
X82664000Y-92316000D02*
X97105000Y-77875000D01*
X94690000Y-55280000D02*
X80970000Y-55280000D01*
X82664000Y-97010000D02*
X82664000Y-92316000D01*
%TO.N,/PWR_OUT_TOP*%
X92000000Y-50670000D02*
X92570000Y-50670000D01*
%TO.N,/PWR_OUT_BOT*%
X94720000Y-96960000D02*
X92570000Y-94810000D01*
X102250000Y-96960000D02*
X94720000Y-96960000D01*
%TO.N,/5V*%
X79590000Y-60110000D02*
X79590000Y-56660000D01*
X78994000Y-60706000D02*
X79590000Y-60110000D01*
%TO.N,/12V*%
X84582000Y-60198000D02*
X84074000Y-60706000D01*
X90424000Y-60198000D02*
X84582000Y-60198000D01*
X88140000Y-74056000D02*
X88140000Y-82530000D01*
X91799000Y-62379000D02*
X91799000Y-70397000D01*
X91799000Y-70397000D02*
X88140000Y-74056000D01*
X95250000Y-58928000D02*
X91799000Y-62379000D01*
%TO.N,/3P3V*%
X85600000Y-83880000D02*
X85600000Y-82530000D01*
X80770000Y-86380000D02*
X83100000Y-86380000D01*
X83100000Y-86380000D02*
X85600000Y-83880000D01*
X72940000Y-91180000D02*
X77740000Y-86380000D01*
X77740000Y-86380000D02*
X80770000Y-86380000D01*
X72940000Y-92366000D02*
X72940000Y-91180000D01*
X77584000Y-97010000D02*
X72940000Y-92366000D01*
%TO.N,/PWR_input*%
X85756000Y-67366000D02*
X85756000Y-71882000D01*
X90424000Y-62698000D02*
X85756000Y-67366000D01*
%TO.N,/12V*%
X84308000Y-60472000D02*
X84074000Y-60706000D01*
X84308000Y-56642000D02*
X84308000Y-60472000D01*
%TO.N,/PWR_OUT_TOP*%
X102250000Y-50970000D02*
X92870000Y-50970000D01*
X92870000Y-50970000D02*
X92570000Y-50670000D01*
D26*
%TO.N,Net-(D1-A)*%
X95250000Y-72136000D02*
X95250000Y-66548000D01*
X93980000Y-73406000D02*
X95250000Y-72136000D01*
D25*
%TO.N,/12V*%
X91694000Y-58928000D02*
X90424000Y-60198000D01*
X95250000Y-58928000D02*
X91694000Y-58928000D01*
%TO.N,/PWR_OUT_TOP*%
X88490000Y-47160000D02*
X92000000Y-50670000D01*
X80124000Y-48470000D02*
X81434000Y-47160000D01*
X81434000Y-47160000D02*
X88490000Y-47160000D01*
%TD*%
M02*
