%TF.GenerationSoftware,KiCad,Pcbnew,8.0.4*%
%TF.CreationDate,2025-01-30T18:38:04+05:30*%
%TF.ProjectId,Bread_board_power_supply,42726561-645f-4626-9f61-72645f706f77,1*%
%TF.SameCoordinates,Original*%
%TF.FileFunction,Plated,1,2,PTH,Mixed*%
%TF.FilePolarity,Positive*%
%FSLAX46Y46*%
G04 Gerber Fmt 4.6, Leading zero omitted, Abs format (unit mm)*
G04 Created by KiCad (PCBNEW 8.0.4) date 2025-01-30 18:38:04*
%MOMM*%
%LPD*%
G01*
G04 APERTURE LIST*
%TA.AperFunction,ComponentDrill*%
%ADD10C,0.800000*%
%TD*%
%TA.AperFunction,ComponentDrill*%
%ADD11C,0.900000*%
%TD*%
%TA.AperFunction,ComponentDrill*%
%ADD12C,1.000000*%
%TD*%
G04 aperture for slot hole*
%TA.AperFunction,ComponentDrill*%
%ADD13C,1.000000*%
%TD*%
%TA.AperFunction,ComponentDrill*%
%ADD14C,1.100000*%
%TD*%
%TA.AperFunction,ComponentDrill*%
%ADD15C,1.520000*%
%TD*%
G04 APERTURE END LIST*
D10*
%TO.C,R1*%
X72940000Y-83560000D03*
X72940000Y-91180000D03*
%TO.C,R3*%
X76570000Y-83560000D03*
X76570000Y-91180000D03*
%TO.C,C2*%
X77090000Y-56660000D03*
X79590000Y-56660000D03*
%TO.C,C3*%
X80770000Y-86380000D03*
X80770000Y-88880000D03*
%TO.C,C1*%
X81808000Y-56642000D03*
X84308000Y-56642000D03*
%TO.C,R2*%
X95250000Y-58928000D03*
X95250000Y-66548000D03*
D11*
%TO.C,S1*%
X90424000Y-60198000D03*
X90424000Y-62698000D03*
X90424000Y-65198000D03*
%TO.C,D1*%
X91440000Y-73406000D03*
X93980000Y-73406000D03*
D12*
%TO.C,J3*%
X77584000Y-48470000D03*
%TO.C,J4*%
X77584000Y-97010000D03*
D13*
%TO.C,J7*%
X79756000Y-72882000D02*
X79756000Y-70882000D01*
D12*
%TO.C,J3*%
X80124000Y-48470000D03*
%TO.C,J4*%
X80124000Y-97010000D03*
%TO.C,J3*%
X82664000Y-48470000D03*
%TO.C,J4*%
X82664000Y-97010000D03*
D13*
%TO.C,J7*%
X83756000Y-76582000D02*
X81756000Y-76582000D01*
X85756000Y-72882000D02*
X85756000Y-70882000D01*
D12*
%TO.C,J1*%
X102250000Y-48430000D03*
X102250000Y-50970000D03*
%TO.C,J2*%
X102250000Y-94420000D03*
X102250000Y-96960000D03*
D14*
%TO.C,U1*%
X78994000Y-60706000D03*
X81534000Y-60706000D03*
%TO.C,U2*%
X83060000Y-82530000D03*
%TO.C,U1*%
X84074000Y-60706000D03*
%TO.C,U2*%
X85600000Y-82530000D03*
X88140000Y-82530000D03*
D15*
%TO.C,J5*%
X87490000Y-50670000D03*
%TO.C,J6*%
X87490000Y-94810000D03*
%TO.C,J5*%
X92570000Y-50670000D03*
%TO.C,J6*%
X92570000Y-94810000D03*
M02*
